<?xml version="1.0" standalone="no"?>
<!DOCTYPE svg PUBLIC "-//W3C//DTD SVG 20010904//EN"
 "http://www.w3.org/TR/2001/REC-SVG-20010904/DTD/svg10.dtd">
<svg version="1.0" xmlns="http://www.w3.org/2000/svg"
 width="700.000000pt" height="700.000000pt" viewBox="0 0 700.000000 700.000000"
 preserveAspectRatio="xMidYMid meet">
<metadata>
Created by potrace 1.14, written by Peter Selinger 2001-2017
</metadata>
<g transform="translate(0.000000,700.000000) scale(0.100000,-0.100000)"
fill="#000000" stroke="none">
<path d="M2925 6020 c-88 -54 -168 -105 -179 -112 -17 -13 -5 -36 204 -378
122 -201 234 -385 248 -410 14 -25 29 -52 35 -60 7 -12 -11 -49 -73 -150 -45
-74 -90 -148 -100 -165 -10 -16 -104 -172 -210 -345 -106 -173 -202 -331 -214
-351 -12 -20 -61 -102 -111 -183 -49 -81 -97 -159 -106 -174 -9 -15 -67 -110
-129 -212 -62 -102 -132 -216 -155 -255 -23 -38 -86 -142 -140 -230 -54 -88
-109 -178 -122 -200 -13 -22 -88 -146 -167 -275 -79 -129 -257 -422 -395 -650
-139 -228 -273 -447 -297 -487 l-44 -71 -183 -1 c-100 0 -220 0 -267 0 l-85
-1 2 -207 c1 -115 2 -213 2 -218 1 -7 975 -11 3064 -10 l3062 0 -1 212 c0 117
-4 216 -7 220 -4 3 -124 6 -266 5 l-258 -2 -49 77 c-26 42 -55 89 -64 104 -8
15 -51 86 -95 158 -44 72 -85 139 -90 148 -6 10 -22 36 -35 58 -14 23 -30 50
-37 60 -6 11 -60 99 -119 195 -59 96 -175 288 -259 425 -83 138 -209 345 -280
460 -70 116 -192 316 -271 445 -79 129 -169 278 -201 330 -32 52 -60 99 -62
105 -2 5 -23 39 -46 75 -23 36 -94 151 -157 255 -63 105 -166 273 -228 375
-62 102 -121 199 -130 215 -9 17 -48 79 -85 140 l-68 109 23 41 c12 22 32 56
45 75 12 19 69 112 125 205 57 94 152 251 213 350 103 169 108 180 91 193 -11
8 -93 59 -183 114 -136 83 -165 98 -176 87 -8 -8 -95 -149 -195 -314 -101
-165 -188 -306 -194 -313 -10 -10 -15 -7 -27 15 -11 21 -186 311 -298 494 -9
15 -29 50 -46 78 -16 28 -34 51 -40 50 -5 0 -82 -45 -170 -99z m815 -1787
c350 -576 464 -764 551 -906 44 -70 79 -130 79 -133 0 -2 5 -10 10 -17 6 -7
69 -109 140 -227 71 -118 134 -222 139 -230 39 -62 238 -389 247 -405 6 -11
42 -69 79 -130 66 -106 300 -492 451 -742 41 -67 74 -124 74 -127 0 -3 -403
-5 -895 -4 l-895 0 0 152 c0 83 -1 476 0 874 l0 722 -43 1 c-65 1 -339 1 -369
0 l-27 -1 0 -802 c0 -442 0 -835 -1 -875 l0 -72 -895 1 c-492 0 -895 3 -895 5
0 5 131 223 259 431 29 48 65 107 79 132 14 25 33 56 43 70 14 21 466 763 502
825 7 11 26 42 43 70 18 27 67 109 110 180 106 176 168 277 534 878 173 285
342 562 375 617 33 55 62 100 65 100 3 0 111 -174 240 -387z"/>
</g>
</svg>
