<?xml version="1.0" encoding="UTF-8" standalone="no"?>
<!-- Created with Inkscape (http://www.inkscape.org/) -->

<svg
   width="349.22879mm"
   height="539.80841mm"
   viewBox="0 0 349.22879 539.80841"
   version="1.1"
   id="svg282"
   inkscape:version="1.1.2 (b8e25be833, 2022-02-05)"
   sodipodi:docname="jack.svg"
   xmlns:inkscape="http://www.inkscape.org/namespaces/inkscape"
   xmlns:sodipodi="http://sodipodi.sourceforge.net/DTD/sodipodi-0.dtd"
   xmlns="http://www.w3.org/2000/svg"
   xmlns:svg="http://www.w3.org/2000/svg">
  <sodipodi:namedview
     id="namedview284"
     pagecolor="#ffffff"
     bordercolor="#666666"
     borderopacity="1.0"
     inkscape:pageshadow="2"
     inkscape:pageopacity="0.0"
     inkscape:pagecheckerboard="0"
     inkscape:document-units="mm"
     showgrid="false"
     inkscape:zoom="0.25921545"
     inkscape:cx="1703.2164"
     inkscape:cy="1172.7696"
     inkscape:window-width="1920"
     inkscape:window-height="1009"
     inkscape:window-x="-8"
     inkscape:window-y="-8"
     inkscape:window-maximized="1"
     inkscape:current-layer="layer1" />
  <defs
     id="defs279" />
  <g
     inkscape:label="Layer 1"
     inkscape:groupmode="layer"
     id="layer1"
     transform="translate(289.07771,407.13061)">
    <g
       id="use51"
       transform="matrix(0.26458333,0,0,0.26458333,-286.45307,-401.83894)">
      <g
         transform="matrix(-1,0,0,1,1300,0)"
         id="g1165">
        <path
           fill="#ffcc44"
           d="M 0,2.5 V 1660 l 110,-110 -0.0176,-126.2344 c 105.2964,-87.5284 180.25512,-182.1634 233.80078,-282.25 -1.87244,3.5134 -3.77535,7.0487 -5.74218,10.6348 139.33899,-34.5229 228.76321,-151.939 326.875,-251.21876 98.72414,-99.89944 202.37443,-184.19115 377.6211,-174.98242 7.5259,-8.93432 14.8129,-17.82736 21.8848,-26.5918 -4.2773,-0.38012 -8.5067,-0.68935 -12.711,-0.96484 1.155,0.0596 2.3131,0.12324 3.4668,0.18164 l -0.3808,-234.67383 c -6.4807,-3.03897 -12.9769,-5.81234 -19.7578,-8.46875 l 0.096,242.0918 c 0.6912,0.0365 1.3827,0.0727 2.0742,0.10937 -159.04652,-6.04494 -265.29667,63.25956 -356.08011,148.36328 22.0025,-20.65759 44.85617,-40.36338 69.13671,-58.22656 l -0.13671,-180.62695 c -13.88214,7.38028 -27.81453,14.80168 -41.71094,22.19336 -0.63591,3.92624 -2.0246,7.87731 -3.41797,10.66406 5,10 10.5986,34.35524 -20,20 15,30 -10,25 -20,20 -9.48298,4.74149 -32.45525,9.4826 -22.01367,-15.62305 l 29.81055,-16.08984 C 643.52791,663.86064 614.28822,679.41111 585,695 l -5.03516,-2.80078 0.25782,256.51953 c -29.0777,30.45144 -58.04681,60.05295 -88.41993,86.33005 11.6948,-10.1617 23.15299,-20.849 34.41602,-31.9883 -30.27342,-24.21806 -62.12392,-47.48225 -101.27539,-67.92378 -6.81297,24.55001 -14.31463,48.86718 -22.59766,73.06248 l 67.29297,44.8926 0.1836,0.1602 c -34.98483,27.6022 -72.21204,50.2975 -113.84571,64.6308 95.57841,-192.00036 116.20101,-403.26308 123.26172,-622.41991 -17.42844,-7.74663 -13.26834,-13.82834 -27.00586,-26.03516 0.0407,-0.67002 0.0711,-1.28503 0.11719,-1.98437 C 431.01405,428.20609 390,348.45536 390,325 v -70 c 0,-10 -5,-30 -5,-40 0,-10 10,-80 10,-80 l -10,5 C 363.67384,200.66723 366.17301,265.68862 360.26758,329.61133 359.9995,304.99906 310,301.72929 310,345 c 0,37.91624 49.69554,36.7857 71.48242,5.90625 -8.80937,15.27272 -2.75883,42.10077 1.58594,64.87109 C 380.07311,463.28107 354.79654,460.34685 345,460 338.20482,459.75941 334.49816,456.65062 333.39648,452.39648 337.37151,463.07244 362.41906,459.75943 365,435 c 3.77397,-36.20438 -60,-20 -55,25 1.22558,11.03026 7.25681,19.35695 15.36914,24.95312 0,0 34.63086,25.04688 69.63086,15.04688 5.76859,-1.64817 10.58572,-4.38335 14.62695,-7.61133 15.89909,-2.12114 31.18009,-4.40408 41.85938,-5.875 C 441.16919,824.33445 402.3883,1133.5369 110,1387.1992 l -0.0215,15.7305 -0.11914,-838.23829 c -4.80232,-9.88487 -4.81271,-24.56819 -0.006,-44.07813 v -0.54101 C 97.594808,526.43944 97.524419,513.80707 95,505 c 0,0 -8.695312,11.23242 -18.695312,26.23242 -1.837559,2.75634 -4.227351,4.44998 -6.808594,5.26758 l 1.876953,0.39453 c 6.156783,2.2398 9.931641,5.26253 9.931641,8.58985 0,6.90354 -16.253759,12.5 -36.304688,12.5 -20.050929,0 -36.3046875,-5.59646 -36.3046875,-12.5 0,-6.90356 16.2537585,-12.5 36.3046875,-12.5 3.530285,0 6.943005,0.17254 10.169922,0.49609 l 1.066406,0.22461 C 50.313972,529.0126 47.517822,519.97624 55,510 c 15,-20 16.464466,-26.46447 20,-30 4.147274,-4.14727 18.620432,-4.84204 34.84766,-2.10938 L 109.80273,160 H 140 Z M 284.04688,45.6875 C 216.75241,54.569347 232.09028,147.18229 175,190 268.31147,217.99344 318.08749,154.5639 336.51562,109.39258 Z M 640,125 c 63.11143,116.22484 35,199.88102 35,305 0,39.69413 23.81023,56.97893 46.22656,54.82031 43.93668,-3.50567 110.42396,-43.30706 166.375,-66.15039 C 904.99966,414.02412 920,397.30623 920,370 920,360 914.99963,329.99932 880.72852,334.99219 885.77493,268.89189 906.96718,202.61425 865,125 Z m 249.12695,293.31055 -4.09375,2.03711 0.0801,296.91796 c 6.69158,-2.10802 13.37747,-4.05424 20.03125,-5.89062 l -0.41211,-290.5918 c -5.30675,-0.83013 -10.44116,-1.64665 -15.60547,-2.47265 z M 340,435 c -2.60716,2.93914 -4.40854,5.63515 -5.55273,8.07031 C 335.61784,440.29278 337.4941,437.5059 340,435 Z m -69.89844,67.75391 C 242.49554,502.99919 219.375,516.875 195,525 c -5.60271,-0.61674 -10.98813,-1.69984 -20,5 -1.70363,40.18741 -7.50053,76.00293 -15,110 0.007,9.9803 6.64259,13.34424 20,10 25.06346,17.57603 57.07505,51.19565 86.77344,69.31055 C 271.76094,699.11225 264.28915,672.69669 245,645 c 12.99252,4.35415 31.50795,-2.84738 50,-10 C 284.06204,617.31083 271.3144,604.68484 250.61523,597.46289 273.77033,597.431 289.96651,588.44945 300,575 c -10.78599,-14.05851 -23.41842,-26.33872 -45,-30 18.66832,-6.67589 33.49217,-17.00726 35,-40 -6.919,-1.63334 -13.52782,-2.3027 -19.89844,-2.24609 z M 39.142578,560 A 35.857964,12.5 0 0 1 75,572.5 35.857964,12.5 0 0 1 39.142578,585 35.857964,12.5 0 0 1 3.2832031,572.5 35.857964,12.5 0 0 1 39.142578,560 Z m -1.884766,27.5 A 32.7422,12.5 0 0 1 70,600 32.7422,12.5 0 0 1 37.257812,612.5 32.7422,12.5 0 0 1 4.515625,600 32.7422,12.5 0 0 1 37.257812,587.5 Z M 40,612.5 A 35,12.5 0 0 1 75,625 35,12.5 0 0 1 40,637.5 35,12.5 0 0 1 5,625 35,12.5 0 0 1 40,612.5 Z M 650.32227,721.2207 C 655.39062,721.25 661.25,723.125 665,725 c 10,-5 35,-10 20,20 30,-15 25,10 20,20 5,10 10.5986,34.35524 -20,20 15,30 -10,25 -20,20 -10,5 -35,10 -20,-20 -30,15 -25,-10 -20,-20 -5,-10 -10,-35 20,-20 -9.375,-18.75 -3.125,-23.82812 5.32227,-23.7793 z m 0,125 C 655.39062,846.25 661.25,848.125 665,850 c 3.93291,-1.96646 10.18665,-3.93224 15.41406,-3.76953 l -14.74609,14.5293 c 0.95121,-0.92676 1.91503,-1.83997 2.86914,-2.76368 -4.86759,4.70557 -9.696,9.44761 -14.48828,14.22071 0.1457,-0.14536 0.28977,-0.2922 0.43555,-0.4375 l -33.26172,32.77148 C 621.2821,899.51179 623.14063,893.71874 625,890 c -5,-10 -10,-35 20,-20 -9.375,-18.75 -3.125,-23.82812 5.32227,-23.7793 z"
           id="path1163" />
      </g>
    </g>
    <g
       id="use53"
       transform="matrix(-0.26458333,0,0,-0.26458333,57.526455,127.38611)">
      <g
         transform="matrix(-1,0,0,1,1300,0)"
         id="g1171">
        <path
           fill="#ffcc44"
           d="M 0,2.5 V 1660 l 110,-110 -0.0176,-126.2344 c 105.2964,-87.5284 180.25512,-182.1634 233.80078,-282.25 -1.87244,3.5134 -3.77535,7.0487 -5.74218,10.6348 139.33899,-34.5229 228.76321,-151.939 326.875,-251.21876 98.72414,-99.89944 202.37443,-184.19115 377.6211,-174.98242 7.5259,-8.93432 14.8129,-17.82736 21.8848,-26.5918 -4.2773,-0.38012 -8.5067,-0.68935 -12.711,-0.96484 1.155,0.0596 2.3131,0.12324 3.4668,0.18164 l -0.3808,-234.67383 c -6.4807,-3.03897 -12.9769,-5.81234 -19.7578,-8.46875 l 0.096,242.0918 c 0.6912,0.0365 1.3827,0.0727 2.0742,0.10937 -159.04652,-6.04494 -265.29667,63.25956 -356.08011,148.36328 22.0025,-20.65759 44.85617,-40.36338 69.13671,-58.22656 l -0.13671,-180.62695 c -13.88214,7.38028 -27.81453,14.80168 -41.71094,22.19336 -0.63591,3.92624 -2.0246,7.87731 -3.41797,10.66406 5,10 10.5986,34.35524 -20,20 15,30 -10,25 -20,20 -9.48298,4.74149 -32.45525,9.4826 -22.01367,-15.62305 l 29.81055,-16.08984 C 643.52791,663.86064 614.28822,679.41111 585,695 l -5.03516,-2.80078 0.25782,256.51953 c -29.0777,30.45144 -58.04681,60.05295 -88.41993,86.33005 11.6948,-10.1617 23.15299,-20.849 34.41602,-31.9883 -30.27342,-24.21806 -62.12392,-47.48225 -101.27539,-67.92378 -6.81297,24.55001 -14.31463,48.86718 -22.59766,73.06248 l 67.29297,44.8926 0.1836,0.1602 c -34.98483,27.6022 -72.21204,50.2975 -113.84571,64.6308 95.57841,-192.00036 116.20101,-403.26308 123.26172,-622.41991 -17.42844,-7.74663 -13.26834,-13.82834 -27.00586,-26.03516 0.0407,-0.67002 0.0711,-1.28503 0.11719,-1.98437 C 431.01405,428.20609 390,348.45536 390,325 v -70 c 0,-10 -5,-30 -5,-40 0,-10 10,-80 10,-80 l -10,5 C 363.67384,200.66723 366.17301,265.68862 360.26758,329.61133 359.9995,304.99906 310,301.72929 310,345 c 0,37.91624 49.69554,36.7857 71.48242,5.90625 -8.80937,15.27272 -2.75883,42.10077 1.58594,64.87109 C 380.07311,463.28107 354.79654,460.34685 345,460 338.20482,459.75941 334.49816,456.65062 333.39648,452.39648 337.37151,463.07244 362.41906,459.75943 365,435 c 3.77397,-36.20438 -60,-20 -55,25 1.22558,11.03026 7.25681,19.35695 15.36914,24.95312 0,0 34.63086,25.04688 69.63086,15.04688 5.76859,-1.64817 10.58572,-4.38335 14.62695,-7.61133 15.89909,-2.12114 31.18009,-4.40408 41.85938,-5.875 C 441.16919,824.33445 402.3883,1133.5369 110,1387.1992 l -0.0215,15.7305 -0.11914,-838.23829 c -4.80232,-9.88487 -4.81271,-24.56819 -0.006,-44.07813 v -0.54101 C 97.594808,526.43944 97.524419,513.80707 95,505 c 0,0 -8.695312,11.23242 -18.695312,26.23242 -1.837559,2.75634 -4.227351,4.44998 -6.808594,5.26758 l 1.876953,0.39453 c 6.156783,2.2398 9.931641,5.26253 9.931641,8.58985 0,6.90354 -16.253759,12.5 -36.304688,12.5 -20.050929,0 -36.3046875,-5.59646 -36.3046875,-12.5 0,-6.90356 16.2537585,-12.5 36.3046875,-12.5 3.530285,0 6.943005,0.17254 10.169922,0.49609 l 1.066406,0.22461 C 50.313972,529.0126 47.517822,519.97624 55,510 c 15,-20 16.464466,-26.46447 20,-30 4.147274,-4.14727 18.620432,-4.84204 34.84766,-2.10938 L 109.80273,160 H 140 Z M 284.04688,45.6875 C 216.75241,54.569347 232.09028,147.18229 175,190 268.31147,217.99344 318.08749,154.5639 336.51562,109.39258 Z M 640,125 c 63.11143,116.22484 35,199.88102 35,305 0,39.69413 23.81023,56.97893 46.22656,54.82031 43.93668,-3.50567 110.42396,-43.30706 166.375,-66.15039 C 904.99966,414.02412 920,397.30623 920,370 920,360 914.99963,329.99932 880.72852,334.99219 885.77493,268.89189 906.96718,202.61425 865,125 Z m 249.12695,293.31055 -4.09375,2.03711 0.0801,296.91796 c 6.69158,-2.10802 13.37747,-4.05424 20.03125,-5.89062 l -0.41211,-290.5918 c -5.30675,-0.83013 -10.44116,-1.64665 -15.60547,-2.47265 z M 340,435 c -2.60716,2.93914 -4.40854,5.63515 -5.55273,8.07031 C 335.61784,440.29278 337.4941,437.5059 340,435 Z m -69.89844,67.75391 C 242.49554,502.99919 219.375,516.875 195,525 c -5.60271,-0.61674 -10.98813,-1.69984 -20,5 -1.70363,40.18741 -7.50053,76.00293 -15,110 0.007,9.9803 6.64259,13.34424 20,10 25.06346,17.57603 57.07505,51.19565 86.77344,69.31055 C 271.76094,699.11225 264.28915,672.69669 245,645 c 12.99252,4.35415 31.50795,-2.84738 50,-10 C 284.06204,617.31083 271.3144,604.68484 250.61523,597.46289 273.77033,597.431 289.96651,588.44945 300,575 c -10.78599,-14.05851 -23.41842,-26.33872 -45,-30 18.66832,-6.67589 33.49217,-17.00726 35,-40 -6.919,-1.63334 -13.52782,-2.3027 -19.89844,-2.24609 z M 39.142578,560 A 35.857964,12.5 0 0 1 75,572.5 35.857964,12.5 0 0 1 39.142578,585 35.857964,12.5 0 0 1 3.2832031,572.5 35.857964,12.5 0 0 1 39.142578,560 Z m -1.884766,27.5 A 32.7422,12.5 0 0 1 70,600 32.7422,12.5 0 0 1 37.257812,612.5 32.7422,12.5 0 0 1 4.515625,600 32.7422,12.5 0 0 1 37.257812,587.5 Z M 40,612.5 A 35,12.5 0 0 1 75,625 35,12.5 0 0 1 40,637.5 35,12.5 0 0 1 5,625 35,12.5 0 0 1 40,612.5 Z M 650.32227,721.2207 C 655.39062,721.25 661.25,723.125 665,725 c 10,-5 35,-10 20,20 30,-15 25,10 20,20 5,10 10.5986,34.35524 -20,20 15,30 -10,25 -20,20 -10,5 -35,10 -20,-20 -30,15 -25,-10 -20,-20 -5,-10 -10,-35 20,-20 -9.375,-18.75 -3.125,-23.82812 5.32227,-23.7793 z m 0,125 C 655.39062,846.25 661.25,848.125 665,850 c 3.93291,-1.96646 10.18665,-3.93224 15.41406,-3.76953 l -14.74609,14.5293 c 0.95121,-0.92676 1.91503,-1.83997 2.86914,-2.76368 -4.86759,4.70557 -9.696,9.44761 -14.48828,14.22071 0.1457,-0.14536 0.28977,-0.2922 0.43555,-0.4375 l -33.26172,32.77148 C 621.2821,899.51179 623.14063,893.71874 625,890 c -5,-10 -10,-35 20,-20 -9.375,-18.75 -3.125,-23.82812 5.32227,-23.7793 z"
           id="path1169" />
      </g>
    </g>
    <g
       id="use55"
       transform="matrix(0.26458333,0,0,0.26458333,-286.45307,-401.83894)">
      <g
         transform="matrix(-1,0,0,1,1300,0)"
         id="g1129">
        <path
           fill="#ff0000"
           d="M 246.4707,0 370,150 c 180.66018,-37.46594 351.90847,-15.69998 520,10 L 1023.334,0 Z M 884.78711,420.89844 570,580 478.18555,527.74219 c -0.87498,19.93328 -1.7868,39.64712 -2.6543,58.81054 L 580,645 885.05273,485.21094 885,484.40039 Z m 190.26759,52.94531 0.2656,213.3457 c 33.7593,-38.27768 71.6354,-75.14938 114.6172,-110.73437 l 0.09,-16.51367 c -34.8003,-32.65375 -68.8844,-62.02948 -114.9726,-86.09766 z m -754.40822,25.66992 -31.62304,9.6543 -4.37891,13.88281 38.00195,-11.60156 z m 3.47071,35.11524 -54.02344,3.17773 -10.24414,7.11524 10.87695,4.86914 54.57617,-3.20899 z m 560.86914,0.48632 -114.75781,61.46875 -0.31446,177.20118 c 34.84956,-23.34017 72.83196,-43.00389 115.1875,-56.51368 z m -587.77735,36.51172 c -0.58924,2.67744 -2.4801,10.37691 -3.6621,11.79297 l 31.77929,1.98633 0.008,-12.02148 z m -3.6621,11.79297 -0.63868,-0.0391 c 0.16751,0.37468 0.38802,0.33934 0.63868,0.0391 z m -35.92774,11.4707 c -6.03128,0.0905 10.89564,11.5915 14.5918,14.35157 l 52.04101,6.12304 0.47461,-12.02734 -61.16601,-7.19531 c -2.92134,-0.8939 -4.82451,-1.2687 -5.94141,-1.25196 z m 33.00781,33.07813 c 12.43113,3.65845 -11.97853,11.31421 -6.17773,11.20703 l 36.91601,5.54492 1.46875,-11.91406 z m 181.4336,8.51953 c -5.89503,81.12305 -15.63395,160.53977 -32.64453,237.53711 45.20928,18.34496 84.33816,42.84751 120.35546,70.48438 l 0.0117,-262.83399 z M 160,640 c -16.57981,5.56089 -33.03675,6.41511 -49.68945,2.5 l -0.1543,344.09961 C 198.98443,880.84705 217.43469,789.00343 236.42578,697.01758 216.34331,680.41039 196.64019,661.66912 180,650 c -13.35741,3.34424 -19.99342,-0.0197 -20,-10 z m 524.89453,2.07422 -29.96289,15.21094 C 657.88866,659.01124 661.32909,660 665,660 c 10.34529,0 18.8568,-7.85475 19.89453,-17.92578 z m -437.26367,5.83203 6.86523,13.52148 63.54493,12.09571 0.89648,-12.04297 z m 14.97852,30.3125 3.56054,13.25781 47.11133,10.03321 2.35547,-10.03516 z M 665,745 a 20,20 0 0 0 -20,20 20,20 0 0 0 20,20 20,20 0 0 0 20,-20 20,20 0 0 0 -20,-20 z"
           id="path1127" />
      </g>
    </g>
    <g
       id="use57"
       transform="matrix(-0.26458333,0,0,-0.26458333,57.526455,127.38611)">
      <g
         transform="matrix(-1,0,0,1,1300,0)"
         id="g1135">
        <path
           fill="#ff0000"
           d="M 246.4707,0 370,150 c 180.66018,-37.46594 351.90847,-15.69998 520,10 L 1023.334,0 Z M 884.78711,420.89844 570,580 478.18555,527.74219 c -0.87498,19.93328 -1.7868,39.64712 -2.6543,58.81054 L 580,645 885.05273,485.21094 885,484.40039 Z m 190.26759,52.94531 0.2656,213.3457 c 33.7593,-38.27768 71.6354,-75.14938 114.6172,-110.73437 l 0.09,-16.51367 c -34.8003,-32.65375 -68.8844,-62.02948 -114.9726,-86.09766 z m -754.40822,25.66992 -31.62304,9.6543 -4.37891,13.88281 38.00195,-11.60156 z m 3.47071,35.11524 -54.02344,3.17773 -10.24414,7.11524 10.87695,4.86914 54.57617,-3.20899 z m 560.86914,0.48632 -114.75781,61.46875 -0.31446,177.20118 c 34.84956,-23.34017 72.83196,-43.00389 115.1875,-56.51368 z m -587.77735,36.51172 c -0.58924,2.67744 -2.4801,10.37691 -3.6621,11.79297 l 31.77929,1.98633 0.008,-12.02148 z m -3.6621,11.79297 -0.63868,-0.0391 c 0.16751,0.37468 0.38802,0.33934 0.63868,0.0391 z m -35.92774,11.4707 c -6.03128,0.0905 10.89564,11.5915 14.5918,14.35157 l 52.04101,6.12304 0.47461,-12.02734 -61.16601,-7.19531 c -2.92134,-0.8939 -4.82451,-1.2687 -5.94141,-1.25196 z m 33.00781,33.07813 c 12.43113,3.65845 -11.97853,11.31421 -6.17773,11.20703 l 36.91601,5.54492 1.46875,-11.91406 z m 181.4336,8.51953 c -5.89503,81.12305 -15.63395,160.53977 -32.64453,237.53711 45.20928,18.34496 84.33816,42.84751 120.35546,70.48438 l 0.0117,-262.83399 z M 160,640 c -16.57981,5.56089 -33.03675,6.41511 -49.68945,2.5 l -0.1543,344.09961 C 198.98443,880.84705 217.43469,789.00343 236.42578,697.01758 216.34331,680.41039 196.64019,661.66912 180,650 c -13.35741,3.34424 -19.99342,-0.0197 -20,-10 z m 524.89453,2.07422 -29.96289,15.21094 C 657.88866,659.01124 661.32909,660 665,660 c 10.34529,0 18.8568,-7.85475 19.89453,-17.92578 z m -437.26367,5.83203 6.86523,13.52148 63.54493,12.09571 0.89648,-12.04297 z m 14.97852,30.3125 3.56054,13.25781 47.11133,10.03321 2.35547,-10.03516 z M 665,745 a 20,20 0 0 0 -20,20 20,20 0 0 0 20,20 20,20 0 0 0 20,-20 20,20 0 0 0 -20,-20 z"
           id="path1133" />
      </g>
    </g>
    <g
       id="use59"
       transform="matrix(0.26458333,0,0,0.26458333,-286.45307,-401.83894)">
      <g
         transform="matrix(-1,0,0,1,1300,0)"
         id="g1105">
        <path
           fill="#4444ff"
           d="m 599.7537,695 h 130.33661 l -0.20525,15 H 600.1642 Z m 0,130 h 103.85878 l -15.18883,15 h -87.84894 z m 305.34005,-350.89648 -0.0996,41.3164 8.05469,12.08008 -8.11133,12.16797 -0.0996,41.61133 L 940.69143,527.5 Z M 1034.6152,469.53906 995.97461,527.5 1035,586.03711 1034.8633,544.36914 1023.6172,527.5 1034.752,510.79883 Z m -107.16208,-44.82226 40.88086,61.32031 29.14063,-43.71094 -23.67383,-5.95312 -5.4668,8.20117 -7.66796,-11.50586 z M 968.33398,568.96289 929.30859,627.5 968.33398,686.03711 987.8457,656.76953 1007.3574,627.5 987.8457,598.23047 Z m 0,41.46289 0.375,0.5625 11.00586,16.51172 -11.00586,16.51172 -0.375,0.5625 L 956.95117,627.5 Z M 904.98635,711.4172 c 6.91659,-1.74396 13.964,-3.41317 21.50811,-4.78132 l -21.21951,-31.5941 z M 1016.2816,697.26637 1035,668.94344 l 0.1359,28.57203 c -6.24,-0.10629 -12.5308,-0.20979 -18.8543,-0.2491 z M 355.9419,1117.8199 c 17.99562,-36.0367 33.17807,-72.46 46.35529,-109.4844 l 67.41258,44.8676 c -34.97038,27.7741 -72.26449,50.5256 -113.76787,64.6168 z M 998.83468,782.28873 c -12.06417,0.25657 -24.52125,0.61716 -35.74904,2.09018 l -6.26367,0.82226 5.17578,36.4043 5.92578,-0.54883 c 2.1201,-0.19614 4.24666,-0.3849 6.38191,-0.56367 l 7.83707,-13.06445 c -3.16259,0.24001 -6.29471,0.50536 -9.42406,0.7707 l -1.71094,-12.02344 c 6.35269,-0.7028 12.81802,-1.26083 19.41772,-1.62035 l 25.79157,-38.15309 -6.2441,0.0312 c -35.36863,0.17264 -67.44587,4.46442 -97.20122,11.93555 l -6.44336,1.61719 15.00391,47.36133 c -22.24758,6.06319 -42.87287,14.28317 -62.32617,24.42187 l -6.48438,-10.0625 c 10.00678,-5.25532 20.19604,-10.12924 30.73438,-14.18359 l 6.45312,-2.48242 -16.91992,-33.45704 -5.3457,2.19727 c -29.99209,12.32719 -57.41716,28.35296 -83.21484,47.12695 L 779,834.71289 l 30.2832,38.76953 c -19.2606,14.38455 -37.96718,30.70975 -56.78515,48.67578 l -8.58594,-9.09179 c 9.24789,-8.7326 18.51452,-17.19956 27.77539,-25.19141 l 4.78906,-4.13281 -24.51172,-27.72071 -4.66601,3.9336 c -23.76559,20.02654 -46.62708,42.18706 -69.65235,65.48047 l -6.05273,5.27539 36.04102,35.89453 c -19.62693,19.92804 -39.40806,41.35613 -60.19336,63.21483 l -9.13868,-8.6621 c 5.40661,-5.5795 10.74172,-11.1552 15.85743,-16.6309 l 4.26757,-4.56636 -9.13476,-8.53321 -4.26563,4.56641 c -6.53574,6.99566 -13.08629,13.99886 -20.01172,20.99026 l -4.49609,4.539 27.38672,25.959 4.30078,-4.4961 c 24.07955,-25.1804 46.47821,-49.85322 68.61524,-72.06442 l 4.41211,-4.42774 -35.5293,-35.38672 c 20.30447,-20.45699 40.43981,-39.89063 61.05078,-57.58594 l 8.03516,9.0879 c -9.37284,8.2213 -18.73603,16.74537 -28.05664,25.66406 l -4.48633,4.29297 25.79297,27.3164 4.54687,-4.39843 c 21.80223,-21.0861 43.15933,-39.84738 65.18359,-55.79883 l 5.25,-3.80274 -30.10546,-38.54101 c 21.99797,-15.5396 45.13568,-28.91458 70.02148,-39.63086 l 5.49414,10.86523 c -10.95347,4.53586 -21.62996,9.5848 -31.91602,15.23828 l -5.875,3.22852 20.05079,31.10351 5.0957,-2.77148 c 21.95486,-11.93971 45.26925,-21.29781 70.96094,-27.71875 l 6.45117,-1.61133 -14.88086,-46.97851 c 25.17619,-5.85285 52.10391,-9.35007 81.47264,-9.91993 l 0.029,5.0273 M -10,1670 110,1550 M 340,490 c 3.25906,72.68904 0.13311,146.0021 -10,220 l -63.00274,-16.79619 c 1.77105,9.44846 1.71657,18.24801 -0.2239,26.10648 -10.16769,-6.20191 -20.60651,-14.22115 -30.63269,-22.52889 -18.70624,92.22169 -37.15583,184.06598 -125.98401,289.52827 l 0.005,225.47363 C 248.84068,1085.0983 364.64003,805.80799 350.93633,497.82079 M 428.25836,260 a 10,20.000004 0 0 1 -10,20 10,20.000004 0 0 1 -10,-20 10,20.000004 0 0 1 10,-20.00001 10,20.000004 0 0 1 10,20.00001 z m 140.87082,2.03193 a 10,19.999998 0 0 1 -10,19.99999 10,19.999998 0 0 1 -10,-19.99999 10,19.999998 0 0 1 10,-20.00001 10,19.999998 0 0 1 10,20.00001 z"
           id="path1103" />
      </g>
    </g>
    <g
       id="use61"
       transform="matrix(-0.26458333,0,0,-0.26458333,57.526455,127.38611)">
      <g
         transform="matrix(-1,0,0,1,1300,0)"
         id="g1111">
        <path
           fill="#4444ff"
           d="m 599.7537,695 h 130.33661 l -0.20525,15 H 600.1642 Z m 0,130 h 103.85878 l -15.18883,15 h -87.84894 z m 305.34005,-350.89648 -0.0996,41.3164 8.05469,12.08008 -8.11133,12.16797 -0.0996,41.61133 L 940.69143,527.5 Z M 1034.6152,469.53906 995.97461,527.5 1035,586.03711 1034.8633,544.36914 1023.6172,527.5 1034.752,510.79883 Z m -107.16208,-44.82226 40.88086,61.32031 29.14063,-43.71094 -23.67383,-5.95312 -5.4668,8.20117 -7.66796,-11.50586 z M 968.33398,568.96289 929.30859,627.5 968.33398,686.03711 987.8457,656.76953 1007.3574,627.5 987.8457,598.23047 Z m 0,41.46289 0.375,0.5625 11.00586,16.51172 -11.00586,16.51172 -0.375,0.5625 L 956.95117,627.5 Z M 904.98635,711.4172 c 6.91659,-1.74396 13.964,-3.41317 21.50811,-4.78132 l -21.21951,-31.5941 z M 1016.2816,697.26637 1035,668.94344 l 0.1359,28.57203 c -6.24,-0.10629 -12.5308,-0.20979 -18.8543,-0.2491 z M 355.9419,1117.8199 c 17.99562,-36.0367 33.17807,-72.46 46.35529,-109.4844 l 67.41258,44.8676 c -34.97038,27.7741 -72.26449,50.5256 -113.76787,64.6168 z M 998.83468,782.28873 c -12.06417,0.25657 -24.52125,0.61716 -35.74904,2.09018 l -6.26367,0.82226 5.17578,36.4043 5.92578,-0.54883 c 2.1201,-0.19614 4.24666,-0.3849 6.38191,-0.56367 l 7.83707,-13.06445 c -3.16259,0.24001 -6.29471,0.50536 -9.42406,0.7707 l -1.71094,-12.02344 c 6.35269,-0.7028 12.81802,-1.26083 19.41772,-1.62035 l 25.79157,-38.15309 -6.2441,0.0312 c -35.36863,0.17264 -67.44587,4.46442 -97.20122,11.93555 l -6.44336,1.61719 15.00391,47.36133 c -22.24758,6.06319 -42.87287,14.28317 -62.32617,24.42187 l -6.48438,-10.0625 c 10.00678,-5.25532 20.19604,-10.12924 30.73438,-14.18359 l 6.45312,-2.48242 -16.91992,-33.45704 -5.3457,2.19727 c -29.99209,12.32719 -57.41716,28.35296 -83.21484,47.12695 L 779,834.71289 l 30.2832,38.76953 c -19.2606,14.38455 -37.96718,30.70975 -56.78515,48.67578 l -8.58594,-9.09179 c 9.24789,-8.7326 18.51452,-17.19956 27.77539,-25.19141 l 4.78906,-4.13281 -24.51172,-27.72071 -4.66601,3.9336 c -23.76559,20.02654 -46.62708,42.18706 -69.65235,65.48047 l -6.05273,5.27539 36.04102,35.89453 c -19.62693,19.92804 -39.40806,41.35613 -60.19336,63.21483 l -9.13868,-8.6621 c 5.40661,-5.5795 10.74172,-11.1552 15.85743,-16.6309 l 4.26757,-4.56636 -9.13476,-8.53321 -4.26563,4.56641 c -6.53574,6.99566 -13.08629,13.99886 -20.01172,20.99026 l -4.49609,4.539 27.38672,25.959 4.30078,-4.4961 c 24.07955,-25.1804 46.47821,-49.85322 68.61524,-72.06442 l 4.41211,-4.42774 -35.5293,-35.38672 c 20.30447,-20.45699 40.43981,-39.89063 61.05078,-57.58594 l 8.03516,9.0879 c -9.37284,8.2213 -18.73603,16.74537 -28.05664,25.66406 l -4.48633,4.29297 25.79297,27.3164 4.54687,-4.39843 c 21.80223,-21.0861 43.15933,-39.84738 65.18359,-55.79883 l 5.25,-3.80274 -30.10546,-38.54101 c 21.99797,-15.5396 45.13568,-28.91458 70.02148,-39.63086 l 5.49414,10.86523 c -10.95347,4.53586 -21.62996,9.5848 -31.91602,15.23828 l -5.875,3.22852 20.05079,31.10351 5.0957,-2.77148 c 21.95486,-11.93971 45.26925,-21.29781 70.96094,-27.71875 l 6.45117,-1.61133 -14.88086,-46.97851 c 25.17619,-5.85285 52.10391,-9.35007 81.47264,-9.91993 l 0.029,5.0273 M -10,1670 110,1550 M 340,490 c 3.25906,72.68904 0.13311,146.0021 -10,220 l -63.00274,-16.79619 c 1.77105,9.44846 1.71657,18.24801 -0.2239,26.10648 -10.16769,-6.20191 -20.60651,-14.22115 -30.63269,-22.52889 -18.70624,92.22169 -37.15583,184.06598 -125.98401,289.52827 l 0.005,225.47363 C 248.84068,1085.0983 364.64003,805.80799 350.93633,497.82079 M 428.25836,260 a 10,20.000004 0 0 1 -10,20 10,20.000004 0 0 1 -10,-20 10,20.000004 0 0 1 10,-20.00001 10,20.000004 0 0 1 10,20.00001 z m 140.87082,2.03193 a 10,19.999998 0 0 1 -10,19.99999 10,19.999998 0 0 1 -10,-19.99999 10,19.999998 0 0 1 10,-20.00001 10,19.999998 0 0 1 10,20.00001 z"
           id="path1109" />
      </g>
    </g>
    <g
       id="use63"
       transform="matrix(0.26458333,0,0,0.26458333,-286.45307,-401.83894)">
      <g
         transform="matrix(-1,0,0,1,1300,0)"
         id="g1117">
        <path
           fill="#000000"
           d="M 585,695 472.14443,635.81958 c 0.73077,-9.5527 1.33279,-18.45406 1.72118,-27.60205 L 580,670 885.03858,509.67592 l -0.0523,25.05152 z M 439.54873,873.40987 c -2.19924,11.53009 -4.9112,23.27526 -7.84126,34.76855 43.84962,19.86699 81.1199,46.09755 116.90566,73.45524 10.3735,-10.76119 21.01313,-21.80733 31.52731,-32.62432 l -0.11728,-256.77923 -20.25826,-10.24927 0.006,262.52911 C 523.75361,916.87308 484.62457,892.3709 439.54873,873.40987 Z m 310.71658,-85.64086 -0.60419,-180.37719 20.09114,-10.55376 0.41163,176.77924 c -6.54418,4.53135 -13.13987,9.18167 -19.89858,14.15171 z M 1075.1849,473.91345 c -6.3099,-3.43345 -13.0426,-6.74365 -20.1168,-9.88956 l -0.1888,234.52524 c 2.9316,0.35718 6.0031,0.60513 9.3709,1.00883 3.6815,-3.87723 7.134,-7.87093 10.6926,-11.94173 z M 330,710 c 10.13311,-73.9979 13.25906,-147.31096 10,-220 l -18.94885,7.81707 c 0.59197,4.48767 1.1228,9.05791 1.59656,13.63115 6.12531,64.64656 0.077,137.83984 -10.63284,193.86894 z M 110.42693,966 h 16.21511 l 9.0312,-12 h -25.04106 z m -0.20525,-30 h 38.58784 L 155,924 h -45.59934 z m 0.0823,-60 h 72.57776 l 4.92611,-12 h -78.08441 z m 0.12292,30 h 56.65025 l 6.15763,-12 h -63.01313 z m -0.12292,-60 h 85.71405 l 4.5156,-12 h -90.22965 z m 0.58055,-30 H 195 c 3.3469,0.0473 6.08545,-2.65277 6.08545,-6 0,-3.34723 -2.73855,-6.04733 -6.08545,-6 h -84.69599 z m -0.87082,-33 H 175 c 4.05697,0.0574 4.05697,-6.05738 0,-6 h -64.98626 z m 0,-30 H 155 c 4.05697,0.0574 4.05697,-6.05738 0,-6 h -45.56681 z m 145.61712,-40.06445 -1.30078,6.19726 C 236.5705,803.7934 214.14093,893.82659 133.33984,993.46875 L 132,995.12109 v 163.47271 l 10.68164,-13.3204 c 76.40793,-95.2923 141.94512,-241.84502 171.15234,-411.16207 l 0.9336,-5.4043 z m 9.09375,14.8457 L 301,737.45508 C 273.07538,894.6282 213.40861,1031.523 144,1123.8691 V 999.30859 c 79.26178,-98.44897 103.14432,-188.6954 120.72461,-271.52734 z m 489.6109,-174.91943 -25.05453,-53.68829 -59.84877,30.32406 25.74671,55.17151 M 712.5,530 c 6.90356,0 12.5,5.59644 12.5,12.5 0,6.90356 -5.59644,12.5 -12.5,12.5 -6.90356,0 -12.5,-5.59644 -12.5,-12.5 0,-6.90356 5.59644,-12.5 12.5,-12.5 z m 57.56827,-51.63942 25.15941,53.91302 59.38732,-31.31288 -24.42528,-52.3399 z M 812.5,477.5 c 6.90356,0 12.5,5.59644 12.5,12.5 0,6.90356 -5.59644,12.5 -12.5,12.5 -6.90356,0 -12.5,-5.59644 -12.5,-12.5 0,-6.90356 5.59644,-12.5 12.5,-12.5 z m -231.77542,97.26695 26.02987,55.77829 59.72292,-30.59374 -26.01414,-55.74458 z M 622.5,572.5 c 6.90356,0 12.5,5.59644 12.5,12.5 0,6.90356 -5.59644,12.5 -12.5,12.5 -6.90356,0 -12.5,-5.59644 -12.5,-12.5 0,-6.90356 5.59644,-12.5 12.5,-12.5 z m -111.57157,-25.99631 -25.94241,45.22764 58.42488,32.91678 25.90464,-45.16179 z m 26.79283,31.30077 c 3.97399,5.64505 2.61933,13.44281 -3.02572,17.4168 -5.64505,3.97399 -13.44281,2.61933 -17.4168,-3.02572 -3.97399,-5.64505 -2.61933,-13.44281 3.02572,-17.4168 5.64505,-3.97399 13.44281,-2.61933 17.4168,3.02572 z M 906.79345,139.29992 893.47656,137.26367 C 788.17613,121.164 680.5467,106.36195 569.41211,106.90234 c -66.68075,0.32424 -134.62296,6.17151 -204.08203,20.57618 l -12.11857,2.4047 L 370,150 c 180.66018,-37.46594 351.90847,-15.69998 520,10 L 906.9372,139.67536 1040,-20"
           id="path1115" />
      </g>
    </g>
    <g
       id="use65"
       transform="matrix(-0.26458333,0,0,-0.26458333,57.526455,127.38611)">
      <g
         transform="matrix(-1,0,0,1,1300,0)"
         id="g1123">
        <path
           fill="#000000"
           d="M 585,695 472.14443,635.81958 c 0.73077,-9.5527 1.33279,-18.45406 1.72118,-27.60205 L 580,670 885.03858,509.67592 l -0.0523,25.05152 z M 439.54873,873.40987 c -2.19924,11.53009 -4.9112,23.27526 -7.84126,34.76855 43.84962,19.86699 81.1199,46.09755 116.90566,73.45524 10.3735,-10.76119 21.01313,-21.80733 31.52731,-32.62432 l -0.11728,-256.77923 -20.25826,-10.24927 0.006,262.52911 C 523.75361,916.87308 484.62457,892.3709 439.54873,873.40987 Z m 310.71658,-85.64086 -0.60419,-180.37719 20.09114,-10.55376 0.41163,176.77924 c -6.54418,4.53135 -13.13987,9.18167 -19.89858,14.15171 z M 1075.1849,473.91345 c -6.3099,-3.43345 -13.0426,-6.74365 -20.1168,-9.88956 l -0.1888,234.52524 c 2.9316,0.35718 6.0031,0.60513 9.3709,1.00883 3.6815,-3.87723 7.134,-7.87093 10.6926,-11.94173 z M 330,710 c 10.13311,-73.9979 13.25906,-147.31096 10,-220 l -18.94885,7.81707 c 0.59197,4.48767 1.1228,9.05791 1.59656,13.63115 6.12531,64.64656 0.077,137.83984 -10.63284,193.86894 z M 110.42693,966 h 16.21511 l 9.0312,-12 h -25.04106 z m -0.20525,-30 h 38.58784 L 155,924 h -45.59934 z m 0.0823,-60 h 72.57776 l 4.92611,-12 h -78.08441 z m 0.12292,30 h 56.65025 l 6.15763,-12 h -63.01313 z m -0.12292,-60 h 85.71405 l 4.5156,-12 h -90.22965 z m 0.58055,-30 H 195 c 3.3469,0.0473 6.08545,-2.65277 6.08545,-6 0,-3.34723 -2.73855,-6.04733 -6.08545,-6 h -84.69599 z m -0.87082,-33 H 175 c 4.05697,0.0574 4.05697,-6.05738 0,-6 h -64.98626 z m 0,-30 H 155 c 4.05697,0.0574 4.05697,-6.05738 0,-6 h -45.56681 z m 145.61712,-40.06445 -1.30078,6.19726 C 236.5705,803.7934 214.14093,893.82659 133.33984,993.46875 L 132,995.12109 v 163.47271 l 10.68164,-13.3204 c 76.40793,-95.2923 141.94512,-241.84502 171.15234,-411.16207 l 0.9336,-5.4043 z m 9.09375,14.8457 L 301,737.45508 C 273.07538,894.6282 213.40861,1031.523 144,1123.8691 V 999.30859 c 79.26178,-98.44897 103.14432,-188.6954 120.72461,-271.52734 z m 489.6109,-174.91943 -25.05453,-53.68829 -59.84877,30.32406 25.74671,55.17151 M 712.5,530 c 6.90356,0 12.5,5.59644 12.5,12.5 0,6.90356 -5.59644,12.5 -12.5,12.5 -6.90356,0 -12.5,-5.59644 -12.5,-12.5 0,-6.90356 5.59644,-12.5 12.5,-12.5 z m 57.56827,-51.63942 25.15941,53.91302 59.38732,-31.31288 -24.42528,-52.3399 z M 812.5,477.5 c 6.90356,0 12.5,5.59644 12.5,12.5 0,6.90356 -5.59644,12.5 -12.5,12.5 -6.90356,0 -12.5,-5.59644 -12.5,-12.5 0,-6.90356 5.59644,-12.5 12.5,-12.5 z m -231.77542,97.26695 26.02987,55.77829 59.72292,-30.59374 -26.01414,-55.74458 z M 622.5,572.5 c 6.90356,0 12.5,5.59644 12.5,12.5 0,6.90356 -5.59644,12.5 -12.5,12.5 -6.90356,0 -12.5,-5.59644 -12.5,-12.5 0,-6.90356 5.59644,-12.5 12.5,-12.5 z m -111.57157,-25.99631 -25.94241,45.22764 58.42488,32.91678 25.90464,-45.16179 z m 26.79283,31.30077 c 3.97399,5.64505 2.61933,13.44281 -3.02572,17.4168 -5.64505,3.97399 -13.44281,2.61933 -17.4168,-3.02572 -3.97399,-5.64505 -2.61933,-13.44281 3.02572,-17.4168 5.64505,-3.97399 13.44281,-2.61933 17.4168,3.02572 z M 906.79345,139.29992 893.47656,137.26367 C 788.17613,121.164 680.5467,106.36195 569.41211,106.90234 c -66.68075,0.32424 -134.62296,6.17151 -204.08203,20.57618 l -12.11857,2.4047 L 370,150 c 180.66018,-37.46594 351.90847,-15.69998 520,10 L 906.9372,139.67536 1040,-20"
           id="path1121" />
      </g>
    </g>
    <g
       id="use67"
       transform="matrix(0.26458333,0,0,0.26458333,-286.45307,-401.83894)">
      <g
         transform="matrix(-1,0,0,1,1300,0)"
         id="g1177">
        <path
           stroke="#4444ff"
           stroke-linecap="round"
           stroke-linejoin="round"
           stroke-width="6"
           fill="none"
           d="m 921.5584,121.32505 -25.06035,-3.83091 C 790.98611,101.36213 682.19484,86.319179 569.24805,86.884766 501.47997,87.224118 432.21491,93.183179 361.26758,107.89648 l -22.18361,4.59993 M 425,415 c 5,25 5,75 -30,85 -35,10 -70,-15 -70,-15 M 110,478.44827 V 160 M 7.4505806e-8,1660 110,1550 V 565.47619 m -0.048,858.31511 C 424.07906,1162.6897 468.2177,839.16669 479.23801,495.46355 M 355.72662,1118.1009 C 598.77762,1034.369 691.65151,666.22954 1063.9731,699.42986 M 337.79794,1152.6587 C 477.38073,1117.6271 566.80423,1000.2114 664.91602,900.93164 763.64016,801.0322 867.29093,716.74099 1042.0702,725.9351 M 452.01172,469.22266 C 442.44035,813.79185 407.37593,1129.2105 110,1387.1999 m 965,-913.26723 v 213.5947 M 1055,464.08046 V 698.41264 M 1035,455.45977 V 697.39668 M 905,420.77175 V 711.32982 M 885,417.69294 v 299.58749 m 3.35147,-299.03789 C 1053.687,443.04334 1120.384,493.99629 1190.053,560.56336 M 411.10947,985.25328 c 28.18823,14.12981 52.95191,32.58732 77.58649,51.20782 M 425.07502,935.13431 c 39.01902,20.44444 70.87078,43.70883 100.95715,67.66779 M 431.6644,907.97662 c 43.89269,20.06879 81.16297,46.29935 117.27493,73.60764 M 439.19952,873.67289 c 45.42505,18.69801 84.55409,43.20019 120.34225,70.78225 M 475.75681,586.07993 580,645 885.05185,485.21094 M 473.69317,607.98768 580,670 885.07716,510.19768 M 472.06117,636.48852 585,695 884.97261,535.33716 M 560,682.15731 V 944.56475 M 580,692.02662 V 949.35427 M 600,686.94683 V 927.4386 M 730,617.81609 v 185.67564 m 20,-196.24625 v 180.7166 m 20,-191.08195 v 176.7134 M 478.28528,527.59159 570,580 889.1957,418.27418 M 685,765 a 20,20 0 0 0 -20,-20 20,20 0 0 0 -20,20 20,20 0 0 0 20,20 20,20 0 0 0 20,-20 v 0 m -40,-20 c -15,-30 10,-25 20,-20 10,-5 35,-10 20,20 30,-15 25,10 20,20 5,10 10.5986,34.35524 -20,20 15,30 -10,25 -20,20 -10,5 -35,10 -20,-20 -30,15 -25,-10 -20,-20 -5,-10 -10,-35 20,-20 v 0 M 621.22182,904.55082 C 621.28126,899.51183 623.14063,893.71874 625,890 c -5,-10 -10,-35 20,-20 -15,-30 10,-25 20,-20 3.93291,-1.96646 10.186,-3.93291 15.41341,-3.7702 M 654.93215,657.28493 C 657.88917,659.01101 661.32909,660 665,660 c 10.34529,0 18.85601,-7.85473 19.89374,-17.92576 m 23.5765,-13.04193 C 707.85847,633.05744 706.42923,637.14153 705,640 c 5,10 10.5986,34.35524 -20,20 15,30 -10,25 -20,20 -9.48298,4.74149 -32.455,9.48298 -22.01342,-15.62267 m -240.49321,343.95157 67.14457,44.7631 m 435.72491,-620.04772 129.76455,194.6469 m 0.2333,-0.73227 -47.64218,71.46328 m -81.89935,-64.69343 45.6819,68.52284 M 1019.9947,450.00801 C 981.78128,507.32809 942.8382,565.7427 905.98244,621.02634 m -0.43254,53.76227 21.31847,31.97717 M 1016.1664,697.21275 1035,668.96289 M 438.92527,1000.6752 451.5312,976.94988 c 12.10544,-20.21602 39.57139,-3.42402 28.54654,17.13075 l -14.46068,24.47757 m 14.46068,-24.47757 c 12.10544,-20.21603 37.36544,-2.35665 26.34059,18.19817 l -12.10737,20.4941 m -83.20149,-47.51962 14.08112,-26.50172 c 12.10545,-20.21602 37.36546,-2.35644 26.34061,18.19832 M 70,487.06896 V 200 H 1.1920929e-6 M 70,566.09195 v -11.90476 m 0,64.24466 V 578.40722 M -1.4901161e-7,1600 70,1530 V 631.36289 M 2.9802322e-7,160 H 140 L 0,2.5 M 0,130 H 80 L -1.1920929e-6,49.999999 M 315,895 a 7.5,7.5 0 0 1 -7.5,7.5 7.5,7.5 0 0 1 -7.5,-7.5 7.5,7.5 0 0 1 7.5,-7.5 7.5,7.5 0 0 1 7.5,7.5 v 0 m 0,0 c 30,-40 80,5 90,-10 m -90,15 c 9.92015,49.00602 72.40887,27.15943 75,45 M 317.96713,896.20352 C 350.85395,878.30444 400,925 405,885 m -15,60 C 395,915 323.66951,924.63575 317.58247,898.75815 342.27133,923.29003 385,930 395,920 m 0,0 c 4.03107,-20.98038 -63.40093,-33.21694 -80,-20 m 17.44813,-74.87412 a 7.4603248,7.5 0 0 1 -7.02189,7.91627 7.4603248,7.5 0 0 1 -7.87438,-7.05923 7.4603248,7.5 0 0 1 7.02189,-7.91627 7.4603248,7.5 0 0 1 7.87438,7.05923 v 0 m 0,0 C 359.96735,783.47715 412.17911,825.54685 421.25746,810 m -88.52516,20.11771 c 12.63674,48.35917 73.45173,22.97793 77.03889,40.64131 M 335.46315,826.15791 C 367.10529,806.40905 418.56537,850.22034 421.25746,810 m -11.48627,60.75902 c 3.26042,-30.23667 -67.02919,-16.54114 -74.54485,-42.02868 25.91237,23.08119 68.72693,27.33886 78.08943,16.78384 m 0,0 c 2.81082,-21.17642 -64.85034,-29.54022 -80.58347,-15.39647 m 14.36917,-81.81294 a 7.124427,7.5 0 0 1 -6.53004,8.0774 7.124427,7.5 0 0 1 -7.6729,-6.87428 7.124427,7.5 0 0 1 6.53004,-8.0774 7.124427,7.5 0 0 1 7.6729,6.87428 v 0 m 0,0 c 25.35824,-42.27737 76.13001,-1.43275 84.45577,-17.1865 m -84.07481,22.17039 c 13.12686,48.05245 70.6306,21.26415 74.44335,38.83942 m -71.92315,-42.86165 c 29.77557,-20.47921 79.86795,22.12401 81.55461,-18.14816 m -9.63146,61.00981 c 2.44857,-30.30439 -64.35748,-14.9784 -72.09273,-40.2844 25.2461,22.4726 66.21555,25.73376 74.92225,14.9639 m 0,0 c 2.21835,-21.2361 -62.56284,-28.02466 -77.27287,-13.51892 m 11.12782,-73.52915 a 6.8523829,7.5 0 0 1 -5.62361,8.638 6.8523829,7.5 0 0 1 -7.89211,-6.15508 6.8523829,7.5 0 0 1 5.6236,-8.638 6.8523829,7.5 0 0 1 7.89212,6.15508 v 0 m 0,0 C 379.59229,635.34548 431.45022,671.44835 438.19217,655 m -78.82576,29.69054 c 16.34992,46.68793 69.35127,14.79911 74.3841,31.96468 M 361.46578,680.45529 C 388.39141,657.35945 439.73629,695.27585 438.19217,655 m -4.44166,61.65522 c -0.0318,-30.41379 -62.84669,-9.10381 -72.24499,-33.61686 25.95591,20.10679 65.47125,19.65141 72.96937,8.13409 m 0,0 c 0.45923,-21.3582 -62.15078,-22.26413 -75.10848,-6.48191 m 7.30208,-82.27924 a 6.7617659,7.5 0 0 1 -5.54924,8.638 6.7617659,7.5 0 0 1 -7.78774,-6.15508 6.7617659,7.5 0 0 1 5.54924,-8.638 6.7617659,7.5 0 0 1 7.78774,6.15508 v 0 m 0,0 c 20.70458,-44.41403 71.87673,-8.31116 78.52952,-24.75951 m -77.78335,29.69054 c 16.1337,46.68793 68.43415,14.79911 73.40043,31.96468 m -71.32883,-36.19993 c 26.56957,-23.09584 77.23545,14.82056 75.71175,-25.45529 m -4.38292,61.65522 c -0.0314,-30.41379 -62.0156,-9.10381 -71.28961,-33.61686 25.61266,20.10679 64.60545,19.65141 72.00441,8.13409 m 0,0 c 0.45316,-21.3582 -61.32889,-22.26413 -74.11523,-6.48191 m -0.61688,-70.64892 a 6.9239796,7.5 0 0 1 -5.48179,8.78876 6.9239796,7.5 0 0 1 -8.11376,-5.93781 6.9239796,7.5 0 0 1 5.48179,-8.78877 6.9239796,7.5 0 0 1 8.11376,5.93782 v 0 m 0,0 c 20.17245,-44.97276 73.38686,-10.29616 79.81857,-26.92336 m -78.94125,31.83222 c 17.59017,46.22728 70.39471,12.90213 75.87363,29.92503 m -73.85047,-34.21625 c 26.66694,-23.82338 79.40485,12.6802 76.91809,-27.541 m -3.06762,61.75725 c -0.73212,-30.40347 -63.69314,-7.38609 -73.75087,-31.63507 26.68173,19.39229 66.58705,17.8588 73.89608,6.14046 m 0,0 c -0.0277,-21.36409 -63.29307,-20.56131 -76.01884,-4.43042 m -75.00298,422.41038 a 7.7297737,8.033013 0 0 1 -8.61448,6.99376 7.7297737,8.033013 0 0 1 -6.72975,-8.95243 7.7297737,8.033013 0 0 1 8.61448,-6.99376 7.7297737,8.033013 0 0 1 6.72975,8.95243 v 0 m 0,0 c 35.71441,-38.60581 81.20764,15.76164 93.32187,1.12124 m -93.95011,4.19416 c 3.99024,53.39265 70.658,38.32765 71.06695,57.63175 m -67.55471,-61.28027 c 35.89054,-14.73384 80.29717,41.32467 90.43787,-0.54564 m -22.88316,61.82591 c 8.8842,-31.23932 -65.29395,-30.30996 -68.26919,-58.61472 22.17303,29.30315 65.03917,42.01582 76.52515,32.69082 m 0,0 c 6.75974,-21.77746 -60.68222,-43.59103 -79.32291,-31.70785 m -29.43745,64.73485 a 7.6725262,8.0129647 0 0 1 -8.61142,6.8943 7.6725262,8.0129647 0 0 1 -6.60143,-8.9936 7.6725262,8.0129647 0 0 1 8.61145,-6.8943 7.6725262,8.0129647 0 0 1 6.6014,8.9936 v 0 m 0,0 c 35.78576,-38.16922 80.46511,16.4917 92.61704,2.0034 m -93.28704,3.2925 c 3.49397,53.295 69.79686,38.9005 70.03409,58.1595 m -66.51614,-61.7654 c 35.75198,-14.3562 79.33807,41.9811 89.76909,0.3134 m -23.25295,61.452 c 9.09099,-31.0759 -64.54282,-30.8523 -67.24858,-59.1134 21.75184,29.439 64.18765,42.526 75.66957,33.3334 m 0,0 c 6.89968,-21.658 -59.84939,-44.0558 -78.45508,-32.3795 m -36.44524,62.8871 a 7.898364,8.1522458 0 0 1 -9.76855,5.5913 7.898364,8.1522458 0 0 1 -5.417,-10.0827 7.898364,8.1522458 0 0 1 9.76855,-5.5911 7.898364,8.1522458 0 0 1 5.417,10.0825 v 0 m 0,0 c 41.97521,-32.8135 79.53901,29.1789 94.01425,16.4995 m -95.46476,-11.2749 c -4.17399,54.1772 65.42545,50.0605 62.87306,69.4779 m -58.76789,-72.5564 c 38.48622,-8.8558 74.69364,54.6526 91.35959,14.3534 m -32.5917,58.203 c 13.76492,-29.85 -61.24325,-41.1399 -59.89841,-70.0022 17.87746,33.0261 59.18806,52.8316 72.21282,45.3767 m 0,0 c 10.1674,-20.7155 -54.54881,-53.6928 -75.18747,-44.8524 m -46.54648,63.6964 a 8.0838015,8.1216615 0 0 1 -10.52491,4.4844 8.0838015,8.1216615 0 0 1 -4.46342,-10.5744 8.0838015,8.1216615 0 0 1 10.5249,-4.4842 8.0838015,8.1216615 0 0 1 4.46343,10.5742 v 0 m 0,0 c 46.14057,-27.9763 77.91722,37.4988 93.97092,26.5002 m -95.99141,-21.4807 c -9.89085,53.2247 61.37742,56.6628 56.75725,75.6247 m -52.25832,-78.2313 c 40.09427,-4.6174 70.33247,62.2132 91.49248,24.0873 m -39.23416,54.144 c 17.11901,-28.087 -58.04976,-47.3731 -53.67499,-75.8229 14.75635,34.651 54.74027,58.7346 68.77352,52.7554 m 0,0 c 12.50604,-19.4256 -49.92868,-59.0867 -71.85578,-52.5572 m -49.47075,52.5792 a 8.4144971,8.7147547 0 0 1 -11.22436,4.0936 8.4144971,8.7147547 0 0 1 -3.95241,-11.6251 8.4144971,8.7147547 0 0 1 11.22433,-4.0934 8.4144971,8.7147547 0 0 1 3.95244,11.6249 v 0 m 0,0 c 49.7453,-26.8527 78.51878,45.4068 95.90854,34.7095 m -98.3325,-29.4702 c -13.72081,56.3338 60.09544,64.8162 54.06817,84.8119 m -49.22561,-87.3003 c 41.95181,-2.2441 69.03931,71.3635 93.48994,31.9586 m -44.26433,55.3417 c 19.6027,-28.9261 -57.23977,-54.6435 -50.85326,-84.8163 13.0869,38.1027 53.06615,66.5877 68.032,61.1297 m 0,0 c 14.2497,-19.9611 -48.04473,-66.6408 -71.24691,-61.1253 m -13.2561,-21.4743 C 248.86351,1085.0942 364.67316,805.72847 350.93045,497.68883 M 128.50082,1363.3931 C 136.69929,1353.8007 126.18698,1335.1357 110,1320 m 0,40 c 7.73824,5.0394 13.60908,4.7074 18.50082,3.3931 M 110,1385 c 5.30641,-6.5242 4.35523,-12.857 1.00345,-19.8725 M 110,1320 c 17.6894,18.5616 31.77766,36.9644 48.47052,14.6648 m -47.76676,-38.8715 c 22.17059,15.1963 35.71637,44.3443 47.53752,38.4248 M 110.31331,986.83572 C 198.98484,880.84738 217.43443,789.00309 236.45279,697.04425 M 15,200 c 0,24.26703 20,45.73297 20,70 0,24.26703 -20,45.73297 -20,70 m 2.257476,294.90582 C 22.489233,653.36612 35,670.80697 35,690 c 0,24.26703 -20,45.73297 -20,70 m 1.198926,-150.67554 c -0.448033,2.08152 -0.786429,4.1784 -0.987591,6.2945 M 15,340 c 0,24.26703 20,45.73297 20,70 0,24.26703 -20,45.73297 -20,70 0,18.66661 11.833887,35.67582 17.296014,53.57743 M 15,760 c 0,24.26703 20,45.73297 20,70 0,24.26703 -20,45.73297 -20,70 0,24.26703 20,45.73297 20,70 0,24.26703 -20,45.733 -20,70 0,24.267 20,45.733 20,70 0,24.267 -20,45.733 -20,70 0,24.267 20,45.733 20,70 0,24.267 -20,45.733 -20,70 0,24.267 20,45.733 20,70 0,24.267 -20,45.733 -20,70 0,24.267 20,45.733 20,70 0,17.9923 -10.994342,34.4448 -16.679976,51.6407 M 30,200 c 0,24.26703 20,45.73297 20,70 0,24.26703 -20,45.73297 -20,70 m 3.147354,297.8317 C 38.779746,655.21906 50,671.8238 50,690 c 0,24.26703 -20,45.73297 -20,70 m 0,-420 c 0,24.26703 20,45.73297 20,70 0,24.26703 -20,45.73297 -20,70 0,18.20941 11.261297,34.84162 16.883466,52.26362 M 30,760 c 0,24.26703 20,45.73297 20,70 0,24.26703 -20,45.73297 -20,70 0,24.26703 20,45.73297 20,70 0,24.26703 -20,45.733 -20,70 0,24.267 20,45.733 20,70 0,24.267 -20,45.733 -20,70 0,24.267 20,45.733 20,70 0,24.267 -20,45.733 -20,70 0,24.267 20,45.733 20,70 0,24.267 -20,45.733 -20,70 0,24.267 20,45.733 20,70 0,8.7432 -2.596225,17.1229 -5.917871,25.4009 M 45,200 c 0,24.26703 20,45.73297 20,70 0,24.26703 -20,45.73297 -20,70 m 2.774248,296.65166 C 53.26688,654.46935 65,671.41304 65,690 c 0,24.26703 -20,45.73297 -20,70 m 0,-420 c 0,24.26703 20,45.73297 20,70 0,24.26703 -20,45.73297 -20,70 0,11.02858 4.130819,21.47863 8.637809,31.87599 M 45,760 c 0,24.26703 20,45.73297 20,70 0,24.26703 -20,45.73297 -20,70 0,24.26703 20,45.73297 20,70 0,24.26703 -20,45.733 -20,70 0,24.267 20,45.733 20,70 0,24.267 -20,45.733 -20,70 0,24.267 20,45.733 20,70 0,24.267 -20,45.733 -20,70 0,24.267 20,45.733 20,70 0,24.267 -20,45.733 -20,70 0,24.267 20,45.733 20,70 0,1.5019 -0.07661,2.9931 -0.220352,4.4749 M 9.747479e-5,115 H 64.039409 M 3.2732335e-4,100 H 48.850575 M -3.7619512e-4,84.999997 35.303777,85 M 3.2874958e-5,70 H 20.525452 M 140,580 c -29.9508,-0.0164 -40.027293,-19.9398 -30,-60 -12.408803,6.54902 -12.465295,-6.15704 -15,-15 0,0 -8.694581,11.23153 -18.694581,26.23153 C 66.305419,546.23153 40,530 55,510 c 15,-20 16.464466,-26.46447 20,-30 5,-5 25,-5 45,0 20,5 55,50 55,50 -1.70363,40.18741 -7.50053,76.00293 -15,110 -16.57981,5.56089 -33.03598,6.41567 -49.37737,2.90158 M 71.372867,536.89368 c 6.156783,2.2398 9.932552,5.26344 9.932552,8.59072 0,6.90356 -16.25449,12.5 -36.305419,12.5 -20.050929,0 -36.3054187,-5.59644 -36.3054187,-12.5 0,-6.90356 16.2544897,-12.5 36.3054187,-12.5 3.530285,0 6.942884,0.17349 10.169801,0.49704 M 75,572.5 A 35.857964,12.5 0 0 1 39.142036,585 35.857964,12.5 0 0 1 3.2840723,572.5 35.857964,12.5 0 0 1 39.142036,560 35.857964,12.5 0 0 1 75,572.5 v 0 M 70,600 A 32.7422,12.5 0 0 1 37.2578,612.5 32.7422,12.5 0 0 1 4.5155993,600 32.7422,12.5 0 0 1 37.2578,587.5 32.7422,12.5 0 0 1 70,600 v 0 m 5,25 A 35,12.5 0 0 1 40,637.5 35,12.5 0 0 1 5,625 35,12.5 0 0 1 40,612.5 35,12.5 0 0 1 75,625 v 0 m 100,-95 c 9.01187,-6.69984 14.39729,-5.61674 20,-5 6.60244,53.92486 -5.18586,88.41956 -15,125 -13.35741,3.34424 -19.99342,-0.0197 -20,-10 m 35,-115 c 30,-10 58.09867,-28.71117 95,-20 -0.46475,7.08696 -2.19457,12.97105 -4.9121,17.91598 C 278.98874,534.01425 267.91426,540.38179 255,545 c 21.58158,3.66128 34.21401,15.94149 45,30 -10.03349,13.44945 -26.22914,22.43116 -49.38424,22.46305 C 271.31493,604.685 284.06204,617.31083 295,635 c -18.49205,7.15262 -37.00748,14.35415 -50,10 19.28915,27.69669 26.7609,54.11204 21.7734,74.31034 C 237.07501,701.19544 205.06346,667.57603 180,650 m 88.59066,-147.13548 c -19.9683,23.7025 -42.54873,42.8203 -71.6266,50.53412 l 0.31369,2.01379 c 27.15086,1.8201 53.02204,6.85057 72.72225,18.89791 -24.54842,10.71681 -49.29746,15.72712 -74.99016,12.40207 l -0.1556,2.75319 C 218.15904,598.76482 244.96846,602.45154 260,625 c -27.96689,3.85328 -49.06642,-2.19654 -70.95736,-7.72946 l -1.2798,4.91057 c 23.94574,23.09877 43.12239,50.72261 57.77627,82.63778 M 409.6675,492.69145 c 15.88549,-2.42699 31.20045,-4.71776 41.92243,-6.16208 m -111.06717,16.60078 c 2.78902,-0.30006 10.01677,-1.36157 19.68451,-2.83163 m -71.3974,11.0307 47.73505,-19.8896 3.63699,2.77826 C 343.13553,565.52489 339.93715,637.43314 330,710 l -62.98009,-16.79469 m 54.03421,-195.46776 c 0.589,4.56719 1.11983,9.13743 1.59359,13.71067 6.12531,64.64656 0.077,137.83984 -10.7087,193.96191 M 643.80297,132.1761 C 701.95967,244.69737 675,327.05696 675,430 c 0,75 85,70 85,5 0,-50 -60,-45.31129 -60,-5 0,30 45,30 45,10 0,-10 -5,-15 -10,-20 M 669.33996,133.26557 C 726.40018,245.60178 693.06836,334.16734 700,430 m -4.80973,-294.92709 c 48.25988,98.56563 16.05265,183.25832 20.65772,266.3866 m 5.50285,-263.86536 c 45.15476,96.51734 4.14559,179.66618 15.02871,261.37576 m 11.35591,-258.2331 c 41.29426,93.22982 -4.03799,170.59682 9.71213,252.60178 M 773.9533,143.54035 c 37.35232,87.70755 -1.18299,161.46343 6.95797,238.51202 m 19.49788,-235.00631 c 33.11019,81.80952 1.07194,151.57978 4.61631,223.48335 m 22.07078,-219.17793 c 28.60532,75.46904 2.72006,140.80119 2.65058,207.29531 M 853.33354,154.7034 c 24.95056,69.44863 4.40748,130.38798 1.69848,191.72807 m 24.67032,-187.79218 c 21.36466,63.52264 5.32864,120.0028 1.02655,176.35358 M 737.19849,479.63379 C 760.05981,482.81317 785,465.209 785,430 c 0,-35.77927 -30.72375,-43.5545 -48.20031,-30.312 m 24.59423,75.29618 C 783.00614,475.6028 805,458.06394 805,425 c 0,-35.17421 -29.69341,-43.28353 -47.30253,-30.96576 m 31.79216,70.33285 C 808.17113,460.96521 825,443.9222 825,415 c 0,-38.85856 -36.2397,-44.68541 -52.3902,-26.43033 m 36.80811,65.81041 C 828.12803,451.0088 845,433.95921 845,405 c 0,-39.22392 -36.92438,-44.79206 -52.84038,-25.90904 m 37.67582,65.21156 C 848.37829,440.7543 865,423.74364 865,395 c 0,-39.00019 -36.50436,-44.72745 -52.566,-26.22976 m 33.91019,70.21285 C 864.27034,434.82011 880,417.9617 880,390 c 0,-34.52874 -28.61362,-42.97679 -46.32116,-31.6232 m 34.02641,70.26465 C 885.05901,423.95682 900,407.2517 900,380 c 0,-39.08687 -36.6668,-44.75274 -52.67279,-26.10607 m 40.27385,64.77549 C 904.99916,414.02362 920,397.30623 920,370 920,331.08957 883.66348,325.29909 867.54523,343.6429 M 393.48764,145.73449 C 390.69246,165.75554 385,207.45516 385,215 c 0,10 5,30 5,40 v 70 c 0,30 67.09431,152.09431 75,160 15,15 63.17703,34.87423 85,30 15.76769,-3.52177 96.22511,-30.18332 127.66076,-63.11513 M 382.57642,147.22782 C 363.2681,207.66477 366.10305,272.14927 360,335 c -1.73268,17.84361 -25.58165,26.28268 -30,0 m 60,-5 c -10,50 -80,60 -80,15 0,-43.27071 50,-40 50,-15 m 21.64204,21.23153 c -15,25 12.01319,83.23557 3.35796,103.76847 -9.92298,23.54039 -55,30 -60,0 -2.59938,-15.59626 15,-20 15,-20 m 42.94745,-20 c -2.87409,48.28061 -28.15091,45.34685 -37.94745,45 -14.99061,-0.53075 -15,-15 -5,-25 m 65.62369,-61.47521 c 4.03109,25.80959 0.4386,70.8524 -0.62369,81.47521 -5.00002,50 -90,50 -95,5 -5,-45 58.77397,-61.20438 55,-25 -3.54365,33.99487 -49.4546,27.56846 -25,0 m 140,-5 c 5,10 20,20 40,10 m -55,-25 15,-5 c 5,0 5,5 15,5 10,0 10,-5 20,-5 10,0 5,5 15,5 10,0 15,-5 15,-5 M 390,220 c 11.31833,-14.13384 56.37552,-43.41512 80,-10 -1.39935,-1.49569 1.27693,6.53875 0,5 -25.00797,-30.1357 -66.37102,-7.7827 -80,5 v 0 m 240,10 c -5.43774,-6.79042 -22.69715,-30.53943 -45,-35 -25,-5 -40,0 -59.07295,15.40088 1.39935,-1.49569 -1.41163,6.41619 0,5 C 560.26964,180.94726 621.08803,207.03562 630,230 v 0 M 470,215 c 18.67256,51.65779 0,74.5049 0,100 0,15 -6.09528,35.06016 -5,45 1.59461,14.47132 15,15 20,25 m 45,-10 c -10,-10 -55,-5 -20,0 35,5 35,-7.92893 35,-15 0,-5 -5,-15 -15,-15 m -5,-80 c 0,0 15,-20 35,-20 20,0 45,25 80,25 -30,0 -50.01147,9.32269 -70,10 -20.50088,0.69467 -35,-15 -45,-15 M 390,255 c 15,-10 25,-15 40,-10 15,5 45,20 45,20 m 0,0 c -20,5 -40,15 -55,15 -14.14214,0 -30,-20 -30,-20 M 246.47063,5.6251884e-5 370,150 c 180.66018,-37.46594 351.90847,-15.69998 520,10 L 1023.3336,-3.2305717e-4 M 906.79345,139.29992 893.47656,137.26367 C 788.17613,121.164 680.5467,106.36195 569.41211,106.90234 c -66.68075,0.32424 -134.62296,6.17151 -204.08203,20.57618 l -12.23114,2.53723 M 284.04614,45.68786 C 216.75167,54.569707 232.09028,147.18229 175,190 268.31147,217.99344 318.08779,154.56306 336.51594,109.39174 M 175,190 c 59.98911,9.22909 94.42536,-79.4944 134.75272,-112.881224 M 310,130 c 3.62193,-15.52177 -0.58651,-31.178056 -6.69488,-46.866982 M 255,85 c 18.36414,-7.902731 33.49805,-4.909942 48.50254,-1.480587 M 240,120 c 13.66273,-9.29577 27.37374,-11.32513 41.12235,-10.97464 M 290,155 c 3.26734,-4.48104 -3.39347,-36.02274 -7.7136,-46.5736 M 225,155 c 11.90463,-7.5334 22.9728,-11.6913 33.55452,-13.88609 M 260,175 c 0.69037,-8.73161 0.61527,-23.44155 -1.61616,-34.6174 M 210,170 c 7.2696,-1.28643 13.64558,-0.61252 19.5682,1.05594 M 230,185 c 4.48465,-6.2535 3.93377,-11.49589 1.80007,-16.42637"
           id="path1175" />
      </g>
    </g>
    <g
       id="use69"
       transform="matrix(-0.26458333,0,0,-0.26458333,57.526455,127.38611)">
      <g
         transform="matrix(-1,0,0,1,1300,0)"
         id="g1183">
        <path
           stroke="#4444ff"
           stroke-linecap="round"
           stroke-linejoin="round"
           stroke-width="6"
           fill="none"
           d="m 921.5584,121.32505 -25.06035,-3.83091 C 790.98611,101.36213 682.19484,86.319179 569.24805,86.884766 501.47997,87.224118 432.21491,93.183179 361.26758,107.89648 l -22.18361,4.59993 M 425,415 c 5,25 5,75 -30,85 -35,10 -70,-15 -70,-15 M 110,478.44827 V 160 M 7.4505806e-8,1660 110,1550 V 565.47619 m -0.048,858.31511 C 424.07906,1162.6897 468.2177,839.16669 479.23801,495.46355 M 355.72662,1118.1009 C 598.77762,1034.369 691.65151,666.22954 1063.9731,699.42986 M 337.79794,1152.6587 C 477.38073,1117.6271 566.80423,1000.2114 664.91602,900.93164 763.64016,801.0322 867.29093,716.74099 1042.0702,725.9351 M 452.01172,469.22266 C 442.44035,813.79185 407.37593,1129.2105 110,1387.1999 m 965,-913.26723 v 213.5947 M 1055,464.08046 V 698.41264 M 1035,455.45977 V 697.39668 M 905,420.77175 V 711.32982 M 885,417.69294 v 299.58749 m 3.35147,-299.03789 C 1053.687,443.04334 1120.384,493.99629 1190.053,560.56336 M 411.10947,985.25328 c 28.18823,14.12981 52.95191,32.58732 77.58649,51.20782 M 425.07502,935.13431 c 39.01902,20.44444 70.87078,43.70883 100.95715,67.66779 M 431.6644,907.97662 c 43.89269,20.06879 81.16297,46.29935 117.27493,73.60764 M 439.19952,873.67289 c 45.42505,18.69801 84.55409,43.20019 120.34225,70.78225 M 475.75681,586.07993 580,645 885.05185,485.21094 M 473.69317,607.98768 580,670 885.07716,510.19768 M 472.06117,636.48852 585,695 884.97261,535.33716 M 560,682.15731 V 944.56475 M 580,692.02662 V 949.35427 M 600,686.94683 V 927.4386 M 730,617.81609 v 185.67564 m 20,-196.24625 v 180.7166 m 20,-191.08195 v 176.7134 M 478.28528,527.59159 570,580 889.1957,418.27418 M 685,765 a 20,20 0 0 0 -20,-20 20,20 0 0 0 -20,20 20,20 0 0 0 20,20 20,20 0 0 0 20,-20 v 0 m -40,-20 c -15,-30 10,-25 20,-20 10,-5 35,-10 20,20 30,-15 25,10 20,20 5,10 10.5986,34.35524 -20,20 15,30 -10,25 -20,20 -10,5 -35,10 -20,-20 -30,15 -25,-10 -20,-20 -5,-10 -10,-35 20,-20 v 0 M 621.22182,904.55082 C 621.28126,899.51183 623.14063,893.71874 625,890 c -5,-10 -10,-35 20,-20 -15,-30 10,-25 20,-20 3.93291,-1.96646 10.186,-3.93291 15.41341,-3.7702 M 654.93215,657.28493 C 657.88917,659.01101 661.32909,660 665,660 c 10.34529,0 18.85601,-7.85473 19.89374,-17.92576 m 23.5765,-13.04193 C 707.85847,633.05744 706.42923,637.14153 705,640 c 5,10 10.5986,34.35524 -20,20 15,30 -10,25 -20,20 -9.48298,4.74149 -32.455,9.48298 -22.01342,-15.62267 m -240.49321,343.95157 67.14457,44.7631 m 435.72491,-620.04772 129.76455,194.6469 m 0.2333,-0.73227 -47.64218,71.46328 m -81.89935,-64.69343 45.6819,68.52284 M 1019.9947,450.00801 C 981.78128,507.32809 942.8382,565.7427 905.98244,621.02634 m -0.43254,53.76227 21.31847,31.97717 M 1016.1664,697.21275 1035,668.96289 M 438.92527,1000.6752 451.5312,976.94988 c 12.10544,-20.21602 39.57139,-3.42402 28.54654,17.13075 l -14.46068,24.47757 m 14.46068,-24.47757 c 12.10544,-20.21603 37.36544,-2.35665 26.34059,18.19817 l -12.10737,20.4941 m -83.20149,-47.51962 14.08112,-26.50172 c 12.10545,-20.21602 37.36546,-2.35644 26.34061,18.19832 M 70,487.06896 V 200 H 1.1920929e-6 M 70,566.09195 v -11.90476 m 0,64.24466 V 578.40722 M -1.4901161e-7,1600 70,1530 V 631.36289 M 2.9802322e-7,160 H 140 L 0,2.5 M 0,130 H 80 L -1.1920929e-6,49.999999 M 315,895 a 7.5,7.5 0 0 1 -7.5,7.5 7.5,7.5 0 0 1 -7.5,-7.5 7.5,7.5 0 0 1 7.5,-7.5 7.5,7.5 0 0 1 7.5,7.5 v 0 m 0,0 c 30,-40 80,5 90,-10 m -90,15 c 9.92015,49.00602 72.40887,27.15943 75,45 M 317.96713,896.20352 C 350.85395,878.30444 400,925 405,885 m -15,60 C 395,915 323.66951,924.63575 317.58247,898.75815 342.27133,923.29003 385,930 395,920 m 0,0 c 4.03107,-20.98038 -63.40093,-33.21694 -80,-20 m 17.44813,-74.87412 a 7.4603248,7.5 0 0 1 -7.02189,7.91627 7.4603248,7.5 0 0 1 -7.87438,-7.05923 7.4603248,7.5 0 0 1 7.02189,-7.91627 7.4603248,7.5 0 0 1 7.87438,7.05923 v 0 m 0,0 C 359.96735,783.47715 412.17911,825.54685 421.25746,810 m -88.52516,20.11771 c 12.63674,48.35917 73.45173,22.97793 77.03889,40.64131 M 335.46315,826.15791 C 367.10529,806.40905 418.56537,850.22034 421.25746,810 m -11.48627,60.75902 c 3.26042,-30.23667 -67.02919,-16.54114 -74.54485,-42.02868 25.91237,23.08119 68.72693,27.33886 78.08943,16.78384 m 0,0 c 2.81082,-21.17642 -64.85034,-29.54022 -80.58347,-15.39647 m 14.36917,-81.81294 a 7.124427,7.5 0 0 1 -6.53004,8.0774 7.124427,7.5 0 0 1 -7.6729,-6.87428 7.124427,7.5 0 0 1 6.53004,-8.0774 7.124427,7.5 0 0 1 7.6729,6.87428 v 0 m 0,0 c 25.35824,-42.27737 76.13001,-1.43275 84.45577,-17.1865 m -84.07481,22.17039 c 13.12686,48.05245 70.6306,21.26415 74.44335,38.83942 m -71.92315,-42.86165 c 29.77557,-20.47921 79.86795,22.12401 81.55461,-18.14816 m -9.63146,61.00981 c 2.44857,-30.30439 -64.35748,-14.9784 -72.09273,-40.2844 25.2461,22.4726 66.21555,25.73376 74.92225,14.9639 m 0,0 c 2.21835,-21.2361 -62.56284,-28.02466 -77.27287,-13.51892 m 11.12782,-73.52915 a 6.8523829,7.5 0 0 1 -5.62361,8.638 6.8523829,7.5 0 0 1 -7.89211,-6.15508 6.8523829,7.5 0 0 1 5.6236,-8.638 6.8523829,7.5 0 0 1 7.89212,6.15508 v 0 m 0,0 C 379.59229,635.34548 431.45022,671.44835 438.19217,655 m -78.82576,29.69054 c 16.34992,46.68793 69.35127,14.79911 74.3841,31.96468 M 361.46578,680.45529 C 388.39141,657.35945 439.73629,695.27585 438.19217,655 m -4.44166,61.65522 c -0.0318,-30.41379 -62.84669,-9.10381 -72.24499,-33.61686 25.95591,20.10679 65.47125,19.65141 72.96937,8.13409 m 0,0 c 0.45923,-21.3582 -62.15078,-22.26413 -75.10848,-6.48191 m 7.30208,-82.27924 a 6.7617659,7.5 0 0 1 -5.54924,8.638 6.7617659,7.5 0 0 1 -7.78774,-6.15508 6.7617659,7.5 0 0 1 5.54924,-8.638 6.7617659,7.5 0 0 1 7.78774,6.15508 v 0 m 0,0 c 20.70458,-44.41403 71.87673,-8.31116 78.52952,-24.75951 m -77.78335,29.69054 c 16.1337,46.68793 68.43415,14.79911 73.40043,31.96468 m -71.32883,-36.19993 c 26.56957,-23.09584 77.23545,14.82056 75.71175,-25.45529 m -4.38292,61.65522 c -0.0314,-30.41379 -62.0156,-9.10381 -71.28961,-33.61686 25.61266,20.10679 64.60545,19.65141 72.00441,8.13409 m 0,0 c 0.45316,-21.3582 -61.32889,-22.26413 -74.11523,-6.48191 m -0.61688,-70.64892 a 6.9239796,7.5 0 0 1 -5.48179,8.78876 6.9239796,7.5 0 0 1 -8.11376,-5.93781 6.9239796,7.5 0 0 1 5.48179,-8.78877 6.9239796,7.5 0 0 1 8.11376,5.93782 v 0 m 0,0 c 20.17245,-44.97276 73.38686,-10.29616 79.81857,-26.92336 m -78.94125,31.83222 c 17.59017,46.22728 70.39471,12.90213 75.87363,29.92503 m -73.85047,-34.21625 c 26.66694,-23.82338 79.40485,12.6802 76.91809,-27.541 m -3.06762,61.75725 c -0.73212,-30.40347 -63.69314,-7.38609 -73.75087,-31.63507 26.68173,19.39229 66.58705,17.8588 73.89608,6.14046 m 0,0 c -0.0277,-21.36409 -63.29307,-20.56131 -76.01884,-4.43042 m -75.00298,422.41038 a 7.7297737,8.033013 0 0 1 -8.61448,6.99376 7.7297737,8.033013 0 0 1 -6.72975,-8.95243 7.7297737,8.033013 0 0 1 8.61448,-6.99376 7.7297737,8.033013 0 0 1 6.72975,8.95243 v 0 m 0,0 c 35.71441,-38.60581 81.20764,15.76164 93.32187,1.12124 m -93.95011,4.19416 c 3.99024,53.39265 70.658,38.32765 71.06695,57.63175 m -67.55471,-61.28027 c 35.89054,-14.73384 80.29717,41.32467 90.43787,-0.54564 m -22.88316,61.82591 c 8.8842,-31.23932 -65.29395,-30.30996 -68.26919,-58.61472 22.17303,29.30315 65.03917,42.01582 76.52515,32.69082 m 0,0 c 6.75974,-21.77746 -60.68222,-43.59103 -79.32291,-31.70785 m -29.43745,64.73485 a 7.6725262,8.0129647 0 0 1 -8.61142,6.8943 7.6725262,8.0129647 0 0 1 -6.60143,-8.9936 7.6725262,8.0129647 0 0 1 8.61145,-6.8943 7.6725262,8.0129647 0 0 1 6.6014,8.9936 v 0 m 0,0 c 35.78576,-38.16922 80.46511,16.4917 92.61704,2.0034 m -93.28704,3.2925 c 3.49397,53.295 69.79686,38.9005 70.03409,58.1595 m -66.51614,-61.7654 c 35.75198,-14.3562 79.33807,41.9811 89.76909,0.3134 m -23.25295,61.452 c 9.09099,-31.0759 -64.54282,-30.8523 -67.24858,-59.1134 21.75184,29.439 64.18765,42.526 75.66957,33.3334 m 0,0 c 6.89968,-21.658 -59.84939,-44.0558 -78.45508,-32.3795 m -36.44524,62.8871 a 7.898364,8.1522458 0 0 1 -9.76855,5.5913 7.898364,8.1522458 0 0 1 -5.417,-10.0827 7.898364,8.1522458 0 0 1 9.76855,-5.5911 7.898364,8.1522458 0 0 1 5.417,10.0825 v 0 m 0,0 c 41.97521,-32.8135 79.53901,29.1789 94.01425,16.4995 m -95.46476,-11.2749 c -4.17399,54.1772 65.42545,50.0605 62.87306,69.4779 m -58.76789,-72.5564 c 38.48622,-8.8558 74.69364,54.6526 91.35959,14.3534 m -32.5917,58.203 c 13.76492,-29.85 -61.24325,-41.1399 -59.89841,-70.0022 17.87746,33.0261 59.18806,52.8316 72.21282,45.3767 m 0,0 c 10.1674,-20.7155 -54.54881,-53.6928 -75.18747,-44.8524 m -46.54648,63.6964 a 8.0838015,8.1216615 0 0 1 -10.52491,4.4844 8.0838015,8.1216615 0 0 1 -4.46342,-10.5744 8.0838015,8.1216615 0 0 1 10.5249,-4.4842 8.0838015,8.1216615 0 0 1 4.46343,10.5742 v 0 m 0,0 c 46.14057,-27.9763 77.91722,37.4988 93.97092,26.5002 m -95.99141,-21.4807 c -9.89085,53.2247 61.37742,56.6628 56.75725,75.6247 m -52.25832,-78.2313 c 40.09427,-4.6174 70.33247,62.2132 91.49248,24.0873 m -39.23416,54.144 c 17.11901,-28.087 -58.04976,-47.3731 -53.67499,-75.8229 14.75635,34.651 54.74027,58.7346 68.77352,52.7554 m 0,0 c 12.50604,-19.4256 -49.92868,-59.0867 -71.85578,-52.5572 m -49.47075,52.5792 a 8.4144971,8.7147547 0 0 1 -11.22436,4.0936 8.4144971,8.7147547 0 0 1 -3.95241,-11.6251 8.4144971,8.7147547 0 0 1 11.22433,-4.0934 8.4144971,8.7147547 0 0 1 3.95244,11.6249 v 0 m 0,0 c 49.7453,-26.8527 78.51878,45.4068 95.90854,34.7095 m -98.3325,-29.4702 c -13.72081,56.3338 60.09544,64.8162 54.06817,84.8119 m -49.22561,-87.3003 c 41.95181,-2.2441 69.03931,71.3635 93.48994,31.9586 m -44.26433,55.3417 c 19.6027,-28.9261 -57.23977,-54.6435 -50.85326,-84.8163 13.0869,38.1027 53.06615,66.5877 68.032,61.1297 m 0,0 c 14.2497,-19.9611 -48.04473,-66.6408 -71.24691,-61.1253 m -13.2561,-21.4743 C 248.86351,1085.0942 364.67316,805.72847 350.93045,497.68883 M 128.50082,1363.3931 C 136.69929,1353.8007 126.18698,1335.1357 110,1320 m 0,40 c 7.73824,5.0394 13.60908,4.7074 18.50082,3.3931 M 110,1385 c 5.30641,-6.5242 4.35523,-12.857 1.00345,-19.8725 M 110,1320 c 17.6894,18.5616 31.77766,36.9644 48.47052,14.6648 m -47.76676,-38.8715 c 22.17059,15.1963 35.71637,44.3443 47.53752,38.4248 M 110.31331,986.83572 C 198.98484,880.84738 217.43443,789.00309 236.45279,697.04425 M 15,200 c 0,24.26703 20,45.73297 20,70 0,24.26703 -20,45.73297 -20,70 m 2.257476,294.90582 C 22.489233,653.36612 35,670.80697 35,690 c 0,24.26703 -20,45.73297 -20,70 m 1.198926,-150.67554 c -0.448033,2.08152 -0.786429,4.1784 -0.987591,6.2945 M 15,340 c 0,24.26703 20,45.73297 20,70 0,24.26703 -20,45.73297 -20,70 0,18.66661 11.833887,35.67582 17.296014,53.57743 M 15,760 c 0,24.26703 20,45.73297 20,70 0,24.26703 -20,45.73297 -20,70 0,24.26703 20,45.73297 20,70 0,24.26703 -20,45.733 -20,70 0,24.267 20,45.733 20,70 0,24.267 -20,45.733 -20,70 0,24.267 20,45.733 20,70 0,24.267 -20,45.733 -20,70 0,24.267 20,45.733 20,70 0,24.267 -20,45.733 -20,70 0,24.267 20,45.733 20,70 0,17.9923 -10.994342,34.4448 -16.679976,51.6407 M 30,200 c 0,24.26703 20,45.73297 20,70 0,24.26703 -20,45.73297 -20,70 m 3.147354,297.8317 C 38.779746,655.21906 50,671.8238 50,690 c 0,24.26703 -20,45.73297 -20,70 m 0,-420 c 0,24.26703 20,45.73297 20,70 0,24.26703 -20,45.73297 -20,70 0,18.20941 11.261297,34.84162 16.883466,52.26362 M 30,760 c 0,24.26703 20,45.73297 20,70 0,24.26703 -20,45.73297 -20,70 0,24.26703 20,45.73297 20,70 0,24.26703 -20,45.733 -20,70 0,24.267 20,45.733 20,70 0,24.267 -20,45.733 -20,70 0,24.267 20,45.733 20,70 0,24.267 -20,45.733 -20,70 0,24.267 20,45.733 20,70 0,24.267 -20,45.733 -20,70 0,24.267 20,45.733 20,70 0,8.7432 -2.596225,17.1229 -5.917871,25.4009 M 45,200 c 0,24.26703 20,45.73297 20,70 0,24.26703 -20,45.73297 -20,70 m 2.774248,296.65166 C 53.26688,654.46935 65,671.41304 65,690 c 0,24.26703 -20,45.73297 -20,70 m 0,-420 c 0,24.26703 20,45.73297 20,70 0,24.26703 -20,45.73297 -20,70 0,11.02858 4.130819,21.47863 8.637809,31.87599 M 45,760 c 0,24.26703 20,45.73297 20,70 0,24.26703 -20,45.73297 -20,70 0,24.26703 20,45.73297 20,70 0,24.26703 -20,45.733 -20,70 0,24.267 20,45.733 20,70 0,24.267 -20,45.733 -20,70 0,24.267 20,45.733 20,70 0,24.267 -20,45.733 -20,70 0,24.267 20,45.733 20,70 0,24.267 -20,45.733 -20,70 0,24.267 20,45.733 20,70 0,1.5019 -0.07661,2.9931 -0.220352,4.4749 M 9.747479e-5,115 H 64.039409 M 3.2732335e-4,100 H 48.850575 M -3.7619512e-4,84.999997 35.303777,85 M 3.2874958e-5,70 H 20.525452 M 140,580 c -29.9508,-0.0164 -40.027293,-19.9398 -30,-60 -12.408803,6.54902 -12.465295,-6.15704 -15,-15 0,0 -8.694581,11.23153 -18.694581,26.23153 C 66.305419,546.23153 40,530 55,510 c 15,-20 16.464466,-26.46447 20,-30 5,-5 25,-5 45,0 20,5 55,50 55,50 -1.70363,40.18741 -7.50053,76.00293 -15,110 -16.57981,5.56089 -33.03598,6.41567 -49.37737,2.90158 M 71.372867,536.89368 c 6.156783,2.2398 9.932552,5.26344 9.932552,8.59072 0,6.90356 -16.25449,12.5 -36.305419,12.5 -20.050929,0 -36.3054187,-5.59644 -36.3054187,-12.5 0,-6.90356 16.2544897,-12.5 36.3054187,-12.5 3.530285,0 6.942884,0.17349 10.169801,0.49704 M 75,572.5 A 35.857964,12.5 0 0 1 39.142036,585 35.857964,12.5 0 0 1 3.2840723,572.5 35.857964,12.5 0 0 1 39.142036,560 35.857964,12.5 0 0 1 75,572.5 v 0 M 70,600 A 32.7422,12.5 0 0 1 37.2578,612.5 32.7422,12.5 0 0 1 4.5155993,600 32.7422,12.5 0 0 1 37.2578,587.5 32.7422,12.5 0 0 1 70,600 v 0 m 5,25 A 35,12.5 0 0 1 40,637.5 35,12.5 0 0 1 5,625 35,12.5 0 0 1 40,612.5 35,12.5 0 0 1 75,625 v 0 m 100,-95 c 9.01187,-6.69984 14.39729,-5.61674 20,-5 6.60244,53.92486 -5.18586,88.41956 -15,125 -13.35741,3.34424 -19.99342,-0.0197 -20,-10 m 35,-115 c 30,-10 58.09867,-28.71117 95,-20 -0.46475,7.08696 -2.19457,12.97105 -4.9121,17.91598 C 278.98874,534.01425 267.91426,540.38179 255,545 c 21.58158,3.66128 34.21401,15.94149 45,30 -10.03349,13.44945 -26.22914,22.43116 -49.38424,22.46305 C 271.31493,604.685 284.06204,617.31083 295,635 c -18.49205,7.15262 -37.00748,14.35415 -50,10 19.28915,27.69669 26.7609,54.11204 21.7734,74.31034 C 237.07501,701.19544 205.06346,667.57603 180,650 m 88.59066,-147.13548 c -19.9683,23.7025 -42.54873,42.8203 -71.6266,50.53412 l 0.31369,2.01379 c 27.15086,1.8201 53.02204,6.85057 72.72225,18.89791 -24.54842,10.71681 -49.29746,15.72712 -74.99016,12.40207 l -0.1556,2.75319 C 218.15904,598.76482 244.96846,602.45154 260,625 c -27.96689,3.85328 -49.06642,-2.19654 -70.95736,-7.72946 l -1.2798,4.91057 c 23.94574,23.09877 43.12239,50.72261 57.77627,82.63778 M 409.6675,492.69145 c 15.88549,-2.42699 31.20045,-4.71776 41.92243,-6.16208 m -111.06717,16.60078 c 2.78902,-0.30006 10.01677,-1.36157 19.68451,-2.83163 m -71.3974,11.0307 47.73505,-19.8896 3.63699,2.77826 C 343.13553,565.52489 339.93715,637.43314 330,710 l -62.98009,-16.79469 m 54.03421,-195.46776 c 0.589,4.56719 1.11983,9.13743 1.59359,13.71067 6.12531,64.64656 0.077,137.83984 -10.7087,193.96191 M 643.80297,132.1761 C 701.95967,244.69737 675,327.05696 675,430 c 0,75 85,70 85,5 0,-50 -60,-45.31129 -60,-5 0,30 45,30 45,10 0,-10 -5,-15 -10,-20 M 669.33996,133.26557 C 726.40018,245.60178 693.06836,334.16734 700,430 m -4.80973,-294.92709 c 48.25988,98.56563 16.05265,183.25832 20.65772,266.3866 m 5.50285,-263.86536 c 45.15476,96.51734 4.14559,179.66618 15.02871,261.37576 m 11.35591,-258.2331 c 41.29426,93.22982 -4.03799,170.59682 9.71213,252.60178 M 773.9533,143.54035 c 37.35232,87.70755 -1.18299,161.46343 6.95797,238.51202 m 19.49788,-235.00631 c 33.11019,81.80952 1.07194,151.57978 4.61631,223.48335 m 22.07078,-219.17793 c 28.60532,75.46904 2.72006,140.80119 2.65058,207.29531 M 853.33354,154.7034 c 24.95056,69.44863 4.40748,130.38798 1.69848,191.72807 m 24.67032,-187.79218 c 21.36466,63.52264 5.32864,120.0028 1.02655,176.35358 M 737.19849,479.63379 C 760.05981,482.81317 785,465.209 785,430 c 0,-35.77927 -30.72375,-43.5545 -48.20031,-30.312 m 24.59423,75.29618 C 783.00614,475.6028 805,458.06394 805,425 c 0,-35.17421 -29.69341,-43.28353 -47.30253,-30.96576 m 31.79216,70.33285 C 808.17113,460.96521 825,443.9222 825,415 c 0,-38.85856 -36.2397,-44.68541 -52.3902,-26.43033 m 36.80811,65.81041 C 828.12803,451.0088 845,433.95921 845,405 c 0,-39.22392 -36.92438,-44.79206 -52.84038,-25.90904 m 37.67582,65.21156 C 848.37829,440.7543 865,423.74364 865,395 c 0,-39.00019 -36.50436,-44.72745 -52.566,-26.22976 m 33.91019,70.21285 C 864.27034,434.82011 880,417.9617 880,390 c 0,-34.52874 -28.61362,-42.97679 -46.32116,-31.6232 m 34.02641,70.26465 C 885.05901,423.95682 900,407.2517 900,380 c 0,-39.08687 -36.6668,-44.75274 -52.67279,-26.10607 m 40.27385,64.77549 C 904.99916,414.02362 920,397.30623 920,370 920,331.08957 883.66348,325.29909 867.54523,343.6429 M 393.48764,145.73449 C 390.69246,165.75554 385,207.45516 385,215 c 0,10 5,30 5,40 v 70 c 0,30 67.09431,152.09431 75,160 15,15 63.17703,34.87423 85,30 15.76769,-3.52177 96.22511,-30.18332 127.66076,-63.11513 M 382.57642,147.22782 C 363.2681,207.66477 366.10305,272.14927 360,335 c -1.73268,17.84361 -25.58165,26.28268 -30,0 m 60,-5 c -10,50 -80,60 -80,15 0,-43.27071 50,-40 50,-15 m 21.64204,21.23153 c -15,25 12.01319,83.23557 3.35796,103.76847 -9.92298,23.54039 -55,30 -60,0 -2.59938,-15.59626 15,-20 15,-20 m 42.94745,-20 c -2.87409,48.28061 -28.15091,45.34685 -37.94745,45 -14.99061,-0.53075 -15,-15 -5,-25 m 65.62369,-61.47521 c 4.03109,25.80959 0.4386,70.8524 -0.62369,81.47521 -5.00002,50 -90,50 -95,5 -5,-45 58.77397,-61.20438 55,-25 -3.54365,33.99487 -49.4546,27.56846 -25,0 m 140,-5 c 5,10 20,20 40,10 m -55,-25 15,-5 c 5,0 5,5 15,5 10,0 10,-5 20,-5 10,0 5,5 15,5 10,0 15,-5 15,-5 M 390,220 c 11.31833,-14.13384 56.37552,-43.41512 80,-10 -1.39935,-1.49569 1.27693,6.53875 0,5 -25.00797,-30.1357 -66.37102,-7.7827 -80,5 v 0 m 240,10 c -5.43774,-6.79042 -22.69715,-30.53943 -45,-35 -25,-5 -40,0 -59.07295,15.40088 1.39935,-1.49569 -1.41163,6.41619 0,5 C 560.26964,180.94726 621.08803,207.03562 630,230 v 0 M 470,215 c 18.67256,51.65779 0,74.5049 0,100 0,15 -6.09528,35.06016 -5,45 1.59461,14.47132 15,15 20,25 m 45,-10 c -10,-10 -55,-5 -20,0 35,5 35,-7.92893 35,-15 0,-5 -5,-15 -15,-15 m -5,-80 c 0,0 15,-20 35,-20 20,0 45,25 80,25 -30,0 -50.01147,9.32269 -70,10 -20.50088,0.69467 -35,-15 -45,-15 M 390,255 c 15,-10 25,-15 40,-10 15,5 45,20 45,20 m 0,0 c -20,5 -40,15 -55,15 -14.14214,0 -30,-20 -30,-20 M 246.47063,5.6251884e-5 370,150 c 180.66018,-37.46594 351.90847,-15.69998 520,10 L 1023.3336,-3.2305717e-4 M 906.79345,139.29992 893.47656,137.26367 C 788.17613,121.164 680.5467,106.36195 569.41211,106.90234 c -66.68075,0.32424 -134.62296,6.17151 -204.08203,20.57618 l -12.23114,2.53723 M 284.04614,45.68786 C 216.75167,54.569707 232.09028,147.18229 175,190 268.31147,217.99344 318.08779,154.56306 336.51594,109.39174 M 175,190 c 59.98911,9.22909 94.42536,-79.4944 134.75272,-112.881224 M 310,130 c 3.62193,-15.52177 -0.58651,-31.178056 -6.69488,-46.866982 M 255,85 c 18.36414,-7.902731 33.49805,-4.909942 48.50254,-1.480587 M 240,120 c 13.66273,-9.29577 27.37374,-11.32513 41.12235,-10.97464 M 290,155 c 3.26734,-4.48104 -3.39347,-36.02274 -7.7136,-46.5736 M 225,155 c 11.90463,-7.5334 22.9728,-11.6913 33.55452,-13.88609 M 260,175 c 0.69037,-8.73161 0.61527,-23.44155 -1.61616,-34.6174 M 210,170 c 7.2696,-1.28643 13.64558,-0.61252 19.5682,1.05594 M 230,185 c 4.48465,-6.2535 3.93377,-11.49589 1.80007,-16.42637"
           id="path1181" />
      </g>
    </g>
  </g>
</svg>
