<?xml version="1.0" encoding="UTF-8" standalone="no"?>
<svg
   class="card"
   face="JC"
   height="2.7253594in"
   preserveAspectRatio="none"
   viewBox="-120 -168 165.57711 261.63451"
   width="1.7247616in"
   version="1.1"
   id="svg91"
   sodipodi:docname="JC.svg"
   inkscape:version="1.1.2 (b8e25be833, 2022-02-05)"
   xmlns:inkscape="http://www.inkscape.org/namespaces/inkscape"
   xmlns:sodipodi="http://sodipodi.sourceforge.net/DTD/sodipodi-0.dtd"
   xmlns:xlink="http://www.w3.org/1999/xlink"
   xmlns="http://www.w3.org/2000/svg"
   xmlns:svg="http://www.w3.org/2000/svg">
  <sodipodi:namedview
     id="namedview93"
     pagecolor="#ffffff"
     bordercolor="#666666"
     borderopacity="1.0"
     inkscape:pageshadow="2"
     inkscape:pageopacity="0.0"
     inkscape:pagecheckerboard="0"
     inkscape:document-units="in"
     showgrid="false"
     inkscape:zoom="1.2247024"
     inkscape:cx="67.363305"
     inkscape:cy="111.04739"
     inkscape:window-width="1920"
     inkscape:window-height="1009"
     inkscape:window-x="-8"
     inkscape:window-y="-8"
     inkscape:window-maximized="1"
     inkscape:current-layer="g1926" />
  <defs
     id="defs47">
    <symbol
       id="VCJ"
       viewBox="-500 -500 1000 1000"
       preserveAspectRatio="xMinYMid">
      <path
         d="m 50,-460 h 200 m -100,0 v 710 a 200,200 0 0 1 -400,0 v -30"
         stroke="#000000"
         stroke-width="80"
         stroke-linecap="square"
         stroke-miterlimit="1.5"
         fill="none"
         id="path2" />
    </symbol>
    <symbol
       id="SCJ"
       viewBox="-600 -600 1200 1200"
       preserveAspectRatio="xMinYMid">
      <rect
         x="-500"
         y="-500"
         width="1000"
         height="1000"
         opacity="0"
         id="rect5" />
      <path
         d="m 30,150 c 5,235 55,250 100,350 H -130 C -85,400 -35,385 -30,150 a 10,10 0 0 0 -20,0 210,210 0 1 1 -74,-201 10,10 0 0 0 14,-14 230,230 0 1 1 220,0 10,10 0 0 0 14,14 210,210 0 1 1 -74,201 10,10 0 0 0 -20,0 z"
         fill="#000000"
         id="path7" />
    </symbol>
    <symbol
       id="CJ6"
       preserveAspectRatio="none"
       viewBox="0 0 1300 2000">
      <g
         transform="matrix(-1,0,0,1,1300,0)"
         id="g18">
        <path
           stroke="#4444ff"
           stroke-linecap="round"
           stroke-linejoin="round"
           stroke-width="3"
           fill="none"
           d="M 524.94219,513.71628 570,540 696.32944,478.87285 M 61.131504,535.03979 C 54.178982,543.56322 55,548.2266 59.572437,555.45395 m -2.135514,7.2952 c -6.952522,8.52343 -6.131504,13.18681 -1.559067,20.41416 m -1.519751,7.50045 c -6.952522,8.52343 -6.131504,13.18681 -1.559067,20.41416 m 8.537721,4.42164 c -6.952522,8.52343 -6.131504,13.18681 -1.559067,20.41416 M 35,540 c -3.989188,5.32793 -1.136095,7.23471 0,10 m -0.821018,17.91461 c -3.989188,5.32793 -1.136095,7.23471 0,10 m -2.668309,18.11987 c -3.989188,5.32793 -1.136095,7.23471 0,10 m -0.205255,14.63054 c -3.989188,5.32793 -1.136095,7.23471 0,10 M 60,505 c 5,5 -5,25 -5,25 M 395,250 c 15,-20 25,-20 40,-20 15,0 40,20 40,20 m 60,5 c 15,-20 27.85465,-25.69394 45,-25 12.00867,0.48604 30,15 30,15 m -179.85149,0.27223 C 433.13092,248.92766 435,254.1728 435,260 c 0,11.04569 -6.71573,20 -15,20 -8.28427,0 -15,-8.95431 -15,-20 0,-6.19035 2.1093,-11.72383 5.42187,-15.39242 m 162.60059,5.46002 C 574.28068,252.994 575,256.385 575,260 c 0,11.04569 -6.71572,20 -14.99999,20 -8.28426,0 -15.87081,-6.05157 -15.87081,-17.09726 0,-6.37213 2.235,-12.04825 5.71679,-15.71076 M 610,510 688.91137,472.86524 M 615,500 684.81856,467.14421 M 480,460 c 10.05839,-6.04941 25,0 35,5"
           id="path10" />
        <use
           xlink:href="#SCJ"
           height="75"
           width="75"
           transform="matrix(1,0,0,0.972,467,692.036)"
           id="use12"
           x="0"
           y="0" />
        <use
           xlink:href="#SCJ"
           height="75"
           width="75"
           transform="matrix(1,0,0,0.972,467,808.036)"
           id="use14"
           x="0"
           y="0" />
        <use
           xlink:href="#SCJ"
           height="75"
           width="75"
           transform="matrix(1,0,0,0.972,789,607.036)"
           id="use16"
           x="0"
           y="0" />
      </g>
    </symbol>
    <symbol
       id="CJ5"
       preserveAspectRatio="none"
       viewBox="0 0 1300 2000">
      <g
         transform="matrix(-1,0,0,1,1300,0)"
         id="g23">
        <path
           stroke="#4444ff"
           stroke-linecap="round"
           stroke-linejoin="round"
           stroke-width="6"
           fill="none"
           d="m 921.5584,121.32505 -25.06035,-3.83091 C 790.98611,101.36213 682.19484,86.319179 569.24805,86.884766 501.47997,87.224118 432.21491,93.183179 361.26758,107.89648 l -22.18361,4.59993 M 425,415 c 5,25 5,75 -30,85 -35,10 -70,-15 -70,-15 M 110,478.44827 V 160 M 7.4505806e-8,1660 110,1550 V 565.47619 m -0.048,858.31511 C 424.07906,1162.6897 468.2177,839.16669 479.23801,495.46355 M 355.72662,1118.1009 C 598.77762,1034.369 691.65151,666.22954 1063.9731,699.42986 M 337.79794,1152.6587 C 477.38073,1117.6271 566.80423,1000.2114 664.91602,900.93164 763.64016,801.0322 867.29093,716.74099 1042.0702,725.9351 M 452.01172,469.22266 C 442.44035,813.79185 407.37593,1129.2105 110,1387.1999 m 965,-913.26723 v 213.5947 M 1055,464.08046 V 698.41264 M 1035,455.45977 V 697.39668 M 905,420.77175 V 711.32982 M 885,417.69294 v 299.58749 m 3.35147,-299.03789 C 1053.687,443.04334 1120.384,493.99629 1190.053,560.56336 M 411.10947,985.25328 c 28.18823,14.12981 52.95191,32.58732 77.58649,51.20782 M 425.07502,935.13431 c 39.01902,20.44444 70.87078,43.70883 100.95715,67.66779 M 431.6644,907.97662 c 43.89269,20.06879 81.16297,46.29935 117.27493,73.60764 M 439.19952,873.67289 c 45.42505,18.69801 84.55409,43.20019 120.34225,70.78225 M 475.75681,586.07993 580,645 885.05185,485.21094 M 473.69317,607.98768 580,670 885.07716,510.19768 M 472.06117,636.48852 585,695 884.97261,535.33716 M 560,682.15731 V 944.56475 M 580,692.02662 V 949.35427 M 600,686.94683 V 927.4386 M 730,617.81609 v 185.67564 m 20,-196.24625 v 180.7166 m 20,-191.08195 v 176.7134 M 478.28528,527.59159 570,580 889.1957,418.27418 M 685,765 a 20,20 0 0 0 -20,-20 20,20 0 0 0 -20,20 20,20 0 0 0 20,20 20,20 0 0 0 20,-20 v 0 m -40,-20 c -15,-30 10,-25 20,-20 10,-5 35,-10 20,20 30,-15 25,10 20,20 5,10 10.5986,34.35524 -20,20 15,30 -10,25 -20,20 -10,5 -35,10 -20,-20 -30,15 -25,-10 -20,-20 -5,-10 -10,-35 20,-20 v 0 M 621.22182,904.55082 C 621.28126,899.51183 623.14063,893.71874 625,890 c -5,-10 -10,-35 20,-20 -15,-30 10,-25 20,-20 3.93291,-1.96646 10.186,-3.93291 15.41341,-3.7702 M 654.93215,657.28493 C 657.88917,659.01101 661.32909,660 665,660 c 10.34529,0 18.85601,-7.85473 19.89374,-17.92576 m 23.5765,-13.04193 C 707.85847,633.05744 706.42923,637.14153 705,640 c 5,10 10.5986,34.35524 -20,20 15,30 -10,25 -20,20 -9.48298,4.74149 -32.455,9.48298 -22.01342,-15.62267 m -240.49321,343.95157 67.14457,44.7631 m 435.72491,-620.04772 129.76455,194.6469 m 0.2333,-0.73227 -47.64218,71.46328 m -81.89935,-64.69343 45.6819,68.52284 M 1019.9947,450.00801 C 981.78128,507.32809 942.8382,565.7427 905.98244,621.02634 m -0.43254,53.76227 21.31847,31.97717 M 1016.1664,697.21275 1035,668.96289 M 438.92527,1000.6752 451.5312,976.94988 c 12.10544,-20.21602 39.57139,-3.42402 28.54654,17.13075 l -14.46068,24.47757 m 14.46068,-24.47757 c 12.10544,-20.21603 37.36544,-2.35665 26.34059,18.19817 l -12.10737,20.4941 m -83.20149,-47.51962 14.08112,-26.50172 c 12.10545,-20.21602 37.36546,-2.35644 26.34061,18.19832 M 70,487.06896 V 200 H 1.1920929e-6 M 70,566.09195 v -11.90476 m 0,64.24466 V 578.40722 M -1.4901161e-7,1600 70,1530 V 631.36289 M 2.9802322e-7,160 H 140 L 0,2.5 M 0,130 H 80 L -1.1920929e-6,49.999999 M 315,895 a 7.5,7.5 0 0 1 -7.5,7.5 7.5,7.5 0 0 1 -7.5,-7.5 7.5,7.5 0 0 1 7.5,-7.5 7.5,7.5 0 0 1 7.5,7.5 v 0 m 0,0 c 30,-40 80,5 90,-10 m -90,15 c 9.92015,49.00602 72.40887,27.15943 75,45 M 317.96713,896.20352 C 350.85395,878.30444 400,925 405,885 m -15,60 C 395,915 323.66951,924.63575 317.58247,898.75815 342.27133,923.29003 385,930 395,920 m 0,0 c 4.03107,-20.98038 -63.40093,-33.21694 -80,-20 m 17.44813,-74.87412 a 7.4603248,7.5 0 0 1 -7.02189,7.91627 7.4603248,7.5 0 0 1 -7.87438,-7.05923 7.4603248,7.5 0 0 1 7.02189,-7.91627 7.4603248,7.5 0 0 1 7.87438,7.05923 v 0 m 0,0 C 359.96735,783.47715 412.17911,825.54685 421.25746,810 m -88.52516,20.11771 c 12.63674,48.35917 73.45173,22.97793 77.03889,40.64131 M 335.46315,826.15791 C 367.10529,806.40905 418.56537,850.22034 421.25746,810 m -11.48627,60.75902 c 3.26042,-30.23667 -67.02919,-16.54114 -74.54485,-42.02868 25.91237,23.08119 68.72693,27.33886 78.08943,16.78384 m 0,0 c 2.81082,-21.17642 -64.85034,-29.54022 -80.58347,-15.39647 m 14.36917,-81.81294 a 7.124427,7.5 0 0 1 -6.53004,8.0774 7.124427,7.5 0 0 1 -7.6729,-6.87428 7.124427,7.5 0 0 1 6.53004,-8.0774 7.124427,7.5 0 0 1 7.6729,6.87428 v 0 m 0,0 c 25.35824,-42.27737 76.13001,-1.43275 84.45577,-17.1865 m -84.07481,22.17039 c 13.12686,48.05245 70.6306,21.26415 74.44335,38.83942 m -71.92315,-42.86165 c 29.77557,-20.47921 79.86795,22.12401 81.55461,-18.14816 m -9.63146,61.00981 c 2.44857,-30.30439 -64.35748,-14.9784 -72.09273,-40.2844 25.2461,22.4726 66.21555,25.73376 74.92225,14.9639 m 0,0 c 2.21835,-21.2361 -62.56284,-28.02466 -77.27287,-13.51892 m 11.12782,-73.52915 a 6.8523829,7.5 0 0 1 -5.62361,8.638 6.8523829,7.5 0 0 1 -7.89211,-6.15508 6.8523829,7.5 0 0 1 5.6236,-8.638 6.8523829,7.5 0 0 1 7.89212,6.15508 v 0 m 0,0 C 379.59229,635.34548 431.45022,671.44835 438.19217,655 m -78.82576,29.69054 c 16.34992,46.68793 69.35127,14.79911 74.3841,31.96468 M 361.46578,680.45529 C 388.39141,657.35945 439.73629,695.27585 438.19217,655 m -4.44166,61.65522 c -0.0318,-30.41379 -62.84669,-9.10381 -72.24499,-33.61686 25.95591,20.10679 65.47125,19.65141 72.96937,8.13409 m 0,0 c 0.45923,-21.3582 -62.15078,-22.26413 -75.10848,-6.48191 m 7.30208,-82.27924 a 6.7617659,7.5 0 0 1 -5.54924,8.638 6.7617659,7.5 0 0 1 -7.78774,-6.15508 6.7617659,7.5 0 0 1 5.54924,-8.638 6.7617659,7.5 0 0 1 7.78774,6.15508 v 0 m 0,0 c 20.70458,-44.41403 71.87673,-8.31116 78.52952,-24.75951 m -77.78335,29.69054 c 16.1337,46.68793 68.43415,14.79911 73.40043,31.96468 m -71.32883,-36.19993 c 26.56957,-23.09584 77.23545,14.82056 75.71175,-25.45529 m -4.38292,61.65522 c -0.0314,-30.41379 -62.0156,-9.10381 -71.28961,-33.61686 25.61266,20.10679 64.60545,19.65141 72.00441,8.13409 m 0,0 c 0.45316,-21.3582 -61.32889,-22.26413 -74.11523,-6.48191 m -0.61688,-70.64892 a 6.9239796,7.5 0 0 1 -5.48179,8.78876 6.9239796,7.5 0 0 1 -8.11376,-5.93781 6.9239796,7.5 0 0 1 5.48179,-8.78877 6.9239796,7.5 0 0 1 8.11376,5.93782 v 0 m 0,0 c 20.17245,-44.97276 73.38686,-10.29616 79.81857,-26.92336 m -78.94125,31.83222 c 17.59017,46.22728 70.39471,12.90213 75.87363,29.92503 m -73.85047,-34.21625 c 26.66694,-23.82338 79.40485,12.6802 76.91809,-27.541 m -3.06762,61.75725 c -0.73212,-30.40347 -63.69314,-7.38609 -73.75087,-31.63507 26.68173,19.39229 66.58705,17.8588 73.89608,6.14046 m 0,0 c -0.0277,-21.36409 -63.29307,-20.56131 -76.01884,-4.43042 m -75.00298,422.41038 a 7.7297737,8.033013 0 0 1 -8.61448,6.99376 7.7297737,8.033013 0 0 1 -6.72975,-8.95243 7.7297737,8.033013 0 0 1 8.61448,-6.99376 7.7297737,8.033013 0 0 1 6.72975,8.95243 v 0 m 0,0 c 35.71441,-38.60581 81.20764,15.76164 93.32187,1.12124 m -93.95011,4.19416 c 3.99024,53.39265 70.658,38.32765 71.06695,57.63175 m -67.55471,-61.28027 c 35.89054,-14.73384 80.29717,41.32467 90.43787,-0.54564 m -22.88316,61.82591 c 8.8842,-31.23932 -65.29395,-30.30996 -68.26919,-58.61472 22.17303,29.30315 65.03917,42.01582 76.52515,32.69082 m 0,0 c 6.75974,-21.77746 -60.68222,-43.59103 -79.32291,-31.70785 m -29.43745,64.73485 a 7.6725262,8.0129647 0 0 1 -8.61142,6.8943 7.6725262,8.0129647 0 0 1 -6.60143,-8.9936 7.6725262,8.0129647 0 0 1 8.61145,-6.8943 7.6725262,8.0129647 0 0 1 6.6014,8.9936 v 0 m 0,0 c 35.78576,-38.16922 80.46511,16.4917 92.61704,2.0034 m -93.28704,3.2925 c 3.49397,53.295 69.79686,38.9005 70.03409,58.1595 m -66.51614,-61.7654 c 35.75198,-14.3562 79.33807,41.9811 89.76909,0.3134 m -23.25295,61.452 c 9.09099,-31.0759 -64.54282,-30.8523 -67.24858,-59.1134 21.75184,29.439 64.18765,42.526 75.66957,33.3334 m 0,0 c 6.89968,-21.658 -59.84939,-44.0558 -78.45508,-32.3795 m -36.44524,62.8871 a 7.898364,8.1522458 0 0 1 -9.76855,5.5913 7.898364,8.1522458 0 0 1 -5.417,-10.0827 7.898364,8.1522458 0 0 1 9.76855,-5.5911 7.898364,8.1522458 0 0 1 5.417,10.0825 v 0 m 0,0 c 41.97521,-32.8135 79.53901,29.1789 94.01425,16.4995 m -95.46476,-11.2749 c -4.17399,54.1772 65.42545,50.0605 62.87306,69.4779 m -58.76789,-72.5564 c 38.48622,-8.8558 74.69364,54.6526 91.35959,14.3534 m -32.5917,58.203 c 13.76492,-29.85 -61.24325,-41.1399 -59.89841,-70.0022 17.87746,33.0261 59.18806,52.8316 72.21282,45.3767 m 0,0 c 10.1674,-20.7155 -54.54881,-53.6928 -75.18747,-44.8524 m -46.54648,63.6964 a 8.0838015,8.1216615 0 0 1 -10.52491,4.4844 8.0838015,8.1216615 0 0 1 -4.46342,-10.5744 8.0838015,8.1216615 0 0 1 10.5249,-4.4842 8.0838015,8.1216615 0 0 1 4.46343,10.5742 v 0 m 0,0 c 46.14057,-27.9763 77.91722,37.4988 93.97092,26.5002 m -95.99141,-21.4807 c -9.89085,53.2247 61.37742,56.6628 56.75725,75.6247 m -52.25832,-78.2313 c 40.09427,-4.6174 70.33247,62.2132 91.49248,24.0873 m -39.23416,54.144 c 17.11901,-28.087 -58.04976,-47.3731 -53.67499,-75.8229 14.75635,34.651 54.74027,58.7346 68.77352,52.7554 m 0,0 c 12.50604,-19.4256 -49.92868,-59.0867 -71.85578,-52.5572 m -49.47075,52.5792 a 8.4144971,8.7147547 0 0 1 -11.22436,4.0936 8.4144971,8.7147547 0 0 1 -3.95241,-11.6251 8.4144971,8.7147547 0 0 1 11.22433,-4.0934 8.4144971,8.7147547 0 0 1 3.95244,11.6249 v 0 m 0,0 c 49.7453,-26.8527 78.51878,45.4068 95.90854,34.7095 m -98.3325,-29.4702 c -13.72081,56.3338 60.09544,64.8162 54.06817,84.8119 m -49.22561,-87.3003 c 41.95181,-2.2441 69.03931,71.3635 93.48994,31.9586 m -44.26433,55.3417 c 19.6027,-28.9261 -57.23977,-54.6435 -50.85326,-84.8163 13.0869,38.1027 53.06615,66.5877 68.032,61.1297 m 0,0 c 14.2497,-19.9611 -48.04473,-66.6408 -71.24691,-61.1253 m -13.2561,-21.4743 C 248.86351,1085.0942 364.67316,805.72847 350.93045,497.68883 M 128.50082,1363.3931 C 136.69929,1353.8007 126.18698,1335.1357 110,1320 m 0,40 c 7.73824,5.0394 13.60908,4.7074 18.50082,3.3931 M 110,1385 c 5.30641,-6.5242 4.35523,-12.857 1.00345,-19.8725 M 110,1320 c 17.6894,18.5616 31.77766,36.9644 48.47052,14.6648 m -47.76676,-38.8715 c 22.17059,15.1963 35.71637,44.3443 47.53752,38.4248 M 110.31331,986.83572 C 198.98484,880.84738 217.43443,789.00309 236.45279,697.04425 M 15,200 c 0,24.26703 20,45.73297 20,70 0,24.26703 -20,45.73297 -20,70 m 2.257476,294.90582 C 22.489233,653.36612 35,670.80697 35,690 c 0,24.26703 -20,45.73297 -20,70 m 1.198926,-150.67554 c -0.448033,2.08152 -0.786429,4.1784 -0.987591,6.2945 M 15,340 c 0,24.26703 20,45.73297 20,70 0,24.26703 -20,45.73297 -20,70 0,18.66661 11.833887,35.67582 17.296014,53.57743 M 15,760 c 0,24.26703 20,45.73297 20,70 0,24.26703 -20,45.73297 -20,70 0,24.26703 20,45.73297 20,70 0,24.26703 -20,45.733 -20,70 0,24.267 20,45.733 20,70 0,24.267 -20,45.733 -20,70 0,24.267 20,45.733 20,70 0,24.267 -20,45.733 -20,70 0,24.267 20,45.733 20,70 0,24.267 -20,45.733 -20,70 0,24.267 20,45.733 20,70 0,17.9923 -10.994342,34.4448 -16.679976,51.6407 M 30,200 c 0,24.26703 20,45.73297 20,70 0,24.26703 -20,45.73297 -20,70 m 3.147354,297.8317 C 38.779746,655.21906 50,671.8238 50,690 c 0,24.26703 -20,45.73297 -20,70 m 0,-420 c 0,24.26703 20,45.73297 20,70 0,24.26703 -20,45.73297 -20,70 0,18.20941 11.261297,34.84162 16.883466,52.26362 M 30,760 c 0,24.26703 20,45.73297 20,70 0,24.26703 -20,45.73297 -20,70 0,24.26703 20,45.73297 20,70 0,24.26703 -20,45.733 -20,70 0,24.267 20,45.733 20,70 0,24.267 -20,45.733 -20,70 0,24.267 20,45.733 20,70 0,24.267 -20,45.733 -20,70 0,24.267 20,45.733 20,70 0,24.267 -20,45.733 -20,70 0,24.267 20,45.733 20,70 0,8.7432 -2.596225,17.1229 -5.917871,25.4009 M 45,200 c 0,24.26703 20,45.73297 20,70 0,24.26703 -20,45.73297 -20,70 m 2.774248,296.65166 C 53.26688,654.46935 65,671.41304 65,690 c 0,24.26703 -20,45.73297 -20,70 m 0,-420 c 0,24.26703 20,45.73297 20,70 0,24.26703 -20,45.73297 -20,70 0,11.02858 4.130819,21.47863 8.637809,31.87599 M 45,760 c 0,24.26703 20,45.73297 20,70 0,24.26703 -20,45.73297 -20,70 0,24.26703 20,45.73297 20,70 0,24.26703 -20,45.733 -20,70 0,24.267 20,45.733 20,70 0,24.267 -20,45.733 -20,70 0,24.267 20,45.733 20,70 0,24.267 -20,45.733 -20,70 0,24.267 20,45.733 20,70 0,24.267 -20,45.733 -20,70 0,24.267 20,45.733 20,70 0,1.5019 -0.07661,2.9931 -0.220352,4.4749 M 9.747479e-5,115 H 64.039409 M 3.2732335e-4,100 H 48.850575 M -3.7619512e-4,84.999997 35.303777,85 M 3.2874958e-5,70 H 20.525452 M 140,580 c -29.9508,-0.0164 -40.027293,-19.9398 -30,-60 -12.408803,6.54902 -12.465295,-6.15704 -15,-15 0,0 -8.694581,11.23153 -18.694581,26.23153 C 66.305419,546.23153 40,530 55,510 c 15,-20 16.464466,-26.46447 20,-30 5,-5 25,-5 45,0 20,5 55,50 55,50 -1.70363,40.18741 -7.50053,76.00293 -15,110 -16.57981,5.56089 -33.03598,6.41567 -49.37737,2.90158 M 71.372867,536.89368 c 6.156783,2.2398 9.932552,5.26344 9.932552,8.59072 0,6.90356 -16.25449,12.5 -36.305419,12.5 -20.050929,0 -36.3054187,-5.59644 -36.3054187,-12.5 0,-6.90356 16.2544897,-12.5 36.3054187,-12.5 3.530285,0 6.942884,0.17349 10.169801,0.49704 M 75,572.5 A 35.857964,12.5 0 0 1 39.142036,585 35.857964,12.5 0 0 1 3.2840723,572.5 35.857964,12.5 0 0 1 39.142036,560 35.857964,12.5 0 0 1 75,572.5 v 0 M 70,600 A 32.7422,12.5 0 0 1 37.2578,612.5 32.7422,12.5 0 0 1 4.5155993,600 32.7422,12.5 0 0 1 37.2578,587.5 32.7422,12.5 0 0 1 70,600 v 0 m 5,25 A 35,12.5 0 0 1 40,637.5 35,12.5 0 0 1 5,625 35,12.5 0 0 1 40,612.5 35,12.5 0 0 1 75,625 v 0 m 100,-95 c 9.01187,-6.69984 14.39729,-5.61674 20,-5 6.60244,53.92486 -5.18586,88.41956 -15,125 -13.35741,3.34424 -19.99342,-0.0197 -20,-10 m 35,-115 c 30,-10 58.09867,-28.71117 95,-20 -0.46475,7.08696 -2.19457,12.97105 -4.9121,17.91598 C 278.98874,534.01425 267.91426,540.38179 255,545 c 21.58158,3.66128 34.21401,15.94149 45,30 -10.03349,13.44945 -26.22914,22.43116 -49.38424,22.46305 C 271.31493,604.685 284.06204,617.31083 295,635 c -18.49205,7.15262 -37.00748,14.35415 -50,10 19.28915,27.69669 26.7609,54.11204 21.7734,74.31034 C 237.07501,701.19544 205.06346,667.57603 180,650 m 88.59066,-147.13548 c -19.9683,23.7025 -42.54873,42.8203 -71.6266,50.53412 l 0.31369,2.01379 c 27.15086,1.8201 53.02204,6.85057 72.72225,18.89791 -24.54842,10.71681 -49.29746,15.72712 -74.99016,12.40207 l -0.1556,2.75319 C 218.15904,598.76482 244.96846,602.45154 260,625 c -27.96689,3.85328 -49.06642,-2.19654 -70.95736,-7.72946 l -1.2798,4.91057 c 23.94574,23.09877 43.12239,50.72261 57.77627,82.63778 M 409.6675,492.69145 c 15.88549,-2.42699 31.20045,-4.71776 41.92243,-6.16208 m -111.06717,16.60078 c 2.78902,-0.30006 10.01677,-1.36157 19.68451,-2.83163 m -71.3974,11.0307 47.73505,-19.8896 3.63699,2.77826 C 343.13553,565.52489 339.93715,637.43314 330,710 l -62.98009,-16.79469 m 54.03421,-195.46776 c 0.589,4.56719 1.11983,9.13743 1.59359,13.71067 6.12531,64.64656 0.077,137.83984 -10.7087,193.96191 M 643.80297,132.1761 C 701.95967,244.69737 675,327.05696 675,430 c 0,75 85,70 85,5 0,-50 -60,-45.31129 -60,-5 0,30 45,30 45,10 0,-10 -5,-15 -10,-20 M 669.33996,133.26557 C 726.40018,245.60178 693.06836,334.16734 700,430 m -4.80973,-294.92709 c 48.25988,98.56563 16.05265,183.25832 20.65772,266.3866 m 5.50285,-263.86536 c 45.15476,96.51734 4.14559,179.66618 15.02871,261.37576 m 11.35591,-258.2331 c 41.29426,93.22982 -4.03799,170.59682 9.71213,252.60178 M 773.9533,143.54035 c 37.35232,87.70755 -1.18299,161.46343 6.95797,238.51202 m 19.49788,-235.00631 c 33.11019,81.80952 1.07194,151.57978 4.61631,223.48335 m 22.07078,-219.17793 c 28.60532,75.46904 2.72006,140.80119 2.65058,207.29531 M 853.33354,154.7034 c 24.95056,69.44863 4.40748,130.38798 1.69848,191.72807 m 24.67032,-187.79218 c 21.36466,63.52264 5.32864,120.0028 1.02655,176.35358 M 737.19849,479.63379 C 760.05981,482.81317 785,465.209 785,430 c 0,-35.77927 -30.72375,-43.5545 -48.20031,-30.312 m 24.59423,75.29618 C 783.00614,475.6028 805,458.06394 805,425 c 0,-35.17421 -29.69341,-43.28353 -47.30253,-30.96576 m 31.79216,70.33285 C 808.17113,460.96521 825,443.9222 825,415 c 0,-38.85856 -36.2397,-44.68541 -52.3902,-26.43033 m 36.80811,65.81041 C 828.12803,451.0088 845,433.95921 845,405 c 0,-39.22392 -36.92438,-44.79206 -52.84038,-25.90904 m 37.67582,65.21156 C 848.37829,440.7543 865,423.74364 865,395 c 0,-39.00019 -36.50436,-44.72745 -52.566,-26.22976 m 33.91019,70.21285 C 864.27034,434.82011 880,417.9617 880,390 c 0,-34.52874 -28.61362,-42.97679 -46.32116,-31.6232 m 34.02641,70.26465 C 885.05901,423.95682 900,407.2517 900,380 c 0,-39.08687 -36.6668,-44.75274 -52.67279,-26.10607 m 40.27385,64.77549 C 904.99916,414.02362 920,397.30623 920,370 920,331.08957 883.66348,325.29909 867.54523,343.6429 M 393.48764,145.73449 C 390.69246,165.75554 385,207.45516 385,215 c 0,10 5,30 5,40 v 70 c 0,30 67.09431,152.09431 75,160 15,15 63.17703,34.87423 85,30 15.76769,-3.52177 96.22511,-30.18332 127.66076,-63.11513 M 382.57642,147.22782 C 363.2681,207.66477 366.10305,272.14927 360,335 c -1.73268,17.84361 -25.58165,26.28268 -30,0 m 60,-5 c -10,50 -80,60 -80,15 0,-43.27071 50,-40 50,-15 m 21.64204,21.23153 c -15,25 12.01319,83.23557 3.35796,103.76847 -9.92298,23.54039 -55,30 -60,0 -2.59938,-15.59626 15,-20 15,-20 m 42.94745,-20 c -2.87409,48.28061 -28.15091,45.34685 -37.94745,45 -14.99061,-0.53075 -15,-15 -5,-25 m 65.62369,-61.47521 c 4.03109,25.80959 0.4386,70.8524 -0.62369,81.47521 -5.00002,50 -90,50 -95,5 -5,-45 58.77397,-61.20438 55,-25 -3.54365,33.99487 -49.4546,27.56846 -25,0 m 140,-5 c 5,10 20,20 40,10 m -55,-25 15,-5 c 5,0 5,5 15,5 10,0 10,-5 20,-5 10,0 5,5 15,5 10,0 15,-5 15,-5 M 390,220 c 11.31833,-14.13384 56.37552,-43.41512 80,-10 -1.39935,-1.49569 1.27693,6.53875 0,5 -25.00797,-30.1357 -66.37102,-7.7827 -80,5 v 0 m 240,10 c -5.43774,-6.79042 -22.69715,-30.53943 -45,-35 -25,-5 -40,0 -59.07295,15.40088 1.39935,-1.49569 -1.41163,6.41619 0,5 C 560.26964,180.94726 621.08803,207.03562 630,230 v 0 M 470,215 c 18.67256,51.65779 0,74.5049 0,100 0,15 -6.09528,35.06016 -5,45 1.59461,14.47132 15,15 20,25 m 45,-10 c -10,-10 -55,-5 -20,0 35,5 35,-7.92893 35,-15 0,-5 -5,-15 -15,-15 m -5,-80 c 0,0 15,-20 35,-20 20,0 45,25 80,25 -30,0 -50.01147,9.32269 -70,10 -20.50088,0.69467 -35,-15 -45,-15 M 390,255 c 15,-10 25,-15 40,-10 15,5 45,20 45,20 m 0,0 c -20,5 -40,15 -55,15 -14.14214,0 -30,-20 -30,-20 M 246.47063,5.6251884e-5 370,150 c 180.66018,-37.46594 351.90847,-15.69998 520,10 L 1023.3336,-3.2305717e-4 M 906.79345,139.29992 893.47656,137.26367 C 788.17613,121.164 680.5467,106.36195 569.41211,106.90234 c -66.68075,0.32424 -134.62296,6.17151 -204.08203,20.57618 l -12.23114,2.53723 M 284.04614,45.68786 C 216.75167,54.569707 232.09028,147.18229 175,190 268.31147,217.99344 318.08779,154.56306 336.51594,109.39174 M 175,190 c 59.98911,9.22909 94.42536,-79.4944 134.75272,-112.881224 M 310,130 c 3.62193,-15.52177 -0.58651,-31.178056 -6.69488,-46.866982 M 255,85 c 18.36414,-7.902731 33.49805,-4.909942 48.50254,-1.480587 M 240,120 c 13.66273,-9.29577 27.37374,-11.32513 41.12235,-10.97464 M 290,155 c 3.26734,-4.48104 -3.39347,-36.02274 -7.7136,-46.5736 M 225,155 c 11.90463,-7.5334 22.9728,-11.6913 33.55452,-13.88609 M 260,175 c 0.69037,-8.73161 0.61527,-23.44155 -1.61616,-34.6174 M 210,170 c 7.2696,-1.28643 13.64558,-0.61252 19.5682,1.05594 M 230,185 c 4.48465,-6.2535 3.93377,-11.49589 1.80007,-16.42637"
           id="path21" />
      </g>
    </symbol>
    <symbol
       id="CJ4"
       preserveAspectRatio="none"
       viewBox="0 0 1300 2000">
      <g
         transform="matrix(-1,0,0,1,1300,0)"
         id="g28">
        <path
           fill="#000000"
           d="M 585,695 472.14443,635.81958 c 0.73077,-9.5527 1.33279,-18.45406 1.72118,-27.60205 L 580,670 885.03858,509.67592 l -0.0523,25.05152 z M 439.54873,873.40987 c -2.19924,11.53009 -4.9112,23.27526 -7.84126,34.76855 43.84962,19.86699 81.1199,46.09755 116.90566,73.45524 10.3735,-10.76119 21.01313,-21.80733 31.52731,-32.62432 l -0.11728,-256.77923 -20.25826,-10.24927 0.006,262.52911 C 523.75361,916.87308 484.62457,892.3709 439.54873,873.40987 Z m 310.71658,-85.64086 -0.60419,-180.37719 20.09114,-10.55376 0.41163,176.77924 c -6.54418,4.53135 -13.13987,9.18167 -19.89858,14.15171 z M 1075.1849,473.91345 c -6.3099,-3.43345 -13.0426,-6.74365 -20.1168,-9.88956 l -0.1888,234.52524 c 2.9316,0.35718 6.0031,0.60513 9.3709,1.00883 3.6815,-3.87723 7.134,-7.87093 10.6926,-11.94173 z M 330,710 c 10.13311,-73.9979 13.25906,-147.31096 10,-220 l -18.94885,7.81707 c 0.59197,4.48767 1.1228,9.05791 1.59656,13.63115 6.12531,64.64656 0.077,137.83984 -10.63284,193.86894 z M 110.42693,966 h 16.21511 l 9.0312,-12 h -25.04106 z m -0.20525,-30 h 38.58784 L 155,924 h -45.59934 z m 0.0823,-60 h 72.57776 l 4.92611,-12 h -78.08441 z m 0.12292,30 h 56.65025 l 6.15763,-12 h -63.01313 z m -0.12292,-60 h 85.71405 l 4.5156,-12 h -90.22965 z m 0.58055,-30 H 195 c 3.3469,0.0473 6.08545,-2.65277 6.08545,-6 0,-3.34723 -2.73855,-6.04733 -6.08545,-6 h -84.69599 z m -0.87082,-33 H 175 c 4.05697,0.0574 4.05697,-6.05738 0,-6 h -64.98626 z m 0,-30 H 155 c 4.05697,0.0574 4.05697,-6.05738 0,-6 h -45.56681 z m 145.61712,-40.06445 -1.30078,6.19726 C 236.5705,803.7934 214.14093,893.82659 133.33984,993.46875 L 132,995.12109 v 163.47271 l 10.68164,-13.3204 c 76.40793,-95.2923 141.94512,-241.84502 171.15234,-411.16207 l 0.9336,-5.4043 z m 9.09375,14.8457 L 301,737.45508 C 273.07538,894.6282 213.40861,1031.523 144,1123.8691 V 999.30859 c 79.26178,-98.44897 103.14432,-188.6954 120.72461,-271.52734 z m 489.6109,-174.91943 -25.05453,-53.68829 -59.84877,30.32406 25.74671,55.17151 M 712.5,530 c 6.90356,0 12.5,5.59644 12.5,12.5 0,6.90356 -5.59644,12.5 -12.5,12.5 -6.90356,0 -12.5,-5.59644 -12.5,-12.5 0,-6.90356 5.59644,-12.5 12.5,-12.5 z m 57.56827,-51.63942 25.15941,53.91302 59.38732,-31.31288 -24.42528,-52.3399 z M 812.5,477.5 c 6.90356,0 12.5,5.59644 12.5,12.5 0,6.90356 -5.59644,12.5 -12.5,12.5 -6.90356,0 -12.5,-5.59644 -12.5,-12.5 0,-6.90356 5.59644,-12.5 12.5,-12.5 z m -231.77542,97.26695 26.02987,55.77829 59.72292,-30.59374 -26.01414,-55.74458 z M 622.5,572.5 c 6.90356,0 12.5,5.59644 12.5,12.5 0,6.90356 -5.59644,12.5 -12.5,12.5 -6.90356,0 -12.5,-5.59644 -12.5,-12.5 0,-6.90356 5.59644,-12.5 12.5,-12.5 z m -111.57157,-25.99631 -25.94241,45.22764 58.42488,32.91678 25.90464,-45.16179 z m 26.79283,31.30077 c 3.97399,5.64505 2.61933,13.44281 -3.02572,17.4168 -5.64505,3.97399 -13.44281,2.61933 -17.4168,-3.02572 -3.97399,-5.64505 -2.61933,-13.44281 3.02572,-17.4168 5.64505,-3.97399 13.44281,-2.61933 17.4168,3.02572 z M 906.79345,139.29992 893.47656,137.26367 C 788.17613,121.164 680.5467,106.36195 569.41211,106.90234 c -66.68075,0.32424 -134.62296,6.17151 -204.08203,20.57618 l -12.11857,2.4047 L 370,150 c 180.66018,-37.46594 351.90847,-15.69998 520,10 L 906.9372,139.67536 1040,-20"
           id="path26" />
      </g>
    </symbol>
    <symbol
       id="CJ3"
       preserveAspectRatio="none"
       viewBox="0 0 1300 2000">
      <g
         transform="matrix(-1,0,0,1,1300,0)"
         id="g33">
        <path
           fill="#4444ff"
           d="m 599.7537,695 h 130.33661 l -0.20525,15 H 600.1642 Z m 0,130 h 103.85878 l -15.18883,15 h -87.84894 z m 305.34005,-350.89648 -0.0996,41.3164 8.05469,12.08008 -8.11133,12.16797 -0.0996,41.61133 L 940.69143,527.5 Z M 1034.6152,469.53906 995.97461,527.5 1035,586.03711 1034.8633,544.36914 1023.6172,527.5 1034.752,510.79883 Z m -107.16208,-44.82226 40.88086,61.32031 29.14063,-43.71094 -23.67383,-5.95312 -5.4668,8.20117 -7.66796,-11.50586 z M 968.33398,568.96289 929.30859,627.5 968.33398,686.03711 987.8457,656.76953 1007.3574,627.5 987.8457,598.23047 Z m 0,41.46289 0.375,0.5625 11.00586,16.51172 -11.00586,16.51172 -0.375,0.5625 L 956.95117,627.5 Z M 904.98635,711.4172 c 6.91659,-1.74396 13.964,-3.41317 21.50811,-4.78132 l -21.21951,-31.5941 z M 1016.2816,697.26637 1035,668.94344 l 0.1359,28.57203 c -6.24,-0.10629 -12.5308,-0.20979 -18.8543,-0.2491 z M 355.9419,1117.8199 c 17.99562,-36.0367 33.17807,-72.46 46.35529,-109.4844 l 67.41258,44.8676 c -34.97038,27.7741 -72.26449,50.5256 -113.76787,64.6168 z M 998.83468,782.28873 c -12.06417,0.25657 -24.52125,0.61716 -35.74904,2.09018 l -6.26367,0.82226 5.17578,36.4043 5.92578,-0.54883 c 2.1201,-0.19614 4.24666,-0.3849 6.38191,-0.56367 l 7.83707,-13.06445 c -3.16259,0.24001 -6.29471,0.50536 -9.42406,0.7707 l -1.71094,-12.02344 c 6.35269,-0.7028 12.81802,-1.26083 19.41772,-1.62035 l 25.79157,-38.15309 -6.2441,0.0312 c -35.36863,0.17264 -67.44587,4.46442 -97.20122,11.93555 l -6.44336,1.61719 15.00391,47.36133 c -22.24758,6.06319 -42.87287,14.28317 -62.32617,24.42187 l -6.48438,-10.0625 c 10.00678,-5.25532 20.19604,-10.12924 30.73438,-14.18359 l 6.45312,-2.48242 -16.91992,-33.45704 -5.3457,2.19727 c -29.99209,12.32719 -57.41716,28.35296 -83.21484,47.12695 L 779,834.71289 l 30.2832,38.76953 c -19.2606,14.38455 -37.96718,30.70975 -56.78515,48.67578 l -8.58594,-9.09179 c 9.24789,-8.7326 18.51452,-17.19956 27.77539,-25.19141 l 4.78906,-4.13281 -24.51172,-27.72071 -4.66601,3.9336 c -23.76559,20.02654 -46.62708,42.18706 -69.65235,65.48047 l -6.05273,5.27539 36.04102,35.89453 c -19.62693,19.92804 -39.40806,41.35613 -60.19336,63.21483 l -9.13868,-8.6621 c 5.40661,-5.5795 10.74172,-11.1552 15.85743,-16.6309 l 4.26757,-4.56636 -9.13476,-8.53321 -4.26563,4.56641 c -6.53574,6.99566 -13.08629,13.99886 -20.01172,20.99026 l -4.49609,4.539 27.38672,25.959 4.30078,-4.4961 c 24.07955,-25.1804 46.47821,-49.85322 68.61524,-72.06442 l 4.41211,-4.42774 -35.5293,-35.38672 c 20.30447,-20.45699 40.43981,-39.89063 61.05078,-57.58594 l 8.03516,9.0879 c -9.37284,8.2213 -18.73603,16.74537 -28.05664,25.66406 l -4.48633,4.29297 25.79297,27.3164 4.54687,-4.39843 c 21.80223,-21.0861 43.15933,-39.84738 65.18359,-55.79883 l 5.25,-3.80274 -30.10546,-38.54101 c 21.99797,-15.5396 45.13568,-28.91458 70.02148,-39.63086 l 5.49414,10.86523 c -10.95347,4.53586 -21.62996,9.5848 -31.91602,15.23828 l -5.875,3.22852 20.05079,31.10351 5.0957,-2.77148 c 21.95486,-11.93971 45.26925,-21.29781 70.96094,-27.71875 l 6.45117,-1.61133 -14.88086,-46.97851 c 25.17619,-5.85285 52.10391,-9.35007 81.47264,-9.91993 l 0.029,5.0273 M -10,1670 110,1550 M 340,490 c 3.25906,72.68904 0.13311,146.0021 -10,220 l -63.00274,-16.79619 c 1.77105,9.44846 1.71657,18.24801 -0.2239,26.10648 -10.16769,-6.20191 -20.60651,-14.22115 -30.63269,-22.52889 -18.70624,92.22169 -37.15583,184.06598 -125.98401,289.52827 l 0.005,225.47363 C 248.84068,1085.0983 364.64003,805.80799 350.93633,497.82079 M 428.25836,260 a 10,20.000004 0 0 1 -10,20 10,20.000004 0 0 1 -10,-20 10,20.000004 0 0 1 10,-20.00001 10,20.000004 0 0 1 10,20.00001 z m 140.87082,2.03193 a 10,19.999998 0 0 1 -10,19.99999 10,19.999998 0 0 1 -10,-19.99999 10,19.999998 0 0 1 10,-20.00001 10,19.999998 0 0 1 10,20.00001 z"
           id="path31" />
      </g>
    </symbol>
    <symbol
       id="CJ2"
       preserveAspectRatio="none"
       viewBox="0 0 1300 2000">
      <g
         transform="matrix(-1,0,0,1,1300,0)"
         id="g38">
        <path
           fill="#ff0000"
           d="M 246.4707,0 370,150 c 180.66018,-37.46594 351.90847,-15.69998 520,10 L 1023.334,0 Z M 884.78711,420.89844 570,580 478.18555,527.74219 c -0.87498,19.93328 -1.7868,39.64712 -2.6543,58.81054 L 580,645 885.05273,485.21094 885,484.40039 Z m 190.26759,52.94531 0.2656,213.3457 c 33.7593,-38.27768 71.6354,-75.14938 114.6172,-110.73437 l 0.09,-16.51367 c -34.8003,-32.65375 -68.8844,-62.02948 -114.9726,-86.09766 z m -754.40822,25.66992 -31.62304,9.6543 -4.37891,13.88281 38.00195,-11.60156 z m 3.47071,35.11524 -54.02344,3.17773 -10.24414,7.11524 10.87695,4.86914 54.57617,-3.20899 z m 560.86914,0.48632 -114.75781,61.46875 -0.31446,177.20118 c 34.84956,-23.34017 72.83196,-43.00389 115.1875,-56.51368 z m -587.77735,36.51172 c -0.58924,2.67744 -2.4801,10.37691 -3.6621,11.79297 l 31.77929,1.98633 0.008,-12.02148 z m -3.6621,11.79297 -0.63868,-0.0391 c 0.16751,0.37468 0.38802,0.33934 0.63868,0.0391 z m -35.92774,11.4707 c -6.03128,0.0905 10.89564,11.5915 14.5918,14.35157 l 52.04101,6.12304 0.47461,-12.02734 -61.16601,-7.19531 c -2.92134,-0.8939 -4.82451,-1.2687 -5.94141,-1.25196 z m 33.00781,33.07813 c 12.43113,3.65845 -11.97853,11.31421 -6.17773,11.20703 l 36.91601,5.54492 1.46875,-11.91406 z m 181.4336,8.51953 c -5.89503,81.12305 -15.63395,160.53977 -32.64453,237.53711 45.20928,18.34496 84.33816,42.84751 120.35546,70.48438 l 0.0117,-262.83399 z M 160,640 c -16.57981,5.56089 -33.03675,6.41511 -49.68945,2.5 l -0.1543,344.09961 C 198.98443,880.84705 217.43469,789.00343 236.42578,697.01758 216.34331,680.41039 196.64019,661.66912 180,650 c -13.35741,3.34424 -19.99342,-0.0197 -20,-10 z m 524.89453,2.07422 -29.96289,15.21094 C 657.88866,659.01124 661.32909,660 665,660 c 10.34529,0 18.8568,-7.85475 19.89453,-17.92578 z m -437.26367,5.83203 6.86523,13.52148 63.54493,12.09571 0.89648,-12.04297 z m 14.97852,30.3125 3.56054,13.25781 47.11133,10.03321 2.35547,-10.03516 z M 665,745 a 20,20 0 0 0 -20,20 20,20 0 0 0 20,20 20,20 0 0 0 20,-20 20,20 0 0 0 -20,-20 z"
           id="path36" />
      </g>
    </symbol>
    <symbol
       id="CJ1"
       preserveAspectRatio="none"
       viewBox="0 0 1300 2000">
      <g
         transform="matrix(-1,0,0,1,1300,0)"
         id="g43">
        <path
           fill="#ffcc44"
           d="M 0,2.5 V 1660 l 110,-110 -0.0176,-126.2344 c 105.2964,-87.5284 180.25512,-182.1634 233.80078,-282.25 -1.87244,3.5134 -3.77535,7.0487 -5.74218,10.6348 139.33899,-34.5229 228.76321,-151.939 326.875,-251.21876 98.72414,-99.89944 202.37443,-184.19115 377.6211,-174.98242 7.5259,-8.93432 14.8129,-17.82736 21.8848,-26.5918 -4.2773,-0.38012 -8.5067,-0.68935 -12.711,-0.96484 1.155,0.0596 2.3131,0.12324 3.4668,0.18164 l -0.3808,-234.67383 c -6.4807,-3.03897 -12.9769,-5.81234 -19.7578,-8.46875 l 0.096,242.0918 c 0.6912,0.0365 1.3827,0.0727 2.0742,0.10937 -159.04652,-6.04494 -265.29667,63.25956 -356.08011,148.36328 22.0025,-20.65759 44.85617,-40.36338 69.13671,-58.22656 l -0.13671,-180.62695 c -13.88214,7.38028 -27.81453,14.80168 -41.71094,22.19336 -0.63591,3.92624 -2.0246,7.87731 -3.41797,10.66406 5,10 10.5986,34.35524 -20,20 15,30 -10,25 -20,20 -9.48298,4.74149 -32.45525,9.4826 -22.01367,-15.62305 l 29.81055,-16.08984 C 643.52791,663.86064 614.28822,679.41111 585,695 l -5.03516,-2.80078 0.25782,256.51953 c -29.0777,30.45144 -58.04681,60.05295 -88.41993,86.33005 11.6948,-10.1617 23.15299,-20.849 34.41602,-31.9883 -30.27342,-24.21806 -62.12392,-47.48225 -101.27539,-67.92378 -6.81297,24.55001 -14.31463,48.86718 -22.59766,73.06248 l 67.29297,44.8926 0.1836,0.1602 c -34.98483,27.6022 -72.21204,50.2975 -113.84571,64.6308 95.57841,-192.00036 116.20101,-403.26308 123.26172,-622.41991 -17.42844,-7.74663 -13.26834,-13.82834 -27.00586,-26.03516 0.0407,-0.67002 0.0711,-1.28503 0.11719,-1.98437 C 431.01405,428.20609 390,348.45536 390,325 v -70 c 0,-10 -5,-30 -5,-40 0,-10 10,-80 10,-80 l -10,5 C 363.67384,200.66723 366.17301,265.68862 360.26758,329.61133 359.9995,304.99906 310,301.72929 310,345 c 0,37.91624 49.69554,36.7857 71.48242,5.90625 -8.80937,15.27272 -2.75883,42.10077 1.58594,64.87109 C 380.07311,463.28107 354.79654,460.34685 345,460 338.20482,459.75941 334.49816,456.65062 333.39648,452.39648 337.37151,463.07244 362.41906,459.75943 365,435 c 3.77397,-36.20438 -60,-20 -55,25 1.22558,11.03026 7.25681,19.35695 15.36914,24.95312 0,0 34.63086,25.04688 69.63086,15.04688 5.76859,-1.64817 10.58572,-4.38335 14.62695,-7.61133 15.89909,-2.12114 31.18009,-4.40408 41.85938,-5.875 C 441.16919,824.33445 402.3883,1133.5369 110,1387.1992 l -0.0215,15.7305 -0.11914,-838.23829 c -4.80232,-9.88487 -4.81271,-24.56819 -0.006,-44.07813 v -0.54101 C 97.594808,526.43944 97.524419,513.80707 95,505 c 0,0 -8.695312,11.23242 -18.695312,26.23242 -1.837559,2.75634 -4.227351,4.44998 -6.808594,5.26758 l 1.876953,0.39453 c 6.156783,2.2398 9.931641,5.26253 9.931641,8.58985 0,6.90354 -16.253759,12.5 -36.304688,12.5 -20.050929,0 -36.3046875,-5.59646 -36.3046875,-12.5 0,-6.90356 16.2537585,-12.5 36.3046875,-12.5 3.530285,0 6.943005,0.17254 10.169922,0.49609 l 1.066406,0.22461 C 50.313972,529.0126 47.517822,519.97624 55,510 c 15,-20 16.464466,-26.46447 20,-30 4.147274,-4.14727 18.620432,-4.84204 34.84766,-2.10938 L 109.80273,160 H 140 Z M 284.04688,45.6875 C 216.75241,54.569347 232.09028,147.18229 175,190 268.31147,217.99344 318.08749,154.5639 336.51562,109.39258 Z M 640,125 c 63.11143,116.22484 35,199.88102 35,305 0,39.69413 23.81023,56.97893 46.22656,54.82031 43.93668,-3.50567 110.42396,-43.30706 166.375,-66.15039 C 904.99966,414.02412 920,397.30623 920,370 920,360 914.99963,329.99932 880.72852,334.99219 885.77493,268.89189 906.96718,202.61425 865,125 Z m 249.12695,293.31055 -4.09375,2.03711 0.0801,296.91796 c 6.69158,-2.10802 13.37747,-4.05424 20.03125,-5.89062 l -0.41211,-290.5918 c -5.30675,-0.83013 -10.44116,-1.64665 -15.60547,-2.47265 z M 340,435 c -2.60716,2.93914 -4.40854,5.63515 -5.55273,8.07031 C 335.61784,440.29278 337.4941,437.5059 340,435 Z m -69.89844,67.75391 C 242.49554,502.99919 219.375,516.875 195,525 c -5.60271,-0.61674 -10.98813,-1.69984 -20,5 -1.70363,40.18741 -7.50053,76.00293 -15,110 0.007,9.9803 6.64259,13.34424 20,10 25.06346,17.57603 57.07505,51.19565 86.77344,69.31055 C 271.76094,699.11225 264.28915,672.69669 245,645 c 12.99252,4.35415 31.50795,-2.84738 50,-10 C 284.06204,617.31083 271.3144,604.68484 250.61523,597.46289 273.77033,597.431 289.96651,588.44945 300,575 c -10.78599,-14.05851 -23.41842,-26.33872 -45,-30 18.66832,-6.67589 33.49217,-17.00726 35,-40 -6.919,-1.63334 -13.52782,-2.3027 -19.89844,-2.24609 z M 39.142578,560 A 35.857964,12.5 0 0 1 75,572.5 35.857964,12.5 0 0 1 39.142578,585 35.857964,12.5 0 0 1 3.2832031,572.5 35.857964,12.5 0 0 1 39.142578,560 Z m -1.884766,27.5 A 32.7422,12.5 0 0 1 70,600 32.7422,12.5 0 0 1 37.257812,612.5 32.7422,12.5 0 0 1 4.515625,600 32.7422,12.5 0 0 1 37.257812,587.5 Z M 40,612.5 A 35,12.5 0 0 1 75,625 35,12.5 0 0 1 40,637.5 35,12.5 0 0 1 5,625 35,12.5 0 0 1 40,612.5 Z M 650.32227,721.2207 C 655.39062,721.25 661.25,723.125 665,725 c 10,-5 35,-10 20,20 30,-15 25,10 20,20 5,10 10.5986,34.35524 -20,20 15,30 -10,25 -20,20 -10,5 -35,10 -20,-20 -30,15 -25,-10 -20,-20 -5,-10 -10,-35 20,-20 -9.375,-18.75 -3.125,-23.82812 5.32227,-23.7793 z m 0,125 C 655.39062,846.25 661.25,848.125 665,850 c 3.93291,-1.96646 10.18665,-3.93224 15.41406,-3.76953 l -14.74609,14.5293 c 0.95121,-0.92676 1.91503,-1.83997 2.86914,-2.76368 -4.86759,4.70557 -9.696,9.44761 -14.48828,14.22071 0.1457,-0.14536 0.28977,-0.2922 0.43555,-0.4375 l -33.26172,32.77148 C 621.2821,899.51179 623.14063,893.71874 625,890 c -5,-10 -10,-35 20,-20 -9.375,-18.75 -3.125,-23.82812 5.32227,-23.7793 z"
           id="path41" />
      </g>
    </symbol>
    <rect
       id="XCJ"
       width="164.8"
       height="260.79999"
       x="-82.400002"
       y="-130.39999" />
    <symbol
       id="VCK"
       viewBox="-500 -500 1000 1000"
       preserveAspectRatio="xMinYMid">
      <path
         d="m -285,-460 h 200 m -100,0 v 920 m -100,0 H -85 M 85,-460 h 200 m -100,20 -355,595 M 85,460 H 285 M 185,440 -10,-70"
         stroke="#000000"
         stroke-width="80"
         stroke-linecap="square"
         stroke-miterlimit="1.5"
         fill="none"
         id="path1803" />
    </symbol>
    <symbol
       id="SCK"
       viewBox="-600 -600 1200 1200"
       preserveAspectRatio="xMinYMid">
      <rect
         x="-500"
         y="-500"
         width="1000"
         height="1000"
         opacity="0"
         id="rect1806" />
      <path
         d="m 30,150 c 5,235 55,250 100,350 H -130 C -85,400 -35,385 -30,150 a 10,10 0 0 0 -20,0 210,210 0 1 1 -74,-201 10,10 0 0 0 14,-14 230,230 0 1 1 220,0 10,10 0 0 0 14,14 210,210 0 1 1 -74,201 10,10 0 0 0 -20,0 z"
         fill="#000000"
         id="path1808" />
    </symbol>
    <symbol
       id="CK6"
       preserveAspectRatio="none"
       viewBox="0 0 1300 2000">
      <path
         stroke="#4444ff"
         stroke-linecap="round"
         stroke-linejoin="round"
         stroke-width="3"
         fill="none"
         d="m 1205,585.2246 v -84.22071 m 0,163.06055 V 585.2246 m 0,150.84375 v -72.00391 m 0,-187.33593 V 140 m 30,728.53708 V 170 m -10,692.94531 V 160 m -10,696.56639 V 150 m -10,699.23239 v -52.50778 m -10,-566.68945 v -11.12303 m 0,66.79882 v -55.67579 m 0,140.15041 10e-5,-27.11328 M 1195,440.06642 v -69.88085 m 5.5583,533.91952 c 3.8869,4.86144 4.6037,9.57234 2.4856,23.82416 M 1205,935 c 3.8869,4.86144 6.7076,14.03225 2.537,24.38423 m -4.127,-1.19844 c 3.8869,4.86144 4.6551,15.26378 0.8949,23.76847 m -4.4581,7.87357 c 3.8869,4.86144 3.6288,14.44277 0.074,22.53697 M 1240,907.2578 c 1.2762,3.84382 1.458,7.24986 0,10 m 0.6155,21.96069 c 1.2762,3.84382 1.458,7.24986 0,10 m -2.463,18.28407 c 1.2762,3.84382 1.458,7.24986 0,10 m -1.5105,16.67642 c 1.2762,3.84382 1.458,7.24992 0,10.00002 m -42.7929,-64.73731 C 1177.1346,940 1180,970 1180,970 M 480,305 c 5,-10 19.18861,-20 35,-20 15,0 30,20 30,20 m 85,2.10925 c 0,0 15.59102,-23.50547 32.587,-23.70125 16.86922,-0.19431 30.73329,9.62285 34.403,15.199 M 620,315 c 5,15 14.81085,31.86678 40,30 M 470,325 c -3.26385,17.63806 35,25 35,25 m 13.89909,-44.17502 c 0.71086,2.40791 1.10092,5.02743 1.10092,7.76715 0,11.82324 -7.26432,21.40787 -16.22532,21.40787 -8.961,0 -16.22533,-9.58463 -16.22533,-21.40787 0,-4.15742 0.8982,-8.03805 2.45252,-11.32251 M 668.2595,297.6412 c 1.51174,3.25287 2.38331,7.07961 2.38331,11.17494 0,11.82324 -7.26432,21.40787 -16.22532,21.40787 -8.961,0 -16.22533,-9.58463 -16.22533,-21.40787 0,-3.67918 0.70344,-7.14158 1.94254,-10.16585 M 560,515 c 15,-10 35,-5 40,0"
         id="path1811" />
      <use
         xlink:href="#SCK"
         height="90"
         width="90"
         transform="matrix(0.9961947,0.08471538,-0.08715574,0.96830125,852.09325,811.61425)"
         id="use1813"
         x="0"
         y="0" />
      <use
         xlink:href="#SCK"
         height="90"
         width="90"
         transform="matrix(0.96592583,0.25157211,-0.25881905,0.9388799,895.18019,667.42966)"
         id="use1815"
         x="0"
         y="0" />
      <use
         xlink:href="#SCK"
         height="90"
         width="90"
         transform="matrix(0.90630779,0.41078495,-0.42261826,0.88093117,970.23397,542.87277)"
         id="use1817"
         x="0"
         y="0" />
    </symbol>
    <symbol
       id="CK5"
       preserveAspectRatio="none"
       viewBox="0 0 1300 2000">
      <path
         stroke="#4444ff"
         stroke-linecap="round"
         stroke-linejoin="round"
         stroke-width="6"
         fill="none"
         d="m 522.89946,3.4796319 c 9.29661,67.9067991 63.93445,63.4315221 67.75323,108.8434281 3.44105,40.92056 -51.6455,45.49043 -54.87181,4.5513 -2.18056,-27.669238 29.20442,-29.893498 31.35531,-2.60075 1.07544,13.64639 -18.52163,15.27184 -19.59707,1.62547 M 522.89946,3.4796319 C 524.35724,72.036617 469.72827,76.62439 473.07023,122.07584 c 3.01145,40.9562 58.09813,36.38784 54.87181,-4.55129 -2.18055,-27.669237 -33.50619,-24.692022 -31.35532,2.60074 1.07543,13.64637 20.67252,12.02091 19.59708,-1.62547 M 803.52042,0.0083487 c -1.61728,68.4319893 60.02097,74.3751393 56.20018,119.7511913 -3.44559,40.92033 -65.70092,35.0118 -62.01247,-5.88624 2.49288,-27.641447 37.89466,-23.901792 35.43571,3.36356 -1.22949,13.6327 -23.37681,11.53047 -22.14733,-2.10222 M 803.49877,0.01017719 C 792.84838,67.580864 731.19583,61.822082 726.83671,107.14617 c -3.93115,40.87425 58.32404,46.78427 62.01249,5.88624 2.49288,-27.641449 -32.97674,-30.628921 -35.43572,-3.36356 -1.22947,13.63267 20.91785,15.7349 22.14733,2.10222 m 106.19939,45.59258 c 1.16201,-1.19056 2.29728,-2.4235 3.40426,-3.70014 13.50821,-15.57848 21.04333,-36.1939 22.97946,-60.172561 C 934.56525,87.881779 954.37443,80.312095 970,71.80741 M 840.76436,152.60864 C 868.5811,141.05431 884.66913,116.44423 881.61643,70.52775 970.03834,57.492744 977.85613,28.050164 1016.1156,4.8041951 M 384.63751,83.185925 c 11.35443,8.151145 23.45585,14.705278 36.84401,17.808805 3.26685,10.61217 6.90989,23.05462 14.4281,36.76454 3.7266,6.7957 8.65875,13.43872 14.82126,19.61206 m 39.92618,-4.32715 C 452.77056,135.41043 453.48263,104.49672 440.89477,75.57957 408.94197,77.33746 370.4588,37.367252 336.36001,-0.19981025 M 611.36441,145.17903 c 10.9253,-14.51559 19.05107,-32.22243 22.98728,-52.755857 9.53387,-4.368773 17.87708,-10.464195 24.62784,-17.581187 6.33421,7.50921 14.31629,14.093979 23.58526,19.026361 2.55022,19.151813 8.80607,36.110233 17.69034,50.522733 M 661.11102,-4.759348e-7 C 654.88793,34.595953 646.01547,66.138383 610.12103,71.520915 608.0095,108.17316 593.55433,131.47767 571.81131,146.87836 m 162.65854,-1.50599 C 718.0019,129.07875 707.96296,106.5856 707.9437,74.453123 672.41682,66.929756 665.35458,34.909688 661.11102,-4.759348e-7 c 0,0 0,0 0,0 M 1019.4178,0.21358779 C 930.31249,123.36835 911.81756,170.70059 893.87725,227.73813 M 331.33098,0.60259911 C 399.55705,102.39104 431.37918,159.18448 457.19072,225.5247 m -10.8591,-26.37816 c 173.56368,-21.01463 316.12692,-17.02291 456.43075,1.99835 m -445.71125,24.28755 c 165.82048,-19.48743 302.23384,-15.74459 436.89043,2.14403 M 428.12856,160.03465 c 187.25473,-23.82143 340.46198,-19.28401 490.61123,1.8767 M -0.06507991,771.26195 C 113.12784,665.90749 248.10586,577.55962 401.37082,542.79581 m 753.62938,66.83842 -195.60523,-71.5629 m 340.60523,124.61168 -55.0003,-20.12206 M 924.37106,538.30385 719.57227,636.91016 552.27312,561.62571 m -8.0958,29.25408 L 720,670 938.56825,564.76344 M 566.02954,650.06 l 154.61304,69.57477 163.99053,-78.9584 m -306.73675,47.6208 143.17395,64.42744 140.14268,-67.4764 m -214.15858,72.15859 78.74832,48.38666 76.56099,-47.88938 m -153.29902,50.76162 81.47046,50.1966 74.0099,-47.51872 m -153.051,59.25997 83.77352,41.3276 71.53084,-45.38307 m -6.20914,-152.11056 7.728,189.33596 M 625.96505,709.92812 589.11088,730.03043 m 57.94431,27.37684 -45.62004,26.06041 m 47.63019,25.19843 -37.57722,23.9974 m 40.00614,37.94015 -30.53279,14.27244 m 181.40197,-126.97185 28.80644,8.17222 m -24.37199,100.47194 4.64687,2.21643 m -6.90011,-57.421 14.6443,6.01042 M 605.78319,959.99999 599.2832,960 m 101.43359,0 -6.5,-10e-6 m -234.21678,3e-5 L 460,718.46094 m -19.11475,205.81335 a 125,125 0 0 1 -125,125.00001 125,125 0 0 1 -125,-125.00001 125,125 0 0 1 125,-125 125,125 0 0 1 125,125 v 0 M 961.50795,538.87077 C 815.96941,693.79869 799.00376,865.21991 808.18772,1039.9956 m 17.5163,-0.01 C 816.30511,864.71821 832.72224,697.90271 979.42759,545.41855 M 949.77485,955.53057 C 943.88877,822.19003 968.12464,698.47509 1075.0971,580.48837 M 999.08576,951.68038 C 992.4425,822.22397 1015.8156,711.50454 1126.1392,599.14677 M 974.32013,951.08637 C 968.4907,820.68097 992.68488,704.04727 1100.5211,589.75122 M 677.5,1000 A 27.5,27.5 0 0 1 650,1027.5 27.5,27.5 0 0 1 622.5,1000 27.5,27.5 0 0 1 650,972.5 27.5,27.5 0 0 1 677.5,1000 v 0 m 14.55452,-34.0624 C 709.00441,925.84824 680.22101,905.82567 650,905.23818 c -30.22101,0.58749 -59.00441,20.61006 -42.05452,60.69942 -45,-34.54713 -65.3769,2.23401 -65.63599,34.0624 0.25909,31.8284 20.63599,68.6096 65.63599,34.0624 -16.94989,40.0894 11.83351,60.112 42.05452,60.6994 30.22101,-0.5874 59.00441,-20.61 42.05452,-60.6994 45,34.5472 65.3769,-2.234 65.63599,-34.0624 -0.25909,-31.82839 -20.63599,-68.60953 -65.63599,-34.0624 v 0 M 498.67402,562.88239 c 41.3207,84.04286 67.26464,185.87217 87.85332,299.41839 C 556.31568,778.59382 509.83478,715.50153 450.5332,671.75195 393.43805,629.63016 325.64841,605.78414 251.28022,595.71366 M 196.20115,960 H 162.65429 M 140,659.36329 V 940 M 100,687.7793 V 900 m 1114.9185,154.9392 A 25,25 0 0 1 1225,1075 v 0 a 25,25 0 0 1 -25,25 25,25 0 0 1 -25,-25 25,25 0 0 1 14.2808,-22.5853 m -10.2067,9.7707 C 1156.1229,1055.0451 1105,1032.1634 1105,970 c 0,-65 45,-75 55,-75 20,0 34.1051,26.64204 34.1051,46.64204 0,40 -39.1051,33.77177 -39.1051,3.35796 0,-20 10,-30 10,-30 l -30,20 m 125,100 a 47.5,20 0 0 1 -47.5,20 47.5,20 0 0 1 -47.5,-20 47.5,20 0 0 1 47.5,-20 47.5,20 0 0 1 47.5,20 v 0 m -66.1509,-95.55831 C 1199.4522,935.88404 1208.1848,932.53182 1220,930 v 0 c 70,-15 59.8446,26.26295 15,30 -21.6833,1.80694 -36.0386,-0.24194 -43.2229,-4.0902 m 66.3883,-2.4205 c 25.2944,6.41437 10.0226,30.03268 -24.0408,31.15309 -50.4324,1.65883 -60.4614,-15.41331 -33.3334,-25.69858 m 46.7435,23.89089 c 31.3983,4.08687 17.2862,31.0324 -17.1468,32.231 -56.6766,1.9729 -59.3511,-22.54884 -13.184,-30.63726 m -31.2457,-70.98302 c 3.48,-5.51081 14.3403,-11.30299 32.4129,-15.17568 v 0 c 70,-15 59.8446,26.26295 15,30 -20.9545,1.74621 -35.0653,-0.10857 -42.4742,-3.70835 m -33.7996,32.7608 C 1162.0973,977.32219 1145,1025 1145,1025 m 10,-151.57224 V 180 l 45,-45 45,45 V 873.42775 M 1105,860 c 0,-20 40,-32.7067 40,0 0,7.45288 -10,7.53267 -10,0 0,-5 -9.929,-5.12392 -10,5 -0.2467,34.99913 65,-10 75,-20 10,10 75.2467,54.99913 75,20 -0.071,-10.12392 -10,-10 -10,-5 0,7.53267 -10,7.45288 -10,0 0,-32.7067 40,-20 40,0 0,50 -85,27.59954 -95,15 -10,12.59954 -95,35 -95,-15 v 0 m 95.4076,-14.37632 c 1.9077,-27.81216 7.833,-71.45499 7.3023,-90.89504 -0.6821,-24.9907 -10.7401,-33.89856 -11.2858,-53.89111 -0.5457,-19.99256 17.4467,-51.39008 16.7646,-76.38077 -0.6821,-24.9907 -15.3003,-53.22304 -15.846,-73.21559 -0.5457,-19.99256 9.3265,-45.27133 8.7808,-65.26389 -0.5457,-19.99255 -17.0888,-55.85995 -17.6345,-75.8525 -0.5457,-19.99255 14.5502,-64.52612 14.0045,-84.51867 -0.5457,-19.99255 -11.8559,-50.10567 -12.2652,-65.10009 -0.4093,-14.99442 13.3013,-62.43872 12.892,-77.43314 C 1202.7111,168.07847 1200.4465,149.67911 1200,135 c -0.037,15.31531 1.7159,33.76847 1.7159,48.76847 0,15 -15,62.05255 -15,77.05255 0,15 10.4844,45.41051 10.4844,65.41051 0,20 -16.3054,64.10509 -16.3054,84.10509 0,20 15.5583,56.30542 15.5583,76.30542 0,20 -10.5583,45 -10.5583,65 0,20 13.8424,48.62069 13.8424,73.62069 0,25 -18.8424,55.89491 -18.8424,75.89491 0,20 9.8112,29.17898 9.8112,54.17898 0,23.25677 -10.1739,80.86223 -10.7473,104.86172 M 203.40468,977.83395 c 85.59108,-21.58175 147.29353,-22.23267 227.62043,-5.81758 M 279.80507,804.71486 c -0.5071,27.73989 -0.59057,55.30305 -0.35663,82.68813 -30.26406,3.32862 -59.22478,9.70945 -87.13962,18.52893 M 350.72792,804.2916 c 2.05678,26.95785 3.64214,53.9925 4.81238,81.07906 26.31559,1.50782 53.67624,5.31289 82.16046,11.71839 M 217.22532,1000.1643 c 76.07132,-18.43261 129.85852,-19.10372 201.29917,-5.1651 M 254.64372,815.46829 c -0.21617,16.80985 -0.26541,33.53542 -0.22966,50.20944 -18.61672,2.96986 -36.77403,6.9726 -54.47676,11.92212 m 228.23575,-8.05723 c -16.59171,-3.25658 -32.85474,-5.66805 -48.80196,-7.30239 -0.81436,-15.76472 -1.72691,-31.52041 -2.81265,-47.25629 M 330,880 a 15,15 0 0 1 -15,15 15,15 0 0 1 -15,-15 15,15 0 0 1 15,-15 15,15 0 0 1 15,15 v 0 m 0,-45 a 15,15 0 0 1 -15,15 15,15 0 0 1 -15,-15 15,15 0 0 1 15,-15 15,15 0 0 1 15,15 v 0 m 0,90 a 15,15 0 0 1 -15,15 15,15 0 0 1 -15,-15 15,15 0 0 1 15,-15 15,15 0 0 1 15,15 v 0 m -50,0 a 15,15 0 0 1 -15,15 15,15 0 0 1 -15,-15 15,15 0 0 1 15,-15 15,15 0 0 1 15,15 v 0 m -45,10 a 15,15 0 0 1 -15,15 15,15 0 0 1 -15,-15 15,15 0 0 1 15,-15 15,15 0 0 1 15,15 v 0 m 145,-10 a 15,15 0 0 1 -15,15 15,15 0 0 1 -15,-15 15,15 0 0 1 15,-15 15,15 0 0 1 15,15 v 0 m 45,5 a 15,15 0 0 1 -15,15 15,15 0 0 1 -15,-15 15,15 0 0 1 15,-15 15,15 0 0 1 15,15 v 0 M 285.24246,803.19971 a 30.652709,27.5 0 0 1 -0.01,-0.69971 30.652709,27.5 0 0 1 30.65271,-27.5 30.652709,27.5 0 0 1 30.65271,27.5 v 0 a 30.652709,27.5 0 0 1 -0.0111,0.74119 M 303.33594,777.96363 C 300.16664,763.71638 289.40005,725.93333 265,730 c -23.93685,3.98948 -41.63933,59.0169 -20,70 16.94523,8.6006 16.08956,-46.8725 35,-45 9.35264,0.92609 13.58085,21.49426 14.69108,28.02722 m 9.40408,-5.88375 c 4.4e-4,0.008 8.8e-4,0.0157 10e-4,0.0236 m 21.8422,-0.61289 C 327.44566,750.40572 331.61384,724.78477 340,700 l -25,-30 -25,30 c 8.44914,24.97093 12.61672,50.79065 14.09516,77.14347 m 21.84229,-0.57353 c 3e-4,-0.005 6.1e-4,-0.0105 9.1e-4,-0.0158 m 9.62617,5.03566 C 336.98856,773.91148 341.25333,755.86608 350,755 c 18.91044,-1.8725 18.05477,53.6006 35,45 21.63933,-10.9831 3.93685,-66.01052 -20,-70 -24.00176,-4.00029 -34.81152,32.49405 -38.17465,47.24743 M 177.59568,945 l -38.54101,10e-6 m 37.12111,-15.00002 -36.17578,2e-5 m 36.20703,-15 L 140,914.99999 M 178.03906,900.00001 140,900.00002 m 41.58201,-15.00004 -41.58203,10e-6 m 47.125,-15.00002 -47.12499,3e-5 m 54.60742,-15.00001 -54.60742,-2e-5 M 204.60937,840 140,840.00003 m 77.78129,-15.00002 -77.78126,2e-5 m 93.26363,-15.00001 -93.26367,-3e-5 M 222.86525,795.00001 140,794.99998 m 80.21681,-14.99996 -80.2168,2e-5 m 81.7617,-15.00006 -81.76171,3e-5 m 86.44727,-15.00002 H 140 m 319.99999,194.99999 h -5.82617 M 460,930 h -4.40625 M 460,915 h -4.43555 m 4.43554,-15.00001 h -6.27148 m 6.27148,-15 h -9.8125 M 460,870.00001 H 444.66211 M 460,854.99999 h -22.81055 m 22.81054,-15 h -32.8125 m 32.81252,-14.99998 -46.00586,10e-6 M 460,810 l -63.17383,-10e-6 M 460,795.00001 H 407.11524 M 460,780 H 409.7832 M 460,765 H 408.23828 M 460,749.99999 H 403.55273 M 1300,1040 h -41.5703 M 1245,830 1300.0002,811.6666 M 865.53857,536.83251 c 25.59043,3.75924 49.27112,-7.0426 49.10581,-33.28388 -0.15063,-23.91156 -23.26763,-33.14341 -37.8994,-27.02609 m 9.14835,61.48859 c 25.59043,3.75924 49.27112,-7.0426 49.10581,-33.28388 -0.14584,-23.15041 -21.81918,-32.5408 -36.47735,-27.56363 m 7.37154,60.84751 c 25.59043,3.75924 49.27112,-7.0426 49.10581,-33.28388 -0.15063,-23.91156 -23.26763,-33.14341 -37.8994,-27.02609 m 3.79359,60.30997 c 25.59043,3.75924 49.27112,-7.0426 49.10581,-33.28388 -0.14389,-22.84129 -21.24423,-32.28757 -35.88649,-27.75532 m 6.78068,61.0392 c 25.59043,3.75924 49.27112,-7.0426 49.10581,-33.28388 -0.15063,-23.91156 -23.26763,-33.14341 -37.8994,-27.02609 m 8.79359,60.30997 c 25.59043,3.75924 49.27107,-7.0426 49.10577,-33.28388 -0.1506,-23.91156 -23.26759,-33.14341 -37.89936,-27.02609 m 8.79363,60.30999 c 25.59043,3.75924 49.27103,-7.0426 49.10573,-33.28388 -0.1506,-23.91156 -23.2676,-33.14341 -37.89932,-27.02609 M 754.93884,214.82768 c 58.34598,120.26296 27.10929,213.5326 28.09459,252.46562 C 785,545 895,560 894.64438,503.54863 894.4239,468.54933 845,465 845,495 c -0.58884,16.60389 31.33307,20.56835 25,0 M 772.97952,215.89263 c 58.23362,119.78121 37.19917,213.16303 38.18157,251.98122 0.81966,32.38769 23.43213,43.3432 49.50304,41.01851 M 791.0011,216.95348 c 57.74588,119.2716 39.18049,212.21686 40.15999,250.92037 0.41416,16.36491 6.39223,27.25797 15.56903,33.73083 M 811.03389,218.61719 c 47.4415,81.93703 34.36333,176.1067 41.47193,260.64511 M 830.07499,220.3536 C 877.7565,299.70708 867.69409,390.71711 880.00466,475 M 848.35018,222.12381 c 45.91566,80.08836 39.24698,178.27929 59.15331,252.77829 M 867.12958,224.32371 c 44.88881,80.25279 39.31817,181.40196 67.87275,251.10903 M 886.0729,226.53891 c 44.62204,81.12034 39.36932,189.0492 76.42826,250.11804 M 897.635,216.50054 C 949.20935,300.1396 951.802,432.02725 990,475 M 774.52433,561.15249 C 804.21197,565.21383 839.25108,548.55039 845,537.05255 M 755,215 C 846.36834,433.50932 720.99414,442.80052 724.06221,515.88799 724.90768,536.02872 735,545 748.28541,549.57549 m 31.67026,-1.19406 c 21.55339,5.2519 48.55985,-2.60008 66.06711,-11.30103 M 790.4446,381.67337 c -9.30199,47.9588 -51.77834,73.17291 -48.8776,123.23963 0.65368,11.28245 7.62039,16.12057 11.39398,23.11384 m 36.73587,-131.54545 c -10.50178,31.11022 -33.46367,50.38317 -31.00179,92.87516 3.09931,53.494 45.33224,53.9396 77.63334,45.16281 M 788.24973,411.56204 c -8.79545,19.55292 -20.03258,35.14107 -18.1033,68.4404 2.59497,44.78898 31.60605,55.44215 59.93823,52.57176 M 700,505 c -4.57903,71.22644 80,80 80,40 0,-30 -50,-20 -30,5 m -67,-39 c 0,30 24.83261,77.83522 51.12918,54.58055 M 666,517 c 0,35 22.57543,70.89552 49.35562,55.67781 M 649,523 c 0,30 16,62 46.42097,53.22644 M 632,529 c 5,30 13,56 45.45288,49.03343 M 615,535 c 10,30 15,40 39.61549,43.9696 M 575,535 c -10,23.79694 -15.38451,26.85119 -40,30 m 23,-34.75939 C 553,554.03755 542.45288,565.52611 510,560 m 31,-34.51878 C 541,549.27816 510.42097,566.95947 480,560 m 27,-44.03756 c 0,23.79694 -28.11668,58.86778 -54.41325,40.42145 M 490,511.20305 C 500,566.72925 395,570 393.91626,525.21282 392.94313,484.99717 450,490 450,520 c 0,23.64294 -40.81764,30.22444 -40,5 0.2664,-8.21842 10,-15 20,-10 m 135,40 c 20,25 50,5 50,-20 m -91,-14.27817 c 0,20.17139 -20.53415,37.88267 -45.31856,38.57265 M 463.46556,224.87042 C 451.46332,265.44226 470,272.05028 470,325 c 0,55 -65,45 -65,5 0,-30 40,-25 40,0 0,18.40484 -30,20 -30,5 0,-15 15,-10 15,-10 m 26.51336,-100.17164 c -14.60221,44.60824 -6.85552,72.64285 -11.6423,107.21465 m -15.18746,78.64924 c 0,0 -15,-5 -15,10 0,15 30,13.40484 30,-5 0,-25 -44.10509,-30.41051 -44.10509,-0.41051 0,40 64.42149,44.71826 65,-5 C 465.87713,384.61802 460,380 466.73615,342.63806 450,370 466.90016,406.04789 444.10509,420.41051 M 465,405 c 18.91733,89.45692 2.8301,125.09854 -30,135 m 30,-265 c 0,0 20,-20 40,-20 20,0 27.54291,6.06121 32.53695,6.30542 C 543.0607,261.57553 550,255 555,250 v 10 c 0,0 -12.05255,4.66338 -17.05255,4.66338 -5,0 -26.04445,-5.80813 -34.17898,-6.30542 C 499.79535,258.11507 471.5435,266.39488 465,275 m 275,10 c 0,0 -32.9064,-33.28407 -52.9064,-33.28407 -20,0 -49.29989,8.52426 -54.29393,8.76847 C 627.27592,260.75451 615,260 610,250 v 10 c 0,0 17.38917,3.84236 22.38917,3.84236 5,0 50.16607,-9.23425 55.93596,-8.76847 C 704.21011,256.35623 733.4565,276.39488 740,285 M 555,260 c 0,0 15,15 15,20 0,20 -11.71593,30.41051 -11.71593,50.41051 0,20 -13.28407,59.58949 -12.87356,68.28407 C 545.64632,403.68902 560,410 565,410 c 5,0 5,20 5,20 m 35,-55 c 25,5 28.97367,36.32456 10,30 -45,-15 -45,10 -12.53695,-2.46305 M 530,460 v 10 l 5,-5 -5,-5 v 0 m 115,0 v 10 l -5,-5 5,-5 v 0 m -110,5 c 10,0 15,-10 25,-10 10,0 15,5 20,5 5,0 16.56814,-7.12644 21.56814,-7.12644 C 606.56814,452.87356 625,465 640,465 m -75,20 c 5.86123,12.36016 30,15 35,0 M 470,310 c 10,-5 20,-10 35.74713,-9.17898 C 521.53707,301.64427 535,325 550,325 c -25,0 -30,10 -45,10 -15,0 -25,-5 -35,-10 m 150,-10 c 0,0 20,-20 35,-20 15,0 50,20 60,20 -22.34673,-0.0507 -44.76433,15 -60,15 -20,0 -35,-15 -35,-15 M 495,430 c 5.81906,1.43908 15,-12.65844 0,-12.44589 -22.65292,0.321 -14.29708,33.46885 9.46432,33.43195 C 519.0676,450.96337 535,432.09863 550,430 v -10 c -30,10 -25,25 -45,30 m 185,-15 c -12.38091,-5 -19.67266,-21.47102 2.42784,-23.21688 C 715,410 710,450 667.29664,450.98606 645.72037,451.48428 632.31731,430 600,430 v -10 c 52.09763,5 36.9472,25 66.50496,30 m 91.34216,550 A 107.84712,96.547858 0 0 1 650,1096.5478 107.84712,96.547858 0 0 1 542.15288,1000 107.84712,96.547858 0 0 1 650,903.45216 107.84712,96.547858 0 0 1 757.84712,1000 v 0 M 533.14918,565.48022 c 44.80084,97.37577 70.461,213.43828 91.43118,340.76095 M 721.07031,752.72461 738.1827,944.621 m -92.64401,-225.88465 7.24869,184.84176 M 551.9629,960.00004 435.61326,960 m 370.64843,-3e-5 -58.25193,3e-5 m -0.002,-0.005 59.20999,-37.00622 M 201.98585,621.1053 c 182.60583,10.65772 322.19078,96.3116 373.56283,309.0787 M 754.22736,975 h 51.21992 m -312.94807,0 h 52.34563"
         id="path1820" />
    </symbol>
    <symbol
       id="CK4"
       preserveAspectRatio="none"
       viewBox="0 0 1300 2000">
      <path
         fill="#000000"
         d="m 672.93164,185.05078 c -70.69497,-0.11093 -145.24163,4.2451 -226.59961,14.0957 l 10.71875,26.28516 c 165.82048,-19.48743 302.23404,-15.74409 436.89063,2.14453 l 8.82031,-26.43164 C 828.22531,191.03949 753.05261,185.1765 672.93164,185.05078 Z M 401.37109,542.79492 c -51.87137,11.76555 -101.64808,29.66945 -149.64257,52.60547 73.92017,10.38352 141.70953,34.22977 198.80468,76.35156 59.30158,43.74958 105.78248,106.84187 135.99414,190.54883 C 565.93866,748.75456 539.99453,646.92567 498.67383,562.88281 L 425,555 Z M 938.56836,564.76367 720,670 544.17773,590.87891 l 21.85157,59.18164 154.61328,69.57422 163.99023,-78.95899 z m 161.95314,24.98828 C 992.68524,704.048 968.49088,820.68054 974.32031,951.08594 l 24.76563,0.59375 C 992.44268,822.22328 1015.8151,711.50425 1126.1387,599.14648 Z M 1245,642.29883 v 187.72656 l 55,-18.35742 V 662.61328 Z M 139.91406,659.40625 c -13.63827,9.14276 -39.990232,28.34766 -39.990232,28.34766 L 100,900 c 13.80712,0 25,11.19288 25,25 0,4.93906 -1.43146,9.54288 -4.18359,13.05664 5.06445,1.28077 12.00602,3.79597 19.5,7.49219 L 140,940 Z M 1050,787 c -4.057,-0.0574 -4.057,6.05738 0,6 h 75 c 4.057,0.0574 4.057,-6.05738 0,-6 z m -27.457,25 -1.1407,6 H 1140 v -6 z m -4.1739,23.5 -1.2421,9 h 77.2675 l 7.2364,-9 z m -2.9961,25 -0.8144,9 h 76.5098 l -1.0352,-9 z m -1.7265,25.5 -0.4922,18 h 98.6309 l -13.7188,-18 z m -0.6016,31 0.1328,6 h 86.4024 l 3.0664,-6 z m 0.4473,20 14.8027,6 h 64.6211 l 1.3945,-6 z m 44.5586,20 8.8652,6 h 23.3828 l 0.3574,-6 z m 25.1699,20 5.5195,6 h 2.0352 l -0.543,-6 z m -725.14843,6.64844 a 3.0003,3.0003 0 0 0 -1.60352,0.52929 c -11.4571,7.66252 -25.35724,12.09571 -40.58398,12.09571 -13.72709,0 -26.37503,-3.60462 -37.12891,-9.92774 a 3.0003,3.0003 0 1 0 -3.04102,5.17188 c 11.66888,6.86112 25.39068,10.75582 40.16993,10.75582 16.39385,0 31.48545,-4.79315 43.91992,-13.10934 a 3.0003,3.0003 0 0 0 -1.73242,-5.51562 z m 33.11914,3.67187 a 3.0003,3.0003 0 0 0 -2.29688,1.05469 c -17.73099,20.2083 -43.76195,32.8984 -73.00976,32.8984 -27.38853,0 -51.95164,-11.1275 -69.52735,-29.13668 a 3.0003,3.0003 0 1 0 -4.29492,4.18945 c 18.66645,19.12683 44.80635,30.94723 73.82227,30.94723 30.98568,0 58.68786,-13.4786 77.51953,-34.94137 a 3.0003,3.0003 0 0 0 -2.21289,-5.01172 z"
         id="path1823" />
    </symbol>
    <symbol
       id="CK3"
       preserveAspectRatio="none"
       viewBox="0 0 1300 2000">
      <path
         fill="#4444ff"
         d="m 1200,135 c -0.037,15.31531 1.7168,33.76758 1.7168,48.76758 0,15 -15,62.05273 -15,77.05273 0,15 10.4844,45.41211 10.4844,65.41211 0,20 -16.3067,64.10352 -16.3067,84.10352 0,20 15.5586,56.30664 15.5586,76.30664 0,20 -10.5586,45 -10.5586,65 0,20 13.8418,48.62109 13.8418,73.62109 0,25 -18.8418,55.89453 -18.8418,75.89453 0,20 9.8125,29.17774 9.8125,54.17774 0,23.25677 -10.1746,80.86379 -10.748,104.86328 l 20.4492,-14.57617 c 1.9077,-27.81216 7.8315,-71.45448 7.3008,-90.89453 -0.6821,-24.9907 -10.7395,-33.89808 -11.2852,-53.89063 -0.5457,-19.99256 17.4478,-51.39017 16.7657,-76.38086 -0.6821,-24.9907 -15.302,-53.22425 -15.8477,-73.2168 -0.5457,-19.99256 9.3269,-45.27111 8.7812,-65.26367 -0.5457,-19.99255 -17.089,-55.85901 -17.6347,-75.85156 -0.5457,-19.99255 14.5515,-64.52698 14.0058,-84.51953 -0.5457,-19.99255 -11.8563,-50.10519 -12.2656,-65.09961 -0.4093,-14.99442 13.3019,-62.43917 12.8926,-77.43359 C 1202.7119,168.07786 1200.4465,149.67911 1200,135 Z M 652.25977,294.0293 a 10,17.5 0 0 0 -10,17.5 10,17.5 0 0 0 10,17.5 10,17.5 0 0 0 10,-17.5 10,17.5 0 0 0 -10,-17.5 z m -150.04493,5.17382 a 10,17.5 0 0 0 -10,17.5 10,17.5 0 0 0 10,17.5 10,17.5 0 0 0 10,-17.5 10,17.5 0 0 0 -10,-17.5 z M 550,420 c -30,10 -25,25 -45,30 l -0.53516,0.98633 C 519.06812,450.96364 535,432.09863 550,430 Z m 50,0 v 10 c 32.31731,0 45.72059,21.48455 67.29688,20.98633 L 666.50586,450 C 636.9481,445 652.09763,425 600,420 Z m 526,179.06055 c -110.1846,112.44436 -133.55784,223.16409 -127.12109,352.5625 49.77099,5.73878 90.76149,41.01386 104.74609,88.15235 l 33.4336,0.1543 C 1119.7764,1025.4885 1105,1003.4214 1105,970 c 0,-65 45,-75 55,-75 10.7141,0 19.7357,7.64572 25.8809,18.13281 3.5566,-5.19816 14.4176,-10.99059 32.4902,-14.86328 66.7067,-14.29428 60.6228,22.50551 20.5293,29.04883 36.9733,-3.50654 38.8547,15.32295 19.5215,26.08008 21.3207,5.56259 13.3776,23.55473 -10.7285,29.42773 31.2392,4.09549 17.1266,31.04093 -17.0625,32.98243 17.3527,3.7677 29.3691,10.8888 29.3691,19.1914 0,1.8342 -0.5859,3.61 -1.627,5.1484 L 1300,1040.0293 V 662.66797 l -55,-20.16406 -0.1035,230.91211 c 16.0508,6.82562 30.2187,7.92842 30.1035,-8.41602 -0.071,-10.12392 -10,-10 -10,-5 0,7.53267 -10,7.45288 -10,0 0,-32.7067 40,-20 40,0 0,50 -85,27.59954 -95,15 -4.2058,5.29909 -21.68,12.3255 -40.5156,14.97656 -0.2694,0.0379 -0.5387,0.0752 -0.8086,0.11133 -1.1328,0.15153 -2.2694,0.29216 -3.4082,0.41016 C 1130.5403,893.05986 1105,887.40738 1105,860 c 0,-20 40,-32.7067 40,0 0,7.45288 -10,7.53267 -10,0 0,-5 -9.929,-5.12392 -10,5 -0.1137,16.12849 13.6801,15.26849 29.7832,8.55078 L 1155,609.20898 Z m 112.9004,328.25781 c -1.9692,0.18676 -4.0112,0.4201 -6.1816,0.73828 2.1404,-0.16576 4.2022,-0.41523 6.1816,-0.73828 z M 460.17383,718.58789 459.89648,960 550.65039,960.07227 575.32227,929.25 C 552.67896,836.10259 513.07278,767.38224 460.17383,718.58789 Z m 362.20703,5.32813 a 10,10 0 0 0 -10,10 10,10 0 0 0 10,10 10,10 0 0 0 10,-10 10,10 0 0 0 -10,-10 z M 620,735 a 10,10 0 0 0 -10,10 10,10 0 0 0 10,10 10,10 0 0 0 10,-10 10,10 0 0 0 -10,-10 z m 48.0293,3.2832 a 10,10 0 0 0 -10,10 10,10 0 0 0 10,10 10,10 0 0 0 10,-10 10,10 0 0 0 -10,-10 z m 109.60547,1.23242 a 10,10 0 0 0 -10,10 10,10 0 0 0 10,10 10,10 0 0 0 10,-10 10,10 0 0 0 -10,-10 z m -76.76368,15.18946 a 10,10 0 0 0 -10,10 10,10 0 0 0 10,10 10,10 0 0 0 10,-10 10,10 0 0 0 -10,-10 z m 45.1543,2.05273 a 10,10 0 0 0 -10,10 10,10 0 0 0 10,10 10,10 0 0 0 10,-10 10,10 0 0 0 -10,-10 z M 52.5,772.5 a 7.5,7.5 0 0 0 -7.5,7.5 7.5,7.5 0 0 0 7.5,7.5 7.5,7.5 0 0 0 7.5,-7.5 7.5,7.5 0 0 0 -7.5,-7.5 z m 430,10 c 6.90356,0 12.5,5.59644 12.5,12.5 0,6.90356 -5.59644,12.5 -12.5,12.5 -6.90356,0 -12.5,-5.59644 -12.5,-12.5 0,-6.90356 5.59644,-12.5 12.5,-12.5 z m 144.88867,3.40234 a 10,10 0 0 0 -10,10 10,10 0 0 0 10,10 10,10 0 0 0 10,-10 10,10 0 0 0 -10,-10 z m 154.76172,2.875 a 10,10 0 0 0 -10,10 10,10 0 0 0 10,10 10,10 0 0 0 10,-10 10,10 0 0 0 -10,-10 z m -111.6582,0.82032 a 10,10 0 0 0 -10,10 10,10 0 0 0 10,10 10,10 0 0 0 10,-10 10,10 0 0 0 -10,-10 z M 37.5,790 a 7.5,7.5 0 0 0 -7.5,7.5 7.5,7.5 0 0 0 7.5,7.5 7.5,7.5 0 0 0 7.5,-7.5 7.5,7.5 0 0 0 -7.5,-7.5 z m 35,2.5 A 7.5,7.5 0 0 0 65,800 7.5,7.5 0 0 0 72.5,807.5 7.5,7.5 0 0 0 80,800 7.5,7.5 0 0 0 72.5,792.5 Z M 55,805 l -25,75 15,-15 10,30 5,-30 10,15 z m 648.33398,1.01758 a 10,10 0 0 0 -10,10 10,10 0 0 0 10,10 10,10 0 0 0 10,-10 10,10 0 0 0 -10,-10 z m 47.20704,0 a 10,10 0 0 0 -10,10 10,10 0 0 0 10,10 10,10 0 0 0 10,-10 10,10 0 0 0 -10,-10 z m -373.89454,9.0039 c 0.99694,15.698 1.91025,31.45403 2.72461,47.21875 15.94722,1.63434 32.20958,4.04575 48.73243,7.03516 -11.30761,-23.03035 -29.27275,-41.87876 -51.45704,-54.25391 z M 254.5293,815.4375 c -24.40212,13.71317 -43.63391,35.3507 -54.45899,61.7793 17.5701,-4.56577 35.72703,-8.56921 54.34375,-11.53907 -0.0358,-16.67402 0.0135,-33.40021 0.11524,-50.24023 z M 522.5,827.5 c 6.90356,0 12.5,5.59644 12.5,12.5 0,6.90356 -5.59644,12.5 -12.5,12.5 -6.90356,0 -12.5,-5.59644 -12.5,-12.5 0,-6.90356 5.59644,-12.5 12.5,-12.5 z m 110.22656,13 a 10,10 0 0 0 -10,10 10,10 0 0 0 10,10 10,10 0 0 0 10,-10 10,10 0 0 0 -10,-10 z m 43.10352,3.28516 a 10,10 0 0 0 -10,10 10,10 0 0 0 10,10 10,10 0 0 0 10,-10 10,10 0 0 0 -10,-10 z m 108.7832,2.46289 a 10,10 0 0 0 -10,10 10,10 0 0 0 10,10 10,10 0 0 0 10,-10 10,10 0 0 0 -10,-10 z m -75.94336,13.95703 a 10,10 0 0 0 -10,10 10,10 0 0 0 10,10 10,10 0 0 0 10,-10 10,10 0 0 0 -10,-10 z m 44.33594,3.28515 a 10,10 0 0 0 -10,10 10,10 0 0 0 10,10 10,10 0 0 0 10,-10 10,10 0 0 0 -10,-10 z M 315,865 a 15,15 0 0 0 -15,15 15,15 0 0 0 15,15 15,15 0 0 0 15,-15 15,15 0 0 0 -15,-15 z m 167.5,2.5 c 6.90356,0 12.5,5.59644 12.5,12.5 0,6.90356 -5.59644,12.5 -12.5,12.5 -6.90356,0 -12.5,-5.59644 -12.5,-12.5 0,-6.90356 5.59644,-12.5 12.5,-12.5 z m -170.45898,2.44141 a 6.0259113,6.0741649 0 0 1 6.02734,6.07421 6.0259113,6.0741649 0 0 1 -6.02734,6.07422 6.0259113,6.0741649 0 0 1 -6.0254,-6.07422 6.0259113,6.0741649 0 0 1 6.0254,-6.07421 z m 477.91015,22.69336 a 10,10 0 0 0 -10,10 10,10 0 0 0 10,10 10,10 0 0 0 10,-10 10,10 0 0 0 -10,-10 z m -111.6582,6.56835 a 10,10 0 0 0 -9.10547,5.86719 l 19.08398,4.78321 a 10,10 0 0 0 0.0215,-0.6504 10,10 0 0 0 -10,-10 z M 537.5,905 c 6.90356,0 12.5,5.59644 12.5,12.5 0,6.90356 -5.59644,12.5 -12.5,12.5 -6.90356,0 -12.5,-5.59644 -12.5,-12.5 0,-6.90356 5.59644,-12.5 12.5,-12.5 z m 220.8418,4.87695 a 10,10 0 0 0 -10,10 10,10 0 0 0 10,10 10,10 0 0 0 10,-10 10,10 0 0 0 -10,-10 z M 265,910 a 15,15 0 0 0 -15,15 15,15 0 0 0 15,15 15,15 0 0 0 15,-15 15,15 0 0 0 -15,-15 z m 100,0 a 15,15 0 0 0 -15,15 15,15 0 0 0 15,15 15,15 0 0 0 15,-15 15,15 0 0 0 -15,-15 z m -3.39258,4.94141 a 6.0259113,6.0741649 0 0 1 6.02539,6.07421 6.0259113,6.0741649 0 0 1 -6.02539,6.07422 6.0259113,6.0741649 0 0 1 -6.02734,-6.07422 6.0259113,6.0741649 0 0 1 6.02734,-6.07421 z M 261.02539,915 a 6.0259113,6.0741649 0 0 1 6.02734,6.07422 6.0259113,6.0741649 0 0 1 -6.02734,6.07422 A 6.0259113,6.0741649 0 0 1 255,921.07422 6.0259113,6.0741649 0 0 1 261.02539,915 Z m 450.10742,0.62305 a 10,10 0 0 0 -5.62304,1.73242 l 15.46484,10.04297 a 10,10 0 0 0 0.1582,-1.77539 10,10 0 0 0 -10,-10 z m -385.54492,69.74804 c -33.88107,0.24625 -68.06815,5.05332 -108.61523,14.90431 22.59865,29.8389 58.51755,48.998 98.91211,48.998 42.74974,0 80.48797,-21.4593 102.83398,-54.23434 -33.57872,-6.55244 -63.2358,-9.88524 -93.13086,-9.66797 z"
         id="path1826" />
    </symbol>
    <symbol
       id="CK2"
       preserveAspectRatio="none"
       viewBox="0 0 1300 2000">
      <path
         fill="#ff0000"
         d="m 330,835 a 15,15 0 0 1 -15,15 15,15 0 0 1 -15,-15 15,15 0 0 1 15,-15 15,15 0 0 1 15,15 z m 0,90 a 15,15 0 0 1 -15,15 15,15 0 0 1 -15,-15 15,15 0 0 1 15,-15 15,15 0 0 1 15,15 z m -95,10 a 15,15 0 0 1 -15,15 15,15 0 0 1 -15,-15 15,15 0 0 1 15,-15 15,15 0 0 1 15,15 z m 190,-5 a 15,15 0 0 1 -15,15 15,15 0 0 1 -15,-15 15,15 0 0 1 15,-15 15,15 0 0 1 15,15 z m -285.1798,15.3063 c 7.62015,3.71791 15.83895,8.65802 23.19034,14.92176 l 33.17633,-0.0484 c -3.45336,-11.24539 -5.30162,-23.35952 -5.30162,-35.90534 10e-6,-58.338 39.964,-107.34192 94.00842,-121.12817 l 0.34879,0.0536 c -0.007,-0.23319 -0.01,-0.46645 -0.01,-0.69971 0,-7.81675 3.63523,-14.87177 9.46517,-19.67569 C 293.58085,776.49426 289.35264,755.92609 280,755 c -18.91044,-1.8725 -18.05477,53.6006 -35,45 -21.63933,-10.9831 -3.93685,-66.01052 20,-70 24.40005,-4.06667 35.16664,33.71638 38.33594,47.96363 l 0.75922,-0.82016 C 302.61672,750.79065 298.44914,724.97093 290,700 l 25,-30 25,30 c -8.38616,24.78477 -12.55434,50.40572 -14.06164,76.55418 l 0.88699,0.69325 C 330.18848,762.49405 340.99824,725.99971 365,730 c 23.93685,3.98948 41.63933,59.0169 20,70 -16.94523,8.6006 -16.08956,-46.8725 -35,-45 -8.74667,0.86608 -13.01144,18.91148 -14.70846,26.30184 6.74878,4.7514 11.24634,12.50357 11.24634,21.19816 0,0 -0.004,0.49418 0.33492,0.73756 54.21696,13.90174 94.01244,62.82189 94.01245,121.03677 0,12.29592 -1.77536,24.17718 -5.17786,35.56354 l 24.58818,0.16215 -0.0343,-241.33174 c -67.0994,-62.05809 -155.9304,-91.58965 -258.10002,-97.65004 -21.18998,11.90995 -42.06261,24.81864 -62.29505,38.42072 L 140,940 Z M 600.07385,1000 a 20,20 0 0 1 -20,20 20,20 0 0 1 -20,-20 20,20 0 0 1 20,-20 20,20 0 0 1 20,20 z M 670,944.17072 a 20,20 0 0 1 -20,20 20,20 0 0 1 -20,-20 20,20 0 0 1 20,-20 20,20 0 0 1 20,20 z m -177.72098,30.28663 c 0.90253,16.64091 1.10396,34.16165 1.14853,50.80285 l 53.45104,-0.3407 c -3.02618,-7.7454 -4.50058,-16.5055 -4.56907,-24.9195 0.0701,-8.61487 1.61409,-17.59258 4.74508,-25.42892 M 949.49508,955.5966 c -40.88979,11.85003 -72.97618,43.67917 -85.45215,84.2691 l -38.42409,0.1269 c -9.31373,-175.27439 7.1034,-342.08989 153.56044,-494.674 l 95.93872,35.13393 C 968.12464,698.47509 943.88877,822.19003 949.49508,955.5966 Z m -80.30605,-419.75832 55.18203,2.46557 -204.79879,98.60631 -167.21242,-75.25707 c 4.80253,-1.48989 8.36422,-3.58464 12.05461,-6.75962 C 585,580 615,560 615,535 c 10,30 15,40 39.61549,43.9696 28.31722,-1.16847 56.27099,-2.88702 77.74194,-14.4169 16.0177,6.95633 33.70441,5.11835 42.24684,-4.03452 29.6077,4.69565 64.64681,-11.96779 69.8605,-23.70323 8.36407,1.27737 17.08891,1.04323 24.72426,-0.97667 z M 385.06779,83.802165 c 10.92415,7.534905 23.02557,14.089038 36.41373,17.192565 3.26685,10.61217 6.90989,23.05462 14.4281,36.76454 3.7266,6.7957 8.65875,13.43872 14.08269,19.65146 56.0686,-6.63114 109.76671,-10.6617 161.31459,-12.31264 10.98281,-14.43465 19.10858,-32.14149 23.04479,-52.674917 9.53387,-4.368773 17.87708,-10.464195 24.62784,-17.581187 6.33421,7.50921 14.31629,14.093979 23.58526,19.026361 2.55022,19.151813 8.80607,36.110233 17.09179,50.457903 62.51999,0.99603 122.87103,5.50958 182.22907,12.89668 1.03656,-1.05016 2.17183,-2.2831 3.27881,-3.55974 13.50821,-15.57848 21.04333,-36.1939 22.97946,-60.172561 26.42133,-5.60885 46.23051,-13.178534 61.29818,-20.945568 C 932.02695,129.8664 915.3549,165.63627 902.96906,200.4476 762.45854,182.12363 619.8953,178.13191 445.94708,198.20679 430.24211,162.07551 411.84929,127.38199 385.06779,83.802165 Z"
         id="path1829" />
    </symbol>
    <symbol
       id="CK1"
       preserveAspectRatio="none"
       viewBox="0 0 1300 2000">
      <path
         fill="#ffcc44"
         d="m 315.88477,799.27344 c -12.56235,0 -24.6922,1.85347 -36.10547,5.37109 -0.48214,27.8097 -0.56402,55.37273 -0.33008,82.75781 -30.26406,3.32862 -59.22646,9.71055 -87.20508,18.66797 -0.91775,6.03679 -1.35937,12.06769 -1.35937,18.20313 0,19.37207 4.40727,37.71502 12.39648,53.82031 85.71456,-21.84226 147.4165,-22.49246 227.92578,-6.01172 6.30069,-14.67951 9.67774,-30.8501 9.67774,-47.80859 0,-9.41882 -1.04097,-18.59369 -3.09961,-27.30078 -28.56833,-6.28932 -55.92855,-10.09375 -82.24414,-11.60157 -1.17024,-27.08656 -2.75611,-54.12166 -4.69532,-81.09375 -11.01134,-3.26165 -22.78311,-5.0039 -34.96093,-5.0039 z M 315,865 a 15,15 0 0 1 15,15 15,15 0 0 1 -15,15 15,15 0 0 1 -15,-15 15,15 0 0 1 15,-15 z m -50,45 a 15,15 0 0 1 15,15 15,15 0 0 1 -15,15 15,15 0 0 1 -15,-15 15,15 0 0 1 15,-15 z m 100,0 a 15,15 0 0 1 15,15 15,15 0 0 1 -15,15 15,15 0 0 1 -15,-15 15,15 0 0 1 15,-15 z M 285.24246,803.19971 a 30.652709,27.5 0 0 1 -0.01,-0.69971 30.652709,27.5 0 0 1 30.65271,-27.5 30.652709,27.5 0 0 1 30.65271,27.5 v 0 a 30.652709,27.5 0 0 1 -0.0111,0.74119 M 303.33594,777.96363 C 300.16664,763.71638 289.40005,725.93333 265,730 c -23.93685,3.98948 -41.63933,59.0169 -20,70 16.94523,8.6006 16.08956,-46.8725 35,-45 9.35264,0.92609 13.58085,21.49426 14.69108,28.02722 m 31.24728,-6.47304 C 327.44566,750.40572 331.61384,724.78477 340,700 l -25,-30 -25,30 c 8.44914,24.97093 12.61672,50.79065 14.09516,77.14347 m 31.46937,4.44633 C 336.98856,773.91148 341.25333,755.86608 350,755 c 18.91044,-1.8725 18.05477,53.6006 35,45 21.63933,-10.9831 3.93685,-66.01052 -20,-70 -24.00176,-4.00029 -34.81152,32.49405 -38.17465,47.24743 M 692.05452,965.9376 C 709.00441,925.84824 680.22101,905.82567 650,905.23818 c -30.22101,0.58749 -59.00441,20.61006 -42.05452,60.69942 -45,-34.54713 -65.3769,2.23401 -65.63599,34.0624 0.25909,31.8284 20.63599,68.6096 65.63599,34.0624 -16.94989,40.0894 11.83351,60.112 42.05452,60.6994 30.22101,-0.5874 59.00441,-20.61 42.05452,-60.6994 45,34.5472 65.3769,-2.234 65.63599,-34.0624 -0.25909,-31.82839 -20.63599,-68.60953 -65.63599,-34.0624 z m -66.72249,-55.40049 c -1.29049,-7.8721 -2.59974,-15.69928 -3.92773,-23.48438 1.33034,7.78774 2.64812,15.6037 3.9414,23.47852 z m 124.39189,49.79159 56.49483,-0.44198 c 0.75351,-109.52858 18.21681,-216.80549 78.23828,-318.92774 L 720.64258,719.63477 566.14062,650.1582 c -9.74759,-29.54044 -20.63739,-57.82428 -32.99218,-84.67773 l -34.47461,-2.59766 c 41.3207,84.04286 67.26483,185.87175 87.85351,299.41797 C 556.31568,778.59382 509.83478,715.50153 450.5332,671.75195 393.43805,629.63016 325.64881,605.78465 251.81641,595.35938 c -16.48204,7.73731 -33.21405,16.43457 -49.74219,25.70898 182.00145,10.66405 321.30864,95.8619 372.76321,308.34003 C 635,890 711.03775,893.67129 749.72392,960.3287 Z M 609.7793,823.21289 c 0.12821,0.65669 0.25896,1.31132 0.38672,1.96875 -0.1277,-0.65764 -0.25858,-1.31186 -0.38672,-1.96875 z m 3.33398,17.41016 c 0.18997,1.01288 0.37739,2.0323 0.56641,3.04687 -0.18888,-1.01479 -0.37657,-2.03378 -0.56641,-3.04687 z m 2.69336,14.62109 c 0.35073,1.92997 0.70122,3.861 1.04883,5.79688 -0.34737,-1.93668 -0.69832,-3.86612 -1.04883,-5.79688 z m 1.72266,9.59961 c 1.22767,6.88986 2.4365,13.81701 3.6289,20.7793 -1.19118,-6.96496 -2.40216,-13.88689 -3.6289,-20.7793 z m 597.3892,190.09545 A 25,25 0 0 1 1225,1075 v 0 a 25,25 0 0 1 -25,25 25,25 0 0 1 -25,-25 25,25 0 0 1 14.2808,-22.5853 M 1260,1035 a 47.5,20 0 0 1 -47.5,20 47.5,20 0 0 1 -47.5,-20 47.5,20 0 0 1 47.5,-20 47.5,20 0 0 1 47.5,20 z M 1105,860 c 0,-20 40,-32.7067 40,0 0,7.45288 -10,7.53267 -10,0 0,-5 -9.929,-5.12392 -10,5 -0.2467,34.99913 65,-10 75,-20 10,10 75.2467,54.99913 75,20 -0.071,-10.12392 -10,-10 -10,-5 0,7.53267 -10,7.45288 -10,0 0,-32.7067 40,-20 40,0 0,50 -85,27.59954 -95,15 -10,12.59954 -95,35 -95,-15 z M 961.50795,538.87077 924.37106,538.30385 719.57227,636.91016 552.73103,561.52961 C 548.52182,563.03869 542.70237,564.01471 535,565 l 9.17732,25.87979 L 720,670 938.70991,564.54889 c 7.3233,-8.74993 14.8699,-17.2385 22.79804,-25.67812 z M 330.91797,0 c 45.53399,67.911651 74.9488,115.88677 97.1582,159.96484 187.30743,-23.75202 340.51457,-19.21489 490.88477,1.27149 C 936.8934,122.39682 965.05764,75.350942 1019.584,0 Z m 475.34372,959.99997 -58.25193,3e-5 6.2176,15 h 51.21992 z m -254.29879,7e-5 -59.3684,-2e-5 L 492.49921,975 h 52.34563 z"
         id="path1832" />
    </symbol>
    <rect
       id="XCK"
       width="164.8"
       height="260.79999"
       x="-82.400002"
       y="-130.39999" />
  </defs>
  <g
     id="g1926"
     transform="translate(-37.211441,-37.182751)">
    <use
       width="164.8"
       height="260.79999"
       x="-82.400002"
       y="-130.39999"
       xlink:href="#CK1"
       id="use1840" />
    <use
       transform="scale(-1)"
       width="164.8"
       height="260.79999"
       x="-82.400002"
       y="-130.39999"
       xlink:href="#CK1"
       id="use1842" />
    <use
       width="164.8"
       height="260.79999"
       x="-82.400002"
       y="-130.39999"
       xlink:href="#CK2"
       id="use1844" />
    <use
       transform="scale(-1)"
       width="164.8"
       height="260.79999"
       x="-82.400002"
       y="-130.39999"
       xlink:href="#CK2"
       id="use1846" />
    <use
       width="164.8"
       height="260.79999"
       x="-82.400002"
       y="-130.39999"
       xlink:href="#CK3"
       id="use1848" />
    <use
       transform="scale(-1)"
       width="164.8"
       height="260.79999"
       x="-82.400002"
       y="-130.39999"
       xlink:href="#CK3"
       id="use1850" />
    <use
       width="164.8"
       height="260.79999"
       x="-82.400002"
       y="-130.39999"
       xlink:href="#CK4"
       id="use1852" />
    <use
       transform="scale(-1)"
       width="164.8"
       height="260.79999"
       x="-82.400002"
       y="-130.39999"
       xlink:href="#CK4"
       id="use1854" />
    <use
       width="164.8"
       height="260.79999"
       x="-82.400002"
       y="-130.39999"
       xlink:href="#CK5"
       id="use1856" />
    <use
       transform="scale(-1)"
       width="164.8"
       height="260.79999"
       x="-82.400002"
       y="-130.39999"
       xlink:href="#CK5"
       id="use1858" />
    <use
       width="164.8"
       height="260.79999"
       x="-82.400002"
       y="-130.39999"
       xlink:href="#CK6"
       id="use1860" />
    <use
       transform="scale(-1)"
       width="164.8"
       height="260.79999"
       x="-82.400002"
       y="-130.39999"
       xlink:href="#CK6"
       id="use1862" />
    <g
       transform="scale(-1)"
       id="g1876" />
  </g>
</svg>
